<svg width="419" height="734" viewBox="0 0 419 734" fill="none" xmlns="http://www.w3.org/2000/svg">
<path d="M177.78 397.635L195.426 398.898L173.859 447.311L152.945 504.143L138.894 561.817L130.071 617.387L138.894 668.747L142.815 726H132.358L123.535 719.264L121.575 670.851L117 621.176L127.457 559.292L142.815 494.04L162.422 447.311L177.78 397.635Z" fill="#CDCDCD"/>
<ellipse cx="23.4681" cy="13.1482" rx="23.4681" ry="13.1482" transform="matrix(0.69433 0.719657 -0.529691 0.84819 158.378 356.552)" fill="#CDCDCD"/>
<ellipse cx="20.9457" cy="14.3001" rx="20.9457" ry="14.3001" transform="matrix(-0.996133 -0.0878582 -0.0530668 0.998591 203.354 374.767)" fill="#CDCDCD"/>
<ellipse cx="19.9241" cy="11.1626" rx="19.9241" ry="11.1626" transform="matrix(-0.69433 -0.719657 0.529691 -0.84819 213.29 318.112)" fill="#CDCDCD"/>
<ellipse cx="17.7826" cy="12.1406" rx="17.7826" ry="12.1406" transform="matrix(0.996133 0.0878582 0.0530668 -0.998591 183.268 298.526)" fill="#CDCDCD"/>
<ellipse cx="15.698" cy="7.86234" rx="15.698" ry="7.86234" transform="matrix(-0.52041 -0.853917 0.703058 -0.711133 210.457 294.177)" fill="#CDCDCD"/>
<ellipse cx="18.0768" cy="10.7685" rx="18.0768" ry="10.7685" transform="matrix(0.896843 -0.44235 -0.284867 -0.958567 219.207 310.504)" fill="#CDCDCD"/>
<ellipse cx="18.0768" cy="10.7685" rx="18.0768" ry="10.7685" transform="matrix(0.896843 -0.44235 -0.284867 -0.958567 215.285 328.185)" fill="#CDCDCD"/>
<ellipse cx="17.4855" cy="11.0044" rx="17.4855" ry="11.0044" transform="matrix(0.981794 -0.189951 -0.115787 -0.993274 203.856 345.31)" fill="#CDCDCD"/>
<ellipse cx="17.4855" cy="11.0044" rx="17.4855" ry="11.0044" transform="matrix(0.981794 -0.189951 -0.115787 -0.993274 203.856 357.94)" fill="#CDCDCD"/>
<ellipse cx="17.4855" cy="11.0044" rx="17.4855" ry="11.0044" transform="matrix(0.981794 -0.189951 -0.115787 -0.993274 196.667 381.515)" fill="#CDCDCD"/>
<ellipse cx="17.4736" cy="11.0091" rx="17.4736" ry="11.0091" transform="matrix(0.983514 0.180834 0.110109 -0.99392 194.772 382.473)" fill="#CDCDCD"/>
<ellipse cx="18.3384" cy="10.66" rx="18.3384" ry="10.66" transform="matrix(0.859428 0.511257 0.337408 -0.941359 186.276 397.497)" fill="#CDCDCD"/>
<ellipse cx="18.6676" cy="10.5195" rx="18.6676" ry="10.5195" transform="matrix(0.812285 0.583261 0.39707 -0.917789 190.197 379.898)" fill="#CDCDCD"/>
<ellipse cx="16.4223" cy="7.43303" rx="16.4223" ry="7.43303" transform="matrix(-0.341601 -0.939845 0.856265 -0.516536 208.606 280.42)" fill="#CDCDCD"/>
<ellipse cx="16.9159" cy="8.17684" rx="16.9159" ry="8.17684" transform="matrix(0.942586 -0.333964 -0.208772 -0.977964 222.368 282.635)" fill="#CDCDCD"/>
<ellipse cx="16.9159" cy="8.17684" rx="16.9159" ry="8.17684" transform="matrix(0.942586 -0.333964 -0.208772 -0.977964 221.714 271.69)" fill="#CDCDCD"/>
<ellipse cx="16.4223" cy="7.43303" rx="16.4223" ry="7.43303" transform="matrix(-0.341601 -0.939845 0.856265 -0.516536 216.449 263.58)" fill="#CDCDCD"/>
<ellipse cx="13.6238" cy="8.88711" rx="13.6238" ry="8.88711" transform="matrix(0.925342 -0.379133 -0.23967 -0.970854 227.788 261.881)" fill="#CDCDCD"/>
<ellipse cx="16.0708" cy="7.6468" rx="16.0708" ry="7.6468" transform="matrix(-0.434615 -0.900617 0.780515 -0.625138 221.159 245.859)" fill="#CDCDCD"/>
<ellipse cx="13.5681" cy="7.52966" rx="13.5681" ry="7.52966" transform="matrix(0.935822 -0.352473 -0.221308 -0.975204 233.396 245.074)" fill="#CDCDCD"/>
<ellipse cx="13.5681" cy="7.52966" rx="13.5681" ry="7.52966" transform="matrix(0.935822 -0.352473 -0.221308 -0.975204 232.089 234.97)" fill="#CDCDCD"/>
<path d="M248.69 145.888C242.29 141.137 214.613 252.62 208.015 267.368C201.418 282.117 186.739 402.566 193.138 407.317C199.537 412.068 224.773 293.667 231.371 278.918C237.968 264.17 255.089 150.639 248.69 145.888Z" fill="#CDCDCD"/>
<ellipse cx="16.5551" cy="7.34945" rx="16.5551" ry="7.34945" transform="matrix(-0.301023 -0.953617 0.885795 -0.464076 224.999 231.434)" fill="#CDCDCD"/>
<ellipse cx="13.8448" cy="6.67669" rx="13.8448" ry="6.67669" transform="matrix(0.88382 -0.467827 -0.303848 -0.95272 234.775 227.134)" fill="#CDCDCD"/>
<ellipse cx="16.1344" cy="6.23785" rx="16.1344" ry="6.23785" transform="matrix(-0.418888 -0.908038 0.794 -0.607918 231.163 213.909)" fill="#CDCDCD"/>
<ellipse cx="14.1795" cy="7.08178" rx="14.1795" ry="7.08178" transform="matrix(0.820961 -0.570984 -0.386491 -0.922293 238.152 213.032)" fill="#CDCDCD"/>
<ellipse cx="16.9401" cy="5.8186" rx="16.9401" ry="5.8186" transform="matrix(-0.135694 -0.990751 0.975124 -0.22166 229.433 198.032)" fill="#CDCDCD"/>
<ellipse cx="14.6719" cy="6.8889" rx="14.6719" ry="6.8889" transform="matrix(0.727643 -0.685956 -0.49389 -0.869524 241.443 199.046)" fill="#CDCDCD"/>
<ellipse cx="16.0191" cy="6.294" rx="16.0191" ry="6.294" transform="matrix(-0.447121 -0.894473 0.769619 -0.638504 241.121 182.583)" fill="#CDCDCD"/>
<ellipse cx="15.0307" cy="6.74058" rx="15.0307" ry="6.74058" transform="matrix(0.658012 -0.753007 -0.567647 -0.823272 244.252 181.307)" fill="#CDCDCD"/>
<ellipse cx="16.8886" cy="5.84697" rx="16.8886" ry="5.84697" transform="matrix(-0.166721 -0.986004 0.962805 -0.270197 238.309 164.671)" fill="#CDCDCD"/>
<ellipse cx="15.3736" cy="6.59226" rx="15.3736" ry="6.59226" transform="matrix(0.589078 -0.808076 -0.637076 -0.7708 246.959 161.532)" fill="#CDCDCD"/>
<ellipse cx="16.6828" cy="4.84371" rx="16.6828" ry="4.84371" transform="matrix(-0.257119 -0.96638 0.914779 -0.403955 243.218 144.157)" fill="#CDCDCD"/>
<ellipse cx="12.467" cy="3.85375" rx="12.467" ry="3.85375" transform="matrix(-0.0382127 -0.99927 0.997992 -0.0633407 242.78 135.088)" fill="#CDCDCD"/>
<ellipse cx="12.1911" cy="3.99094" rx="12.1911" ry="3.99094" transform="matrix(0.266311 -0.963887 0.908988 0.416823 245.749 133.186)" fill="#CDCDCD"/>
<ellipse cx="11.3085" cy="4.38273" rx="11.3085" ry="4.38273" transform="matrix(0.572943 -0.819595 0.652867 0.757473 247.056 129.905)" fill="#CDCDCD"/>
<ellipse cx="24.662" cy="12.5162" rx="24.662" ry="12.5162" transform="matrix(0.541601 0.840636 -0.683041 0.73038 168.736 329.436)" fill="#CDCDCD"/>
<ellipse cx="21.033" cy="14.2639" rx="21.033" ry="14.2639" transform="matrix(-0.985649 0.168806 0.102645 0.994718 210.028 345.794)" fill="#CDCDCD"/>
<ellipse cx="20.9377" cy="10.6261" rx="20.9377" ry="10.6261" transform="matrix(-0.541601 -0.840636 0.683041 -0.73038 200.948 333.555)" fill="#CDCDCD"/>
<ellipse cx="17.8567" cy="12.1098" rx="17.8567" ry="12.1098" transform="matrix(0.985649 -0.168806 -0.102645 -0.994718 184.199 320.659)" fill="#CDCDCD"/>
<ellipse cx="22.5" cy="10.7878" rx="22.5" ry="10.7878" transform="matrix(0.518882 0.854846 -0.704488 0.709716 177.295 312.597)" fill="#CDCDCD"/>
<ellipse cx="19.1132" cy="12.3651" rx="19.1132" ry="12.3651" transform="matrix(-0.978732 0.205144 0.125294 0.99212 212.612 325.944)" fill="#CDCDCD"/>
<ellipse cx="19.1022" cy="9.15869" rx="19.1022" ry="9.15869" transform="matrix(-0.518882 -0.854846 0.704488 -0.709716 193.682 347.852)" fill="#CDCDCD"/>
<ellipse cx="16.2268" cy="10.4978" rx="16.2268" ry="10.4978" transform="matrix(0.978732 -0.205144 -0.125294 -0.99212 182.005 337.512)" fill="#CDCDCD"/>
<path d="M189.5 340L166 342L169.411 419.45L199.788 482.168L220.198 545.815L233.014 607.139L220.198 663.817L214.502 727H229.691L242.506 719.567L245.354 666.14L251.999 611.32L236.811 543.027L214.502 471.018L186.024 419.45L189.5 340Z" fill="#D9D9D9"/>
<ellipse cx="30.1257" cy="15.931" rx="30.1257" ry="15.931" transform="matrix(-0.880509 0.474028 0.492358 0.870393 232.26 338.637)" fill="#D9D9D9"/>
<ellipse cx="30.3742" cy="15.7973" rx="30.3742" ry="15.7973" transform="matrix(0.994357 0.106085 -0.103179 0.994663 164.446 347.179)" fill="#D9D9D9"/>
<ellipse cx="25.5763" cy="13.5252" rx="25.5763" ry="13.5252" transform="matrix(0.880509 -0.474028 -0.492358 -0.870393 161.003 283.105)" fill="#D9D9D9"/>
<ellipse cx="25.7873" cy="13.4116" rx="25.7873" ry="13.4116" transform="matrix(-0.994357 -0.106085 0.103179 -0.994663 207.683 269.329)" fill="#D9D9D9"/>
<ellipse cx="18.9641" cy="10.126" rx="18.9641" ry="10.126" transform="matrix(0.750781 -0.660551 -0.676039 -0.736865 169.608 257.796)" fill="#D9D9D9"/>
<ellipse cx="25.1474" cy="12.2318" rx="25.1474" ry="12.2318" transform="matrix(-0.861929 -0.507029 0.519315 -0.854583 153.985 273.354)" fill="#D9D9D9"/>
<ellipse cx="25.1474" cy="12.2318" rx="25.1474" ry="12.2318" transform="matrix(-0.861929 -0.507029 0.519315 -0.854583 156.233 293.556)" fill="#D9D9D9"/>
<ellipse cx="25.2034" cy="12.2035" rx="25.2034" ry="12.2035" transform="matrix(-0.949505 -0.313753 0.319725 -0.94751 169.329 315.033)" fill="#D9D9D9"/>
<ellipse cx="25.2034" cy="12.2035" rx="25.2034" ry="12.2035" transform="matrix(-0.949505 -0.313753 0.319725 -0.94751 166.927 328.762)" fill="#D9D9D9"/>
<ellipse cx="25.2034" cy="12.2035" rx="25.2034" ry="12.2035" transform="matrix(-0.949505 -0.313753 0.319725 -0.94751 172.73 356.188)" fill="#D9D9D9"/>
<ellipse cx="25.2045" cy="12.203" rx="25.2045" ry="12.203" transform="matrix(-0.999408 -0.0343931 0.0283992 -0.999597 175.258 357.704)" fill="#D9D9D9"/>
<ellipse cx="25.1219" cy="12.2445" rx="25.1219" ry="12.2445" transform="matrix(-0.968592 0.248656 -0.264427 -0.964406 184.557 376.163)" fill="#D9D9D9"/>
<ellipse cx="25.0894" cy="12.2608" rx="25.0894" ry="12.2608" transform="matrix(-0.94726 0.320465 -0.33768 -0.941261 182.294 356.05)" fill="#D9D9D9"/>
<ellipse cx="18.8816" cy="10.1694" rx="18.8816" ry="10.1694" transform="matrix(0.580555 -0.814221 -0.823669 -0.567071 174.873 243.304)" fill="#D9D9D9"/>
<ellipse cx="23.9843" cy="9.16653" rx="23.9843" ry="9.16653" transform="matrix(-0.906385 -0.422452 0.432362 -0.9017 154.762 242.268)" fill="#D9D9D9"/>
<ellipse cx="23.9843" cy="9.16653" rx="23.9843" ry="9.16653" transform="matrix(-0.906385 -0.422452 0.432362 -0.9017 157.779 230.534)" fill="#D9D9D9"/>
<ellipse cx="18.8816" cy="10.1694" rx="18.8816" ry="10.1694" transform="matrix(0.580555 -0.814221 -0.823669 -0.567071 166.855 223.036)" fill="#D9D9D9"/>
<ellipse cx="19.1781" cy="10.0116" rx="19.1781" ry="10.0116" transform="matrix(-0.889303 -0.457318 0.468295 -0.883572 150.953 218.35)" fill="#D9D9D9"/>
<ellipse cx="18.9221" cy="10.1482" rx="18.9221" ry="10.1482" transform="matrix(0.673603 -0.739093 -0.751904 -0.659272 163.486 202.594)" fill="#D9D9D9"/>
<ellipse cx="19.1834" cy="8.45716" rx="19.1834" ry="8.45716" transform="matrix(-0.899616 -0.436681 0.44704 -0.894514 146.126 198.676)" fill="#D9D9D9"/>
<ellipse cx="19.1834" cy="8.45716" rx="19.1834" ry="8.45716" transform="matrix(-0.899616 -0.436681 0.44704 -0.894514 149.917 188.02)" fill="#D9D9D9"/>
<path d="M143.107 87.0288C153.166 83.466 171.566 211.581 178.201 229.265C184.835 246.949 182.931 381.558 172.871 385.12C162.812 388.683 149.222 253.658 142.587 235.974C135.953 218.291 133.048 90.5917 143.107 87.0288Z" fill="#D9D9D9"/>
<ellipse cx="18.866" cy="10.1776" rx="18.866" ry="10.1776" transform="matrix(0.537082 -0.84353 -0.85147 -0.524403 160.735 185.951)" fill="#D9D9D9"/>
<ellipse cx="19.1568" cy="7.61316" rx="19.1568" ry="7.61316" transform="matrix(-0.849605 -0.527419 0.540163 -0.84156 147.566 178.83)" fill="#D9D9D9"/>
<ellipse cx="18.9148" cy="8.32271" rx="18.9148" ry="8.32271" transform="matrix(0.658541 -0.752545 -0.764809 -0.644257 155.248 165.358)" fill="#D9D9D9"/>
<ellipse cx="19.1239" cy="8.23158" rx="19.1239" ry="8.23158" transform="matrix(-0.790411 -0.612577 0.626642 -0.779307 145.415 162.655)" fill="#D9D9D9"/>
<ellipse cx="18.8201" cy="8.36336" rx="18.8201" ry="8.36336" transform="matrix(0.344352 -0.93884 -0.941341 -0.337455 160.743 148.532)" fill="#D9D9D9"/>
<ellipse cx="19.074" cy="8.25352" rx="19.074" ry="8.25352" transform="matrix(-0.700476 -0.713676 0.727836 -0.68575 143.366 146.628)" fill="#D9D9D9"/>
<ellipse cx="18.928" cy="8.31703" rx="18.928" ry="8.31703" transform="matrix(0.685381 -0.728184 -0.741419 -0.671042 146.958 128.812)" fill="#D9D9D9"/>
<ellipse cx="19.0365" cy="8.26994" rx="19.0365" ry="8.26994" transform="matrix(-0.630291 -0.776359 0.789598 -0.613625 142.721 126.642)" fill="#D9D9D9"/>
<ellipse cx="18.8263" cy="8.36071" rx="18.8263" ry="8.36071" transform="matrix(0.382204 -0.924078 -0.927449 -0.37395 154.387 110.045)" fill="#D9D9D9"/>
<ellipse cx="18.9997" cy="8.28597" rx="18.9997" ry="8.28597" transform="matrix(-0.557638 -0.830084 0.841822 -0.539754 142.608 104.467)" fill="#D9D9D9"/>
<ellipse cx="18.8509" cy="6.78854" rx="18.8509" ry="6.78854" transform="matrix(0.488216 -0.872723 -0.879067 -0.476698 151.266 86.5166)" fill="#D9D9D9"/>
<ellipse cx="13.7655" cy="5.59287" rx="13.7655" ry="5.59287" transform="matrix(0.22163 -0.975131 -0.975596 -0.219574 153.616 76.7675)" fill="#D9D9D9"/>
<ellipse cx="13.7986" cy="5.57994" rx="13.7986" ry="5.57994" transform="matrix(-0.17469 -0.984623 -0.986899 0.161339 149.73 73.9565)" fill="#D9D9D9"/>
<ellipse cx="13.8991" cy="5.54035" rx="13.8991" ry="5.54035" transform="matrix(-0.540151 -0.841568 -0.85289 0.52209 148.484 70.0628)" fill="#D9D9D9"/>
<ellipse cx="29.9974" cy="15.9992" rx="29.9974" ry="15.9992" transform="matrix(-0.768521 0.639824 0.655872 0.754873 222.597 306.568)" fill="#D9D9D9"/>
<ellipse cx="30.3661" cy="15.8016" rx="30.3661" ry="15.8016" transform="matrix(0.954569 0.297991 -0.303332 0.952885 160.405 314.014)" fill="#D9D9D9"/>
<ellipse cx="25.4674" cy="13.5831" rx="25.4674" ry="13.5831" transform="matrix(0.768521 -0.639824 -0.655872 -0.754873 175.725 302.982)" fill="#D9D9D9"/>
<ellipse cx="25.7804" cy="13.4154" rx="25.7804" ry="13.4154" transform="matrix(-0.954569 -0.297991 0.303332 -0.952885 202.142 293.156)" fill="#D9D9D9"/>
<ellipse cx="27.1682" cy="13.9013" rx="27.1682" ry="13.9013" transform="matrix(-0.749482 0.662024 0.677471 0.73555 213.554 286.12)" fill="#D9D9D9"/>
<ellipse cx="27.5141" cy="13.7239" rx="27.5141" ry="13.7239" transform="matrix(0.94568 0.325099 -0.331517 0.943449 160.484 291.789)" fill="#D9D9D9"/>
<ellipse cx="23.0654" cy="11.802" rx="23.0654" ry="11.802" transform="matrix(0.749482 -0.662024 -0.677471 -0.73555 183.402 320.342)" fill="#D9D9D9"/>
<ellipse cx="23.3591" cy="11.6514" rx="23.3591" ry="11.6514" transform="matrix(-0.94568 -0.325099 0.331517 -0.943449 202.076 312.025)" fill="#D9D9D9"/>
<path d="M118.22 397.635L100.574 398.898L122.141 447.311L143.055 504.143L157.106 561.817L165.929 617.387L157.106 668.747L153.185 726H163.642L172.465 719.264L174.425 670.851L179 621.176L168.543 559.292L153.185 494.04L133.578 447.311L118.22 397.635Z" fill="#C1C1C1"/>
<ellipse cx="23.4681" cy="13.1482" rx="23.4681" ry="13.1482" transform="matrix(-0.69433 0.719657 0.529691 0.84819 137.622 356.552)" fill="#C1C1C1"/>
<ellipse cx="20.9457" cy="14.3001" rx="20.9457" ry="14.3001" transform="matrix(0.996133 -0.0878582 0.0530668 0.998591 92.6465 374.767)" fill="#C1C1C1"/>
<ellipse cx="19.9241" cy="11.1626" rx="19.9241" ry="11.1626" transform="matrix(0.69433 -0.719657 -0.529691 -0.84819 82.7097 318.112)" fill="#C1C1C1"/>
<ellipse cx="17.7826" cy="12.1406" rx="17.7826" ry="12.1406" transform="matrix(-0.996133 0.0878582 -0.0530668 -0.998591 112.732 298.526)" fill="#C1C1C1"/>
<ellipse cx="15.698" cy="7.86234" rx="15.698" ry="7.86234" transform="matrix(0.52041 -0.853917 -0.703058 -0.711133 85.5426 294.177)" fill="#C1C1C1"/>
<ellipse cx="18.0768" cy="10.7685" rx="18.0768" ry="10.7685" transform="matrix(-0.896843 -0.44235 0.284867 -0.958567 76.7933 310.504)" fill="#C1C1C1"/>
<ellipse cx="18.0768" cy="10.7685" rx="18.0768" ry="10.7685" transform="matrix(-0.896843 -0.44235 0.284867 -0.958567 80.7146 328.185)" fill="#C1C1C1"/>
<ellipse cx="17.4855" cy="11.0044" rx="17.4855" ry="11.0044" transform="matrix(-0.981794 -0.189951 0.115787 -0.993274 92.144 345.31)" fill="#C1C1C1"/>
<ellipse cx="17.4855" cy="11.0044" rx="17.4855" ry="11.0044" transform="matrix(-0.981794 -0.189951 0.115787 -0.993274 92.144 357.94)" fill="#C1C1C1"/>
<ellipse cx="17.4855" cy="11.0044" rx="17.4855" ry="11.0044" transform="matrix(-0.981794 -0.189951 0.115787 -0.993274 99.333 381.515)" fill="#C1C1C1"/>
<ellipse cx="17.4736" cy="11.0091" rx="17.4736" ry="11.0091" transform="matrix(-0.983514 0.180834 -0.110109 -0.99392 101.228 382.473)" fill="#C1C1C1"/>
<ellipse cx="18.3384" cy="10.66" rx="18.3384" ry="10.66" transform="matrix(-0.859428 0.511257 -0.337408 -0.941359 109.724 397.497)" fill="#C1C1C1"/>
<ellipse cx="18.6676" cy="10.5195" rx="18.6676" ry="10.5195" transform="matrix(-0.812285 0.583261 -0.39707 -0.917789 105.803 379.898)" fill="#C1C1C1"/>
<ellipse cx="16.4223" cy="7.43303" rx="16.4223" ry="7.43303" transform="matrix(0.341601 -0.939845 -0.856265 -0.516536 87.3939 280.42)" fill="#C1C1C1"/>
<ellipse cx="16.9159" cy="8.17684" rx="16.9159" ry="8.17684" transform="matrix(-0.942586 -0.333964 0.208772 -0.977964 73.6323 282.635)" fill="#C1C1C1"/>
<ellipse cx="16.9159" cy="8.17684" rx="16.9159" ry="8.17684" transform="matrix(-0.942586 -0.333964 0.208772 -0.977964 74.2859 271.69)" fill="#C1C1C1"/>
<ellipse cx="16.4223" cy="7.43303" rx="16.4223" ry="7.43303" transform="matrix(0.341601 -0.939845 -0.856265 -0.516536 79.5513 263.58)" fill="#C1C1C1"/>
<ellipse cx="13.6238" cy="8.88711" rx="13.6238" ry="8.88711" transform="matrix(-0.925342 -0.379133 0.23967 -0.970854 68.2118 261.881)" fill="#C1C1C1"/>
<ellipse cx="16.0708" cy="7.6468" rx="16.0708" ry="7.6468" transform="matrix(0.434615 -0.900617 -0.780515 -0.625138 74.8412 245.859)" fill="#C1C1C1"/>
<ellipse cx="13.5681" cy="7.52966" rx="13.5681" ry="7.52966" transform="matrix(-0.935822 -0.352473 0.221308 -0.975204 62.6035 245.074)" fill="#C1C1C1"/>
<ellipse cx="13.5681" cy="7.52966" rx="13.5681" ry="7.52966" transform="matrix(-0.935822 -0.352473 0.221308 -0.975204 63.9105 234.97)" fill="#C1C1C1"/>
<path d="M47.3103 145.888C53.7095 141.137 81.3873 252.62 87.9848 267.368C94.5822 282.117 109.261 402.566 102.862 407.317C96.4625 412.068 71.2267 293.667 64.6292 278.918C58.0317 264.17 40.9111 150.639 47.3103 145.888Z" fill="#C1C1C1"/>
<ellipse cx="16.5551" cy="7.34945" rx="16.5551" ry="7.34945" transform="matrix(0.301023 -0.953617 -0.885795 -0.464076 71.001 231.434)" fill="#C1C1C1"/>
<ellipse cx="13.8448" cy="6.67669" rx="13.8448" ry="6.67669" transform="matrix(-0.88382 -0.467827 0.303848 -0.95272 61.2253 227.134)" fill="#C1C1C1"/>
<ellipse cx="16.1344" cy="6.23785" rx="16.1344" ry="6.23785" transform="matrix(0.418888 -0.908038 -0.794 -0.607918 64.8367 213.909)" fill="#C1C1C1"/>
<ellipse cx="14.1795" cy="7.08178" rx="14.1795" ry="7.08178" transform="matrix(-0.820961 -0.570984 0.386491 -0.922293 57.8479 213.032)" fill="#C1C1C1"/>
<ellipse cx="16.9401" cy="5.8186" rx="16.9401" ry="5.8186" transform="matrix(0.135694 -0.990751 -0.975124 -0.22166 66.5673 198.032)" fill="#C1C1C1"/>
<ellipse cx="14.6719" cy="6.8889" rx="14.6719" ry="6.8889" transform="matrix(-0.727643 -0.685956 0.49389 -0.869524 54.5566 199.046)" fill="#C1C1C1"/>
<ellipse cx="16.0191" cy="6.294" rx="16.0191" ry="6.294" transform="matrix(0.447121 -0.894473 -0.769619 -0.638504 54.879 182.583)" fill="#C1C1C1"/>
<ellipse cx="15.0307" cy="6.74058" rx="15.0307" ry="6.74058" transform="matrix(-0.658012 -0.753007 0.567647 -0.823272 51.7482 181.307)" fill="#C1C1C1"/>
<ellipse cx="16.8886" cy="5.84697" rx="16.8886" ry="5.84697" transform="matrix(0.166721 -0.986004 -0.962805 -0.270197 57.6907 164.671)" fill="#C1C1C1"/>
<ellipse cx="15.3736" cy="6.59226" rx="15.3736" ry="6.59226" transform="matrix(-0.589078 -0.808076 0.637076 -0.7708 49.0405 161.532)" fill="#C1C1C1"/>
<ellipse cx="16.6828" cy="4.84371" rx="16.6828" ry="4.84371" transform="matrix(0.257119 -0.96638 -0.914779 -0.403955 52.7825 144.157)" fill="#C1C1C1"/>
<ellipse cx="12.467" cy="3.85375" rx="12.467" ry="3.85375" transform="matrix(0.0382127 -0.99927 -0.997992 -0.0633407 53.2196 135.088)" fill="#C1C1C1"/>
<ellipse cx="12.1911" cy="3.99094" rx="12.1911" ry="3.99094" transform="matrix(-0.266311 -0.963887 -0.908988 0.416823 50.2511 133.186)" fill="#C1C1C1"/>
<ellipse cx="11.3085" cy="4.38273" rx="11.3085" ry="4.38273" transform="matrix(-0.572943 -0.819595 -0.652867 0.757473 48.944 129.905)" fill="#C1C1C1"/>
<ellipse cx="24.662" cy="12.5162" rx="24.662" ry="12.5162" transform="matrix(-0.541601 0.840636 0.683041 0.73038 127.264 329.436)" fill="#C1C1C1"/>
<ellipse cx="21.033" cy="14.2639" rx="21.033" ry="14.2639" transform="matrix(0.985649 0.168806 -0.102645 0.994718 85.9716 345.794)" fill="#C1C1C1"/>
<ellipse cx="20.9377" cy="10.6261" rx="20.9377" ry="10.6261" transform="matrix(0.541601 -0.840636 -0.683041 -0.73038 95.0519 333.555)" fill="#C1C1C1"/>
<ellipse cx="17.8567" cy="12.1098" rx="17.8567" ry="12.1098" transform="matrix(-0.985649 -0.168806 0.102645 -0.994718 111.801 320.659)" fill="#C1C1C1"/>
<ellipse cx="22.5" cy="10.7878" rx="22.5" ry="10.7878" transform="matrix(-0.518882 0.854846 0.704488 0.709716 118.705 312.597)" fill="#C1C1C1"/>
<ellipse cx="19.1132" cy="12.3651" rx="19.1132" ry="12.3651" transform="matrix(0.978732 0.205144 -0.125294 0.99212 83.3877 325.944)" fill="#C1C1C1"/>
<ellipse cx="19.1022" cy="9.15869" rx="19.1022" ry="9.15869" transform="matrix(0.518882 -0.854846 -0.704488 -0.709716 102.318 347.852)" fill="#C1C1C1"/>
<ellipse cx="16.2268" cy="10.4978" rx="16.2268" ry="10.4978" transform="matrix(-0.978732 -0.205144 0.125294 -0.99212 113.995 337.512)" fill="#C1C1C1"/>
<path d="M238 344L265 345.5L232 403L200 470.5L178.5 539L165 605L178.5 666L184.5 734H168.5L155 726L152 668.5L145 609.5L161 536L184.5 458.5L214.5 403L238 344Z" fill="#E4E4E4"/>
<ellipse cx="222.589" cy="328.51" rx="32" ry="17" transform="rotate(38.8179 222.589 328.51)" fill="#E4E4E4"/>
<ellipse cx="32" cy="17" rx="32" ry="17" transform="matrix(-0.997665 -0.0683022 -0.0683022 0.997665 277.13 316.84)" fill="#E4E4E4"/>
<ellipse cx="280.215" cy="221.275" rx="27.1676" ry="14.4328" transform="rotate(-141.182 280.215 221.275)" fill="#E4E4E4"/>
<ellipse cx="27.1676" cy="14.4328" rx="27.1676" ry="14.4328" transform="matrix(0.997665 0.0683022 0.0683022 -0.997665 246.398 226.288)" fill="#E4E4E4"/>
<ellipse cx="283.958" cy="198.561" rx="20.2416" ry="10.7534" transform="rotate(-128.137 283.958 198.561)" fill="#E4E4E4"/>
<ellipse cx="26.5621" cy="13.1277" rx="26.5621" ry="13.1277" transform="matrix(0.933895 -0.357547 -0.357547 -0.933895 301.388 240.514)" fill="#E4E4E4"/>
<ellipse cx="26.5621" cy="13.1277" rx="26.5621" ry="13.1277" transform="matrix(0.933895 -0.357547 -0.357547 -0.933895 295.388 261.514)" fill="#E4E4E4"/>
<ellipse cx="26.5621" cy="13.1277" rx="26.5621" ry="13.1277" transform="matrix(0.98891 -0.148513 -0.148513 -0.98891 277.899 281.854)" fill="#E4E4E4"/>
<ellipse cx="26.5621" cy="13.1277" rx="26.5621" ry="13.1277" transform="matrix(0.98891 -0.148513 -0.148513 -0.98891 277.899 296.854)" fill="#E4E4E4"/>
<ellipse cx="26.5621" cy="13.1277" rx="26.5621" ry="13.1277" transform="matrix(0.98891 -0.148513 -0.148513 -0.98891 266.899 324.854)" fill="#E4E4E4"/>
<ellipse cx="26.5621" cy="13.1277" rx="26.5621" ry="13.1277" transform="matrix(0.989968 0.141288 0.141288 -0.989968 264 325.992)" fill="#E4E4E4"/>
<ellipse cx="26.5621" cy="13.1277" rx="26.5621" ry="13.1277" transform="matrix(0.907883 0.419223 0.419223 -0.907883 251 343.837)" fill="#E4E4E4"/>
<ellipse cx="26.5621" cy="13.1277" rx="26.5621" ry="13.1277" transform="matrix(0.873486 0.48685 0.48685 -0.873486 257 322.934)" fill="#E4E4E4"/>
<ellipse cx="286.322" cy="181.892" rx="20.2416" ry="10.7534" transform="rotate(-115.091 286.322 181.892)" fill="#E4E4E4"/>
<ellipse cx="25.3029" cy="9.85029" rx="25.3029" ry="9.85029" transform="matrix(0.9642 -0.265174 -0.265174 -0.9642 306.224 207.415)" fill="#E4E4E4"/>
<ellipse cx="25.3029" cy="9.85029" rx="25.3029" ry="9.85029" transform="matrix(0.9642 -0.265174 -0.265174 -0.9642 305.224 194.415)" fill="#E4E4E4"/>
<ellipse cx="298.322" cy="161.892" rx="20.2416" ry="10.7534" transform="rotate(-115.091 298.322 161.892)" fill="#E4E4E4"/>
<ellipse cx="20.2416" cy="10.7534" rx="20.2416" ry="10.7534" transform="matrix(0.952966 -0.303077 -0.303077 -0.952966 314.518 182.765)" fill="#E4E4E4"/>
<ellipse cx="302.82" cy="140.868" rx="20.2416" ry="10.7534" transform="rotate(-121.869 302.82 140.868)" fill="#E4E4E4"/>
<ellipse cx="20.2416" cy="9.08633" rx="20.2416" ry="9.08633" transform="matrix(0.959821 -0.280613 -0.280613 -0.959821 323.099 162.803)" fill="#E4E4E4"/>
<ellipse cx="20.2416" cy="9.08633" rx="20.2416" ry="9.08633" transform="matrix(0.959821 -0.280613 -0.280613 -0.959821 321.099 150.803)" fill="#E4E4E4"/>
<path d="M346.5 45C336.708 39.3572 294.358 171.766 284.263 189.282C274.169 206.799 251.709 349.857 261.5 355.5C271.291 361.143 309.905 220.517 320 203C330.095 185.483 356.291 50.6429 346.5 45Z" fill="#E4E4E4"/>
<ellipse cx="312.586" cy="123.801" rx="20.2416" ry="10.7534" transform="rotate(-112.13 312.586 123.801)" fill="#E4E4E4"/>
<ellipse cx="20.2416" cy="8.16784" rx="20.2416" ry="8.16784" transform="matrix(0.924969 -0.380043 -0.380043 -0.924969 325.208 141.495)" fill="#E4E4E4"/>
<ellipse cx="316.92" cy="103.884" rx="20.2416" ry="8.81574" transform="rotate(-120.723 316.92 103.884)" fill="#E4E4E4"/>
<ellipse cx="20.2416" cy="8.81574" rx="20.2416" ry="8.81574" transform="matrix(0.879955 -0.475057 -0.475057 -0.879955 330.376 124.747)" fill="#E4E4E4"/>
<ellipse cx="322.199" cy="85.4656" rx="20.2416" ry="8.81574" transform="rotate(-100.007 322.199 85.4656)" fill="#E4E4E4"/>
<ellipse cx="20.2416" cy="8.81574" rx="20.2416" ry="8.81574" transform="matrix(0.807014 -0.590533 -0.590533 -0.807014 335.412 108.136)" fill="#E4E4E4"/>
<ellipse cx="331.371" cy="66.7912" rx="20.2416" ry="8.81574" transform="rotate(-122.781 331.371 66.7912)" fill="#E4E4E4"/>
<ellipse cx="20.2416" cy="8.81574" rx="20.2416" ry="8.81574" transform="matrix(0.747635 -0.66411 -0.66411 -0.747635 339.709 87.0673)" fill="#E4E4E4"/>
<ellipse cx="334.922" cy="45.6542" rx="20.2416" ry="8.81574" transform="rotate(-102.289 334.922 45.6542)" fill="#E4E4E4"/>
<ellipse cx="20.2416" cy="8.81574" rx="20.2416" ry="8.81574" transform="matrix(0.684581 -0.728936 -0.728936 -0.684581 343.852 63.5799)" fill="#E4E4E4"/>
<ellipse cx="338.343" cy="21.4719" rx="20.2416" ry="7.16702" transform="rotate(-108.92 338.343 21.4719)" fill="#E4E4E4"/>
<ellipse cx="342.614" cy="17.0862" rx="14.8143" ry="5.89195" transform="rotate(-92.8204 342.614 17.0862)" fill="#E4E4E4"/>
<ellipse cx="352.519" cy="17.9323" rx="14.8143" ry="5.89195" transform="rotate(-70.4072 352.519 17.9323)" fill="#E4E4E4"/>
<ellipse cx="358.292" cy="18.9511" rx="14.8143" ry="5.89195" transform="rotate(-47.9941 358.292 18.9511)" fill="#E4E4E4"/>
<ellipse cx="231.519" cy="298.481" rx="32" ry="17" transform="rotate(50.3068 231.519 298.481)" fill="#E4E4E4"/>
<ellipse cx="32" cy="17" rx="32" ry="17" transform="matrix(-0.991279 0.131779 0.131779 0.991279 287.344 282.429)" fill="#E4E4E4"/>
<ellipse cx="267.204" cy="237.77" rx="27.1676" ry="14.4328" transform="rotate(-129.693 267.204 237.77)" fill="#E4E4E4"/>
<ellipse cx="27.1676" cy="14.4328" rx="27.1676" ry="14.4328" transform="matrix(0.991279 -0.131779 -0.131779 -0.991279 247.822 252.576)" fill="#E4E4E4"/>
<ellipse cx="243.492" cy="274.938" rx="28.9997" ry="14.7619" transform="rotate(51.9753 243.492 274.938)" fill="#E4E4E4"/>
<ellipse cx="28.9997" cy="14.7619" rx="28.9997" ry="14.7619" transform="matrix(-0.987022 0.160586 0.160586 0.987022 291.297 258.852)" fill="#E4E4E4"/>
<ellipse cx="257.039" cy="257.758" rx="24.6203" ry="12.5327" transform="rotate(-128.025 257.039 257.758)" fill="#E4E4E4"/>
<ellipse cx="24.6203" cy="12.5327" rx="24.6203" ry="12.5327" transform="matrix(0.987022 -0.160586 -0.160586 -0.987022 244.465 272.592)" fill="#E4E4E4"/>
</svg>
