<svg width="419" height="748" viewBox="0 0 419 748" fill="none" xmlns="http://www.w3.org/2000/svg">
<path d="M189.5 354L166 356L169.411 433.45L199.788 496.168L220.198 559.815L233.014 621.139L220.198 677.817L214.502 741H229.691L242.506 733.567L245.354 680.14L251.999 625.32L236.811 557.027L214.502 485.018L186.024 433.45L189.5 354Z" fill="#D9D9D9"/>
<g filter="url(#filter0_d_136_286)">
<ellipse cx="30.1257" cy="15.931" rx="30.1257" ry="15.931" transform="matrix(-0.880509 0.474028 0.492358 0.870393 232.26 352.637)" fill="#D9D9D9"/>
<ellipse cx="30.3742" cy="15.7973" rx="30.3742" ry="15.7973" transform="matrix(0.994357 0.106085 -0.103179 0.994663 164.446 361.179)" fill="#D9D9D9"/>
<ellipse cx="25.5763" cy="13.5252" rx="25.5763" ry="13.5252" transform="matrix(0.880509 -0.474028 -0.492358 -0.870393 161.003 297.105)" fill="#D9D9D9"/>
<ellipse cx="25.7873" cy="13.4116" rx="25.7873" ry="13.4116" transform="matrix(-0.994357 -0.106085 0.103179 -0.994663 207.683 283.329)" fill="#D9D9D9"/>
<ellipse cx="18.9641" cy="10.126" rx="18.9641" ry="10.126" transform="matrix(0.750781 -0.660551 -0.676039 -0.736865 169.608 271.796)" fill="#D9D9D9"/>
<ellipse cx="25.1474" cy="12.2318" rx="25.1474" ry="12.2318" transform="matrix(-0.861929 -0.507029 0.519315 -0.854583 153.985 287.354)" fill="#D9D9D9"/>
<ellipse cx="25.1474" cy="12.2318" rx="25.1474" ry="12.2318" transform="matrix(-0.861929 -0.507029 0.519315 -0.854583 156.233 307.556)" fill="#D9D9D9"/>
<ellipse cx="25.2034" cy="12.2035" rx="25.2034" ry="12.2035" transform="matrix(-0.949505 -0.313753 0.319725 -0.94751 169.329 329.033)" fill="#D9D9D9"/>
<ellipse cx="25.2034" cy="12.2035" rx="25.2034" ry="12.2035" transform="matrix(-0.949505 -0.313753 0.319725 -0.94751 166.927 342.762)" fill="#D9D9D9"/>
<ellipse cx="25.2034" cy="12.2035" rx="25.2034" ry="12.2035" transform="matrix(-0.949505 -0.313753 0.319725 -0.94751 172.73 370.188)" fill="#D9D9D9"/>
<ellipse cx="25.2045" cy="12.203" rx="25.2045" ry="12.203" transform="matrix(-0.999408 -0.0343931 0.0283992 -0.999597 175.258 371.704)" fill="#D9D9D9"/>
<ellipse cx="25.1219" cy="12.2445" rx="25.1219" ry="12.2445" transform="matrix(-0.968592 0.248656 -0.264427 -0.964406 184.557 390.163)" fill="#D9D9D9"/>
<ellipse cx="25.0894" cy="12.2608" rx="25.0894" ry="12.2608" transform="matrix(-0.94726 0.320465 -0.33768 -0.941261 182.294 370.05)" fill="#D9D9D9"/>
<ellipse cx="18.8816" cy="10.1694" rx="18.8816" ry="10.1694" transform="matrix(0.580555 -0.814221 -0.823669 -0.567071 174.873 257.304)" fill="#D9D9D9"/>
<ellipse cx="23.9843" cy="9.16653" rx="23.9843" ry="9.16653" transform="matrix(-0.906385 -0.422452 0.432362 -0.9017 154.762 256.268)" fill="#D9D9D9"/>
<ellipse cx="23.9843" cy="9.16653" rx="23.9843" ry="9.16653" transform="matrix(-0.906385 -0.422452 0.432362 -0.9017 157.779 244.534)" fill="#D9D9D9"/>
<ellipse cx="18.8816" cy="10.1694" rx="18.8816" ry="10.1694" transform="matrix(0.580555 -0.814221 -0.823669 -0.567071 166.855 237.036)" fill="#D9D9D9"/>
<ellipse cx="19.1781" cy="10.0116" rx="19.1781" ry="10.0116" transform="matrix(-0.889303 -0.457318 0.468295 -0.883572 150.953 232.35)" fill="#D9D9D9"/>
<ellipse cx="18.9221" cy="10.1482" rx="18.9221" ry="10.1482" transform="matrix(0.673603 -0.739093 -0.751904 -0.659272 163.486 216.594)" fill="#D9D9D9"/>
<ellipse cx="19.1834" cy="8.45716" rx="19.1834" ry="8.45716" transform="matrix(-0.899616 -0.436681 0.44704 -0.894514 146.126 212.676)" fill="#D9D9D9"/>
<ellipse cx="19.1834" cy="8.45716" rx="19.1834" ry="8.45716" transform="matrix(-0.899616 -0.436681 0.44704 -0.894514 149.917 202.02)" fill="#D9D9D9"/>
<path d="M143.107 101.029C153.166 97.466 171.566 225.581 178.201 243.265C184.835 260.949 182.931 395.558 172.871 399.12C162.812 402.683 149.222 267.658 142.587 249.974C135.953 232.291 133.048 104.592 143.107 101.029Z" fill="#D9D9D9"/>
<ellipse cx="18.866" cy="10.1776" rx="18.866" ry="10.1776" transform="matrix(0.537082 -0.84353 -0.85147 -0.524403 160.735 199.951)" fill="#D9D9D9"/>
<ellipse cx="19.1568" cy="7.61316" rx="19.1568" ry="7.61316" transform="matrix(-0.849605 -0.527419 0.540163 -0.84156 147.566 192.83)" fill="#D9D9D9"/>
<ellipse cx="18.9148" cy="8.32271" rx="18.9148" ry="8.32271" transform="matrix(0.658541 -0.752545 -0.764809 -0.644257 155.248 179.358)" fill="#D9D9D9"/>
<ellipse cx="19.1239" cy="8.23158" rx="19.1239" ry="8.23158" transform="matrix(-0.790411 -0.612577 0.626642 -0.779307 145.415 176.655)" fill="#D9D9D9"/>
<ellipse cx="18.8201" cy="8.36336" rx="18.8201" ry="8.36336" transform="matrix(0.344352 -0.93884 -0.941341 -0.337455 160.743 162.532)" fill="#D9D9D9"/>
<ellipse cx="19.074" cy="8.25352" rx="19.074" ry="8.25352" transform="matrix(-0.700476 -0.713676 0.727836 -0.68575 143.366 160.628)" fill="#D9D9D9"/>
<ellipse cx="18.928" cy="8.31703" rx="18.928" ry="8.31703" transform="matrix(0.685381 -0.728184 -0.741419 -0.671042 146.958 142.812)" fill="#D9D9D9"/>
<ellipse cx="19.0365" cy="8.26994" rx="19.0365" ry="8.26994" transform="matrix(-0.630291 -0.776359 0.789598 -0.613625 142.721 140.642)" fill="#D9D9D9"/>
<ellipse cx="18.8263" cy="8.36071" rx="18.8263" ry="8.36071" transform="matrix(0.382204 -0.924078 -0.927449 -0.37395 154.387 124.045)" fill="#D9D9D9"/>
<ellipse cx="18.9997" cy="8.28597" rx="18.9997" ry="8.28597" transform="matrix(-0.557638 -0.830084 0.841822 -0.539754 142.608 118.467)" fill="#D9D9D9"/>
<ellipse cx="18.8509" cy="6.78854" rx="18.8509" ry="6.78854" transform="matrix(0.488216 -0.872723 -0.879067 -0.476698 151.266 100.517)" fill="#D9D9D9"/>
<ellipse cx="13.7655" cy="5.59287" rx="13.7655" ry="5.59287" transform="matrix(0.22163 -0.975131 -0.975596 -0.219574 153.616 90.7675)" fill="#D9D9D9"/>
<ellipse cx="13.7986" cy="5.57994" rx="13.7986" ry="5.57994" transform="matrix(-0.17469 -0.984623 -0.986899 0.161339 149.73 87.9565)" fill="#D9D9D9"/>
<ellipse cx="13.8991" cy="5.54035" rx="13.8991" ry="5.54035" transform="matrix(-0.540151 -0.841568 -0.85289 0.52209 148.484 84.0628)" fill="#D9D9D9"/>
<ellipse cx="29.9974" cy="15.9992" rx="29.9974" ry="15.9992" transform="matrix(-0.768521 0.639824 0.655872 0.754873 222.597 320.568)" fill="#D9D9D9"/>
<ellipse cx="30.3661" cy="15.8016" rx="30.3661" ry="15.8016" transform="matrix(0.954569 0.297991 -0.303332 0.952885 160.405 328.014)" fill="#D9D9D9"/>
<ellipse cx="25.4674" cy="13.5831" rx="25.4674" ry="13.5831" transform="matrix(0.768521 -0.639824 -0.655872 -0.754873 175.725 316.982)" fill="#D9D9D9"/>
<ellipse cx="25.7804" cy="13.4154" rx="25.7804" ry="13.4154" transform="matrix(-0.954569 -0.297991 0.303332 -0.952885 202.142 307.156)" fill="#D9D9D9"/>
<ellipse cx="27.1682" cy="13.9013" rx="27.1682" ry="13.9013" transform="matrix(-0.749482 0.662024 0.677471 0.73555 213.554 300.12)" fill="#D9D9D9"/>
<ellipse cx="27.5141" cy="13.7239" rx="27.5141" ry="13.7239" transform="matrix(0.94568 0.325099 -0.331517 0.943449 160.484 305.789)" fill="#D9D9D9"/>
<ellipse cx="23.0654" cy="11.802" rx="23.0654" ry="11.802" transform="matrix(0.749482 -0.662024 -0.677471 -0.73555 183.402 334.342)" fill="#D9D9D9"/>
<ellipse cx="23.3591" cy="11.6514" rx="23.3591" ry="11.6514" transform="matrix(-0.94568 -0.325099 0.331517 -0.943449 202.076 326.025)" fill="#D9D9D9"/>
</g>
<path d="M238 358L265 359.5L232 417L200 484.5L178.5 553L165 619L178.5 680L184.5 748H168.5L155 740L152 682.5L145 623.5L161 550L184.5 472.5L214.5 417L238 358Z" fill="#D9D9D9"/>
<g filter="url(#filter1_d_136_286)">
<ellipse cx="222.589" cy="342.51" rx="32" ry="17" transform="rotate(38.8179 222.589 342.51)" fill="#D9D9D9"/>
<ellipse cx="32" cy="17" rx="32" ry="17" transform="matrix(-0.997665 -0.0683022 -0.0683022 0.997665 277.13 330.84)" fill="#D9D9D9"/>
<ellipse cx="280.215" cy="235.275" rx="27.1676" ry="14.4328" transform="rotate(-141.182 280.215 235.275)" fill="#D9D9D9"/>
<ellipse cx="27.1676" cy="14.4328" rx="27.1676" ry="14.4328" transform="matrix(0.997665 0.0683022 0.0683022 -0.997665 246.398 240.288)" fill="#D9D9D9"/>
<ellipse cx="283.958" cy="212.561" rx="20.2416" ry="10.7534" transform="rotate(-128.137 283.958 212.561)" fill="#D9D9D9"/>
<ellipse cx="26.5621" cy="13.1277" rx="26.5621" ry="13.1277" transform="matrix(0.933895 -0.357547 -0.357547 -0.933895 301.388 254.514)" fill="#D9D9D9"/>
<ellipse cx="26.5621" cy="13.1277" rx="26.5621" ry="13.1277" transform="matrix(0.933895 -0.357547 -0.357547 -0.933895 295.388 275.514)" fill="#D9D9D9"/>
<ellipse cx="26.5621" cy="13.1277" rx="26.5621" ry="13.1277" transform="matrix(0.98891 -0.148513 -0.148513 -0.98891 277.899 295.854)" fill="#D9D9D9"/>
<ellipse cx="26.5621" cy="13.1277" rx="26.5621" ry="13.1277" transform="matrix(0.98891 -0.148513 -0.148513 -0.98891 277.899 310.854)" fill="#D9D9D9"/>
<ellipse cx="26.5621" cy="13.1277" rx="26.5621" ry="13.1277" transform="matrix(0.98891 -0.148513 -0.148513 -0.98891 266.899 338.854)" fill="#D9D9D9"/>
<ellipse cx="26.5621" cy="13.1277" rx="26.5621" ry="13.1277" transform="matrix(0.989968 0.141288 0.141288 -0.989968 264 339.992)" fill="#D9D9D9"/>
<ellipse cx="26.5621" cy="13.1277" rx="26.5621" ry="13.1277" transform="matrix(0.907883 0.419223 0.419223 -0.907883 251 357.837)" fill="#D9D9D9"/>
<ellipse cx="26.5621" cy="13.1277" rx="26.5621" ry="13.1277" transform="matrix(0.873486 0.48685 0.48685 -0.873486 257 336.934)" fill="#D9D9D9"/>
<ellipse cx="286.322" cy="195.892" rx="20.2416" ry="10.7534" transform="rotate(-115.091 286.322 195.892)" fill="#D9D9D9"/>
<ellipse cx="25.3029" cy="9.85029" rx="25.3029" ry="9.85029" transform="matrix(0.9642 -0.265174 -0.265174 -0.9642 306.224 221.415)" fill="#D9D9D9"/>
<ellipse cx="25.3029" cy="9.85029" rx="25.3029" ry="9.85029" transform="matrix(0.9642 -0.265174 -0.265174 -0.9642 305.224 208.415)" fill="#D9D9D9"/>
<ellipse cx="298.322" cy="175.892" rx="20.2416" ry="10.7534" transform="rotate(-115.091 298.322 175.892)" fill="#D9D9D9"/>
<ellipse cx="20.2416" cy="10.7534" rx="20.2416" ry="10.7534" transform="matrix(0.952966 -0.303077 -0.303077 -0.952966 314.518 196.765)" fill="#D9D9D9"/>
<ellipse cx="302.82" cy="154.868" rx="20.2416" ry="10.7534" transform="rotate(-121.869 302.82 154.868)" fill="#D9D9D9"/>
<ellipse cx="20.2416" cy="9.08633" rx="20.2416" ry="9.08633" transform="matrix(0.959821 -0.280613 -0.280613 -0.959821 323.099 176.803)" fill="#D9D9D9"/>
<ellipse cx="20.2416" cy="9.08633" rx="20.2416" ry="9.08633" transform="matrix(0.959821 -0.280613 -0.280613 -0.959821 321.099 164.803)" fill="#D9D9D9"/>
<path d="M346.5 59C336.708 53.3572 294.358 185.766 284.263 203.282C274.169 220.799 251.709 363.857 261.5 369.5C271.291 375.143 309.905 234.517 320 217C330.095 199.483 356.291 64.6429 346.5 59Z" fill="#D9D9D9"/>
<ellipse cx="312.586" cy="137.801" rx="20.2416" ry="10.7534" transform="rotate(-112.13 312.586 137.801)" fill="#D9D9D9"/>
<ellipse cx="20.2416" cy="8.16784" rx="20.2416" ry="8.16784" transform="matrix(0.924969 -0.380043 -0.380043 -0.924969 325.208 155.495)" fill="#D9D9D9"/>
<ellipse cx="316.92" cy="117.884" rx="20.2416" ry="8.81574" transform="rotate(-120.723 316.92 117.884)" fill="#D9D9D9"/>
<ellipse cx="20.2416" cy="8.81574" rx="20.2416" ry="8.81574" transform="matrix(0.879955 -0.475057 -0.475057 -0.879955 330.376 138.747)" fill="#D9D9D9"/>
<ellipse cx="322.199" cy="99.4656" rx="20.2416" ry="8.81574" transform="rotate(-100.007 322.199 99.4656)" fill="#D9D9D9"/>
<ellipse cx="20.2416" cy="8.81574" rx="20.2416" ry="8.81574" transform="matrix(0.807014 -0.590533 -0.590533 -0.807014 335.412 122.136)" fill="#D9D9D9"/>
<ellipse cx="331.371" cy="80.7912" rx="20.2416" ry="8.81574" transform="rotate(-122.781 331.371 80.7912)" fill="#D9D9D9"/>
<ellipse cx="20.2416" cy="8.81574" rx="20.2416" ry="8.81574" transform="matrix(0.747635 -0.66411 -0.66411 -0.747635 339.709 101.067)" fill="#D9D9D9"/>
<ellipse cx="334.922" cy="59.6542" rx="20.2416" ry="8.81574" transform="rotate(-102.289 334.922 59.6542)" fill="#D9D9D9"/>
<ellipse cx="20.2416" cy="8.81574" rx="20.2416" ry="8.81574" transform="matrix(0.684581 -0.728936 -0.728936 -0.684581 343.852 77.5799)" fill="#D9D9D9"/>
<ellipse cx="338.343" cy="35.4719" rx="20.2416" ry="7.16702" transform="rotate(-108.92 338.343 35.4719)" fill="#D9D9D9"/>
<ellipse cx="342.614" cy="31.0862" rx="14.8143" ry="5.89195" transform="rotate(-92.8204 342.614 31.0862)" fill="#D9D9D9"/>
<ellipse cx="352.519" cy="31.9323" rx="14.8143" ry="5.89195" transform="rotate(-70.4072 352.519 31.9323)" fill="#D9D9D9"/>
<ellipse cx="358.292" cy="32.9511" rx="14.8143" ry="5.89195" transform="rotate(-47.9941 358.292 32.9511)" fill="#D9D9D9"/>
<ellipse cx="231.519" cy="312.481" rx="32" ry="17" transform="rotate(50.3068 231.519 312.481)" fill="#D9D9D9"/>
<ellipse cx="32" cy="17" rx="32" ry="17" transform="matrix(-0.991279 0.131779 0.131779 0.991279 287.344 296.429)" fill="#D9D9D9"/>
<ellipse cx="267.204" cy="251.77" rx="27.1676" ry="14.4328" transform="rotate(-129.693 267.204 251.77)" fill="#D9D9D9"/>
<ellipse cx="27.1676" cy="14.4328" rx="27.1676" ry="14.4328" transform="matrix(0.991279 -0.131779 -0.131779 -0.991279 247.822 266.576)" fill="#D9D9D9"/>
<ellipse cx="243.492" cy="288.938" rx="28.9997" ry="14.7619" transform="rotate(51.9753 243.492 288.938)" fill="#D9D9D9"/>
<ellipse cx="28.9997" cy="14.7619" rx="28.9997" ry="14.7619" transform="matrix(-0.987022 0.160586 0.160586 0.987022 291.297 272.852)" fill="#D9D9D9"/>
<ellipse cx="257.039" cy="271.758" rx="24.6203" ry="12.5327" transform="rotate(-128.025 257.039 271.758)" fill="#D9D9D9"/>
<ellipse cx="24.6203" cy="12.5327" rx="24.6203" ry="12.5327" transform="matrix(0.987022 -0.160586 -0.160586 -0.987022 244.465 286.592)" fill="#D9D9D9"/>
</g>
<path d="M118.22 411.635L100.574 412.898L122.141 461.311L143.055 518.143L157.106 575.817L165.929 631.387L157.106 682.747L153.185 740H163.642L172.465 733.264L174.425 684.851L179 635.176L168.543 573.292L153.185 508.04L133.578 461.311L118.22 411.635Z" fill="#D9D9D9"/>
<g filter="url(#filter2_d_136_286)">
<ellipse cx="23.4681" cy="13.1482" rx="23.4681" ry="13.1482" transform="matrix(-0.69433 0.719657 0.529691 0.84819 137.622 370.552)" fill="#D9D9D9"/>
<ellipse cx="20.9457" cy="14.3001" rx="20.9457" ry="14.3001" transform="matrix(0.996133 -0.0878582 0.0530668 0.998591 92.6465 388.767)" fill="#D9D9D9"/>
<ellipse cx="19.9241" cy="11.1626" rx="19.9241" ry="11.1626" transform="matrix(0.69433 -0.719657 -0.529691 -0.84819 82.7097 332.112)" fill="#D9D9D9"/>
<ellipse cx="17.7826" cy="12.1406" rx="17.7826" ry="12.1406" transform="matrix(-0.996133 0.0878582 -0.0530668 -0.998591 112.732 312.526)" fill="#D9D9D9"/>
<ellipse cx="15.698" cy="7.86234" rx="15.698" ry="7.86234" transform="matrix(0.52041 -0.853917 -0.703058 -0.711133 85.5426 308.177)" fill="#D9D9D9"/>
<ellipse cx="18.0768" cy="10.7685" rx="18.0768" ry="10.7685" transform="matrix(-0.896843 -0.44235 0.284867 -0.958567 76.7933 324.504)" fill="#D9D9D9"/>
<ellipse cx="18.0768" cy="10.7685" rx="18.0768" ry="10.7685" transform="matrix(-0.896843 -0.44235 0.284867 -0.958567 80.7146 342.185)" fill="#D9D9D9"/>
<ellipse cx="17.4855" cy="11.0044" rx="17.4855" ry="11.0044" transform="matrix(-0.981794 -0.189951 0.115787 -0.993274 92.144 359.31)" fill="#D9D9D9"/>
<ellipse cx="17.4855" cy="11.0044" rx="17.4855" ry="11.0044" transform="matrix(-0.981794 -0.189951 0.115787 -0.993274 92.144 371.94)" fill="#D9D9D9"/>
<ellipse cx="17.4855" cy="11.0044" rx="17.4855" ry="11.0044" transform="matrix(-0.981794 -0.189951 0.115787 -0.993274 99.333 395.515)" fill="#D9D9D9"/>
<ellipse cx="17.4736" cy="11.0091" rx="17.4736" ry="11.0091" transform="matrix(-0.983514 0.180834 -0.110109 -0.99392 101.228 396.473)" fill="#D9D9D9"/>
<ellipse cx="18.3384" cy="10.66" rx="18.3384" ry="10.66" transform="matrix(-0.859428 0.511257 -0.337408 -0.941359 109.724 411.497)" fill="#D9D9D9"/>
<ellipse cx="18.6676" cy="10.5195" rx="18.6676" ry="10.5195" transform="matrix(-0.812285 0.583261 -0.39707 -0.917789 105.803 393.898)" fill="#D9D9D9"/>
<ellipse cx="16.4223" cy="7.43303" rx="16.4223" ry="7.43303" transform="matrix(0.341601 -0.939845 -0.856265 -0.516536 87.3939 294.42)" fill="#D9D9D9"/>
<ellipse cx="16.9159" cy="8.17684" rx="16.9159" ry="8.17684" transform="matrix(-0.942586 -0.333964 0.208772 -0.977964 73.6323 296.635)" fill="#D9D9D9"/>
<ellipse cx="16.9159" cy="8.17684" rx="16.9159" ry="8.17684" transform="matrix(-0.942586 -0.333964 0.208772 -0.977964 74.2859 285.69)" fill="#D9D9D9"/>
<ellipse cx="16.4223" cy="7.43303" rx="16.4223" ry="7.43303" transform="matrix(0.341601 -0.939845 -0.856265 -0.516536 79.5513 277.58)" fill="#D9D9D9"/>
<ellipse cx="13.6238" cy="8.88711" rx="13.6238" ry="8.88711" transform="matrix(-0.925342 -0.379133 0.23967 -0.970854 68.2118 275.881)" fill="#D9D9D9"/>
<ellipse cx="16.0708" cy="7.6468" rx="16.0708" ry="7.6468" transform="matrix(0.434615 -0.900617 -0.780515 -0.625138 74.8412 259.859)" fill="#D9D9D9"/>
<ellipse cx="13.5681" cy="7.52966" rx="13.5681" ry="7.52966" transform="matrix(-0.935822 -0.352473 0.221308 -0.975204 62.6035 259.074)" fill="#D9D9D9"/>
<ellipse cx="13.5681" cy="7.52966" rx="13.5681" ry="7.52966" transform="matrix(-0.935822 -0.352473 0.221308 -0.975204 63.9105 248.97)" fill="#D9D9D9"/>
<path d="M47.3103 159.888C53.7095 155.137 81.3873 266.62 87.9848 281.368C94.5822 296.117 109.261 416.566 102.862 421.317C96.4625 426.068 71.2267 307.667 64.6292 292.918C58.0317 278.17 40.9111 164.639 47.3103 159.888Z" fill="#D9D9D9"/>
<ellipse cx="16.5551" cy="7.34945" rx="16.5551" ry="7.34945" transform="matrix(0.301023 -0.953617 -0.885795 -0.464076 71.001 245.434)" fill="#D9D9D9"/>
<ellipse cx="13.8448" cy="6.67669" rx="13.8448" ry="6.67669" transform="matrix(-0.88382 -0.467827 0.303848 -0.95272 61.2253 241.134)" fill="#D9D9D9"/>
<ellipse cx="16.1344" cy="6.23785" rx="16.1344" ry="6.23785" transform="matrix(0.418888 -0.908038 -0.794 -0.607918 64.8367 227.909)" fill="#D9D9D9"/>
<ellipse cx="14.1795" cy="7.08178" rx="14.1795" ry="7.08178" transform="matrix(-0.820961 -0.570984 0.386491 -0.922293 57.8479 227.032)" fill="#D9D9D9"/>
<ellipse cx="16.9401" cy="5.8186" rx="16.9401" ry="5.8186" transform="matrix(0.135694 -0.990751 -0.975124 -0.22166 66.5673 212.032)" fill="#D9D9D9"/>
<ellipse cx="14.6719" cy="6.8889" rx="14.6719" ry="6.8889" transform="matrix(-0.727643 -0.685956 0.49389 -0.869524 54.5566 213.046)" fill="#D9D9D9"/>
<ellipse cx="16.0191" cy="6.294" rx="16.0191" ry="6.294" transform="matrix(0.447121 -0.894473 -0.769619 -0.638504 54.879 196.583)" fill="#D9D9D9"/>
<ellipse cx="15.0307" cy="6.74058" rx="15.0307" ry="6.74058" transform="matrix(-0.658012 -0.753007 0.567647 -0.823272 51.7482 195.307)" fill="#D9D9D9"/>
<ellipse cx="16.8886" cy="5.84697" rx="16.8886" ry="5.84697" transform="matrix(0.166721 -0.986004 -0.962805 -0.270197 57.6907 178.671)" fill="#D9D9D9"/>
<ellipse cx="15.3736" cy="6.59226" rx="15.3736" ry="6.59226" transform="matrix(-0.589078 -0.808076 0.637076 -0.7708 49.0405 175.532)" fill="#D9D9D9"/>
<ellipse cx="16.6828" cy="4.84371" rx="16.6828" ry="4.84371" transform="matrix(0.257119 -0.96638 -0.914779 -0.403955 52.7825 158.157)" fill="#D9D9D9"/>
<ellipse cx="12.467" cy="3.85375" rx="12.467" ry="3.85375" transform="matrix(0.0382127 -0.99927 -0.997992 -0.0633407 53.2196 149.088)" fill="#D9D9D9"/>
<ellipse cx="12.1911" cy="3.99094" rx="12.1911" ry="3.99094" transform="matrix(-0.266311 -0.963887 -0.908988 0.416823 50.2511 147.186)" fill="#D9D9D9"/>
<ellipse cx="11.3085" cy="4.38273" rx="11.3085" ry="4.38273" transform="matrix(-0.572943 -0.819595 -0.652867 0.757473 48.944 143.905)" fill="#D9D9D9"/>
<ellipse cx="24.662" cy="12.5162" rx="24.662" ry="12.5162" transform="matrix(-0.541601 0.840636 0.683041 0.73038 127.264 343.436)" fill="#D9D9D9"/>
<ellipse cx="21.033" cy="14.2639" rx="21.033" ry="14.2639" transform="matrix(0.985649 0.168806 -0.102645 0.994718 85.9716 359.794)" fill="#D9D9D9"/>
<ellipse cx="20.9377" cy="10.6261" rx="20.9377" ry="10.6261" transform="matrix(0.541601 -0.840636 -0.683041 -0.73038 95.0519 347.555)" fill="#D9D9D9"/>
<ellipse cx="17.8567" cy="12.1098" rx="17.8567" ry="12.1098" transform="matrix(-0.985649 -0.168806 0.102645 -0.994718 111.801 334.659)" fill="#D9D9D9"/>
<ellipse cx="22.5" cy="10.7878" rx="22.5" ry="10.7878" transform="matrix(-0.518882 0.854846 0.704488 0.709716 118.705 326.597)" fill="#D9D9D9"/>
<ellipse cx="19.1132" cy="12.3651" rx="19.1132" ry="12.3651" transform="matrix(0.978732 0.205144 -0.125294 0.99212 83.3877 339.944)" fill="#D9D9D9"/>
<ellipse cx="19.1022" cy="9.15869" rx="19.1022" ry="9.15869" transform="matrix(0.518882 -0.854846 -0.704488 -0.709716 102.318 361.852)" fill="#D9D9D9"/>
<ellipse cx="16.2268" cy="10.4978" rx="16.2268" ry="10.4978" transform="matrix(-0.978732 -0.205144 0.125294 -0.99212 113.995 351.512)" fill="#D9D9D9"/>
</g>
<path d="M177.78 411.635L195.426 412.898L173.859 461.311L152.945 518.143L138.894 575.817L130.071 631.387L138.894 682.747L142.815 740H132.358L123.535 733.264L121.575 684.851L117 635.176L127.457 573.292L142.815 508.04L162.422 461.311L177.78 411.635Z" fill="#D9D9D9"/>
<g filter="url(#filter3_d_136_286)">
<ellipse cx="23.4681" cy="13.1482" rx="23.4681" ry="13.1482" transform="matrix(0.69433 0.719657 -0.529691 0.84819 158.378 370.552)" fill="#D9D9D9"/>
<ellipse cx="20.9457" cy="14.3001" rx="20.9457" ry="14.3001" transform="matrix(-0.996133 -0.0878582 -0.0530668 0.998591 203.354 388.767)" fill="#D9D9D9"/>
<ellipse cx="19.9241" cy="11.1626" rx="19.9241" ry="11.1626" transform="matrix(-0.69433 -0.719657 0.529691 -0.84819 213.29 332.112)" fill="#D9D9D9"/>
<ellipse cx="17.7826" cy="12.1406" rx="17.7826" ry="12.1406" transform="matrix(0.996133 0.0878582 0.0530668 -0.998591 183.268 312.526)" fill="#D9D9D9"/>
<ellipse cx="15.698" cy="7.86234" rx="15.698" ry="7.86234" transform="matrix(-0.52041 -0.853917 0.703058 -0.711133 210.457 308.177)" fill="#D9D9D9"/>
<ellipse cx="18.0768" cy="10.7685" rx="18.0768" ry="10.7685" transform="matrix(0.896843 -0.44235 -0.284867 -0.958567 219.207 324.504)" fill="#D9D9D9"/>
<ellipse cx="18.0768" cy="10.7685" rx="18.0768" ry="10.7685" transform="matrix(0.896843 -0.44235 -0.284867 -0.958567 215.285 342.185)" fill="#D9D9D9"/>
<ellipse cx="17.4855" cy="11.0044" rx="17.4855" ry="11.0044" transform="matrix(0.981794 -0.189951 -0.115787 -0.993274 203.856 359.31)" fill="#D9D9D9"/>
<ellipse cx="17.4855" cy="11.0044" rx="17.4855" ry="11.0044" transform="matrix(0.981794 -0.189951 -0.115787 -0.993274 203.856 371.94)" fill="#D9D9D9"/>
<ellipse cx="17.4855" cy="11.0044" rx="17.4855" ry="11.0044" transform="matrix(0.981794 -0.189951 -0.115787 -0.993274 196.667 395.515)" fill="#D9D9D9"/>
<ellipse cx="17.4736" cy="11.0091" rx="17.4736" ry="11.0091" transform="matrix(0.983514 0.180834 0.110109 -0.99392 194.772 396.473)" fill="#D9D9D9"/>
<ellipse cx="18.3384" cy="10.66" rx="18.3384" ry="10.66" transform="matrix(0.859428 0.511257 0.337408 -0.941359 186.276 411.497)" fill="#D9D9D9"/>
<ellipse cx="18.6676" cy="10.5195" rx="18.6676" ry="10.5195" transform="matrix(0.812285 0.583261 0.39707 -0.917789 190.197 393.898)" fill="#D9D9D9"/>
<ellipse cx="16.4223" cy="7.43303" rx="16.4223" ry="7.43303" transform="matrix(-0.341601 -0.939845 0.856265 -0.516536 208.606 294.42)" fill="#D9D9D9"/>
<ellipse cx="16.9159" cy="8.17684" rx="16.9159" ry="8.17684" transform="matrix(0.942586 -0.333964 -0.208772 -0.977964 222.368 296.635)" fill="#D9D9D9"/>
<ellipse cx="16.9159" cy="8.17684" rx="16.9159" ry="8.17684" transform="matrix(0.942586 -0.333964 -0.208772 -0.977964 221.714 285.69)" fill="#D9D9D9"/>
<ellipse cx="16.4223" cy="7.43303" rx="16.4223" ry="7.43303" transform="matrix(-0.341601 -0.939845 0.856265 -0.516536 216.449 277.58)" fill="#D9D9D9"/>
<ellipse cx="13.6238" cy="8.88711" rx="13.6238" ry="8.88711" transform="matrix(0.925342 -0.379133 -0.23967 -0.970854 227.788 275.881)" fill="#D9D9D9"/>
<ellipse cx="16.0708" cy="7.6468" rx="16.0708" ry="7.6468" transform="matrix(-0.434615 -0.900617 0.780515 -0.625138 221.159 259.859)" fill="#D9D9D9"/>
<ellipse cx="13.5681" cy="7.52966" rx="13.5681" ry="7.52966" transform="matrix(0.935822 -0.352473 -0.221308 -0.975204 233.396 259.074)" fill="#D9D9D9"/>
<ellipse cx="13.5681" cy="7.52966" rx="13.5681" ry="7.52966" transform="matrix(0.935822 -0.352473 -0.221308 -0.975204 232.089 248.97)" fill="#D9D9D9"/>
<path d="M248.69 159.888C242.29 155.137 214.613 266.62 208.015 281.368C201.418 296.117 186.739 416.566 193.138 421.317C199.537 426.068 224.773 307.667 231.371 292.918C237.968 278.17 255.089 164.639 248.69 159.888Z" fill="#D9D9D9"/>
<ellipse cx="16.5551" cy="7.34945" rx="16.5551" ry="7.34945" transform="matrix(-0.301023 -0.953617 0.885795 -0.464076 224.999 245.434)" fill="#D9D9D9"/>
<ellipse cx="13.8448" cy="6.67669" rx="13.8448" ry="6.67669" transform="matrix(0.88382 -0.467827 -0.303848 -0.95272 234.775 241.134)" fill="#D9D9D9"/>
<ellipse cx="16.1344" cy="6.23785" rx="16.1344" ry="6.23785" transform="matrix(-0.418888 -0.908038 0.794 -0.607918 231.163 227.909)" fill="#D9D9D9"/>
<ellipse cx="14.1795" cy="7.08178" rx="14.1795" ry="7.08178" transform="matrix(0.820961 -0.570984 -0.386491 -0.922293 238.152 227.032)" fill="#D9D9D9"/>
<ellipse cx="16.9401" cy="5.8186" rx="16.9401" ry="5.8186" transform="matrix(-0.135694 -0.990751 0.975124 -0.22166 229.433 212.032)" fill="#D9D9D9"/>
<ellipse cx="14.6719" cy="6.8889" rx="14.6719" ry="6.8889" transform="matrix(0.727643 -0.685956 -0.49389 -0.869524 241.443 213.046)" fill="#D9D9D9"/>
<ellipse cx="16.0191" cy="6.294" rx="16.0191" ry="6.294" transform="matrix(-0.447121 -0.894473 0.769619 -0.638504 241.121 196.583)" fill="#D9D9D9"/>
<ellipse cx="15.0307" cy="6.74058" rx="15.0307" ry="6.74058" transform="matrix(0.658012 -0.753007 -0.567647 -0.823272 244.252 195.307)" fill="#D9D9D9"/>
<ellipse cx="16.8886" cy="5.84697" rx="16.8886" ry="5.84697" transform="matrix(-0.166721 -0.986004 0.962805 -0.270197 238.309 178.671)" fill="#D9D9D9"/>
<ellipse cx="15.3736" cy="6.59226" rx="15.3736" ry="6.59226" transform="matrix(0.589078 -0.808076 -0.637076 -0.7708 246.959 175.532)" fill="#D9D9D9"/>
<ellipse cx="16.6828" cy="4.84371" rx="16.6828" ry="4.84371" transform="matrix(-0.257119 -0.96638 0.914779 -0.403955 243.218 158.157)" fill="#D9D9D9"/>
<ellipse cx="12.467" cy="3.85375" rx="12.467" ry="3.85375" transform="matrix(-0.0382127 -0.99927 0.997992 -0.0633407 242.78 149.088)" fill="#D9D9D9"/>
<ellipse cx="12.1911" cy="3.99094" rx="12.1911" ry="3.99094" transform="matrix(0.266311 -0.963887 0.908988 0.416823 245.749 147.186)" fill="#D9D9D9"/>
<ellipse cx="11.3085" cy="4.38273" rx="11.3085" ry="4.38273" transform="matrix(0.572943 -0.819595 0.652867 0.757473 247.056 143.905)" fill="#D9D9D9"/>
<ellipse cx="24.662" cy="12.5162" rx="24.662" ry="12.5162" transform="matrix(0.541601 0.840636 -0.683041 0.73038 168.736 343.436)" fill="#D9D9D9"/>
<ellipse cx="21.033" cy="14.2639" rx="21.033" ry="14.2639" transform="matrix(-0.985649 0.168806 0.102645 0.994718 210.028 359.794)" fill="#D9D9D9"/>
<ellipse cx="20.9377" cy="10.6261" rx="20.9377" ry="10.6261" transform="matrix(-0.541601 -0.840636 0.683041 -0.73038 200.948 347.555)" fill="#D9D9D9"/>
<ellipse cx="17.8567" cy="12.1098" rx="17.8567" ry="12.1098" transform="matrix(0.985649 -0.168806 -0.102645 -0.994718 184.199 334.659)" fill="#D9D9D9"/>
<ellipse cx="22.5" cy="10.7878" rx="22.5" ry="10.7878" transform="matrix(0.518882 0.854846 -0.704488 0.709716 177.295 326.597)" fill="#D9D9D9"/>
<ellipse cx="19.1132" cy="12.3651" rx="19.1132" ry="12.3651" transform="matrix(-0.978732 0.205144 0.125294 0.99212 212.612 339.944)" fill="#D9D9D9"/>
<ellipse cx="19.1022" cy="9.15869" rx="19.1022" ry="9.15869" transform="matrix(-0.518882 -0.854846 0.704488 -0.709716 193.682 361.852)" fill="#D9D9D9"/>
<ellipse cx="16.2268" cy="10.4978" rx="16.2268" ry="10.4978" transform="matrix(0.978732 -0.205144 -0.125294 -0.99212 182.005 351.512)" fill="#D9D9D9"/>
</g>
<defs>
<filter id="filter0_d_136_286" x="94.8854" y="45.6536" width="166.361" height="379.035" filterUnits="userSpaceOnUse" color-interpolation-filters="sRGB">
<feFlood flood-opacity="0" result="BackgroundImageFix"/>
<feColorMatrix in="SourceAlpha" type="matrix" values="0 0 0 0 0 0 0 0 0 0 0 0 0 0 0 0 0 0 127 0" result="hardAlpha"/>
<feOffset dy="4"/>
<feGaussianBlur stdDeviation="10"/>
<feComposite in2="hardAlpha" operator="out"/>
<feColorMatrix type="matrix" values="0 0 0 0 0.308333 0 0 0 0 0 0 0 0 0 0.2775 0 0 0 1 0"/>
<feBlend mode="normal" in2="BackgroundImageFix" result="effect1_dropShadow_136_286"/>
<feBlend mode="normal" in="SourceGraphic" in2="effect1_dropShadow_136_286" result="shape"/>
</filter>
<filter id="filter1_d_136_286" x="175.468" y="0.181458" width="213.665" height="397.183" filterUnits="userSpaceOnUse" color-interpolation-filters="sRGB">
<feFlood flood-opacity="0" result="BackgroundImageFix"/>
<feColorMatrix in="SourceAlpha" type="matrix" values="0 0 0 0 0 0 0 0 0 0 0 0 0 0 0 0 0 0 127 0" result="hardAlpha"/>
<feOffset dy="4"/>
<feGaussianBlur stdDeviation="10"/>
<feComposite in2="hardAlpha" operator="out"/>
<feColorMatrix type="matrix" values="0 0 0 0 0.308333 0 0 0 0 0 0 0 0 0 0.2775 0 0 0 1 0"/>
<feBlend mode="normal" in2="BackgroundImageFix" result="effect1_dropShadow_136_286"/>
<feBlend mode="normal" in="SourceGraphic" in2="effect1_dropShadow_136_286" result="shape"/>
</filter>
<filter id="filter2_d_136_286" x="12.5188" y="107.837" width="153.498" height="340.735" filterUnits="userSpaceOnUse" color-interpolation-filters="sRGB">
<feFlood flood-opacity="0" result="BackgroundImageFix"/>
<feColorMatrix in="SourceAlpha" type="matrix" values="0 0 0 0 0 0 0 0 0 0 0 0 0 0 0 0 0 0 127 0" result="hardAlpha"/>
<feOffset dy="4"/>
<feGaussianBlur stdDeviation="10"/>
<feComposite in2="hardAlpha" operator="out"/>
<feColorMatrix type="matrix" values="0 0 0 0 0.308333 0 0 0 0 0 0 0 0 0 0.2775 0 0 0 1 0"/>
<feBlend mode="normal" in2="BackgroundImageFix" result="effect1_dropShadow_136_286"/>
<feBlend mode="normal" in="SourceGraphic" in2="effect1_dropShadow_136_286" result="shape"/>
</filter>
<filter id="filter3_d_136_286" x="129.983" y="107.837" width="153.498" height="340.735" filterUnits="userSpaceOnUse" color-interpolation-filters="sRGB">
<feFlood flood-opacity="0" result="BackgroundImageFix"/>
<feColorMatrix in="SourceAlpha" type="matrix" values="0 0 0 0 0 0 0 0 0 0 0 0 0 0 0 0 0 0 127 0" result="hardAlpha"/>
<feOffset dy="4"/>
<feGaussianBlur stdDeviation="10"/>
<feComposite in2="hardAlpha" operator="out"/>
<feColorMatrix type="matrix" values="0 0 0 0 0.308333 0 0 0 0 0 0 0 0 0 0.2775 0 0 0 1 0"/>
<feBlend mode="normal" in2="BackgroundImageFix" result="effect1_dropShadow_136_286"/>
<feBlend mode="normal" in="SourceGraphic" in2="effect1_dropShadow_136_286" result="shape"/>
</filter>
</defs>
</svg>
