<svg width="509" height="207" viewBox="0 0 509 207" fill="none" xmlns="http://www.w3.org/2000/svg">
<path d="M506 103.5C506 116.718 499.425 129.601 486.921 141.624C474.408 153.655 456.144 164.628 433.329 173.907C387.713 192.457 324.489 204 254.5 204C184.511 204 121.287 192.457 75.6715 173.907C52.8561 164.628 34.5918 153.655 22.0792 141.624C9.57471 129.601 3 116.718 3 103.5C3 90.2816 9.57471 77.3987 22.0792 65.3757C34.5918 53.3448 52.8561 42.372 75.6715 33.0934C121.287 14.5425 184.511 3 254.5 3C324.489 3 387.713 14.5425 433.329 33.0934C456.144 42.372 474.408 53.3448 486.921 65.3757C499.425 77.3987 506 90.2816 506 103.5Z" fill="url(#paint0_linear_155_32)" stroke="#363636" stroke-width="6"/>
<defs>
<linearGradient id="paint0_linear_155_32" x1="254" y1="-19.5" x2="254.5" y2="207" gradientUnits="userSpaceOnUse">
<stop stop-color="#222222"/>
<stop offset="1" stop-color="#101010"/>
</linearGradient>
</defs>
</svg>
