<svg width="1013" height="479" viewBox="0 0 1013 479" fill="none" xmlns="http://www.w3.org/2000/svg">
<path d="M0 0L90 38L232 167.5L336 277L374 368L396 455.5L374 459.5L343.5 428.5L258.5 277L63.5 52L0 0Z" fill="#F4F4F4"/>
<path d="M257.5 152.5L273.5 160L316.5 188L431 332L452.5 382.5L498 462L423.5 476L396.5 453L367 344.5L337 280L298 225L257.5 152.5Z" fill="#E3E3E3"/>
<path d="M360 6L384.5 100.915L395 200.024L404 237.781L471 469.037L376.5 479L345 431L360 325.878L350 200.024L364 112.976L360 6Z" fill="#F0F0F0"/>
<path d="M449 41V133L455.5 203.5L482 304.5L495 464.5L449 469.5L430 314L402 215.5L420.5 133L449 41Z" fill="#E8E8E8"/>
<path d="M1012.5 23.5L924 63L792 136L675 287L597 442L496.5 462L445 472L496.5 362.5L583.5 264.5L726 116L900.5 42L1012.5 23.5Z" fill="#F4F4F4"/>
<path d="M628.5 55L589.5 103L555 201L528.5 296V406.5V456.5L447 472L423 475L457 402.5L464 328L471.5 264.5L512 183L565.5 100L628.5 55Z" fill="#F4F4F4"/>
</svg>
