<svg width="1107" height="781" viewBox="0 0 1107 781" fill="none" xmlns="http://www.w3.org/2000/svg">
<path d="M812.299 747.563L812.209 747.549L812.119 747.537C706.932 734.417 647.604 735.5 613.861 736.117C608.909 736.207 604.508 736.288 600.594 736.312C592.935 736.359 587.493 736.181 583.485 735.528C579.53 734.884 577.564 733.864 576.354 732.681C575.112 731.468 574.032 729.467 573.14 725.522C572.241 721.546 571.672 716.284 570.977 709.023L570.776 706.919L569.127 705.598C553.928 693.414 544.305 682.775 539.083 673.597C533.917 664.518 533.215 657.19 535.222 651.094C537.283 644.834 542.52 638.883 551.237 633.354C559.924 627.843 571.618 623.043 585.744 618.924C642.423 602.398 734.006 597.999 811.5 597.999C872.726 597.999 931.288 598.509 980.147 604.099C1029.28 609.72 1067.35 620.372 1088.64 639.7C1093.52 644.131 1096.15 650.417 1097.84 658.131C1098.69 661.97 1099.26 666.013 1099.81 670.211C1099.92 671.007 1100.02 671.811 1100.12 672.621C1100.54 675.862 1100.96 679.186 1101.5 682.395C1101.34 691.057 1096.01 701.371 1084.05 711.776C1072 722.265 1053.74 732.357 1029.27 740.271C980.383 756.088 907.462 762.968 812.299 747.563Z" fill="#5A5A5A" stroke="#A7A7A7" stroke-width="10"/>
<path d="M39 370.5L81.5 314L156.5 248L151 258.5L134 299.5V318L156.5 345L203.5 364.5L242 377.5L255 438L348.5 551L489.5 640L534.5 649L540 676L554 697L576 718.5L591 740.5L415.5 780.5H231L156.5 758.5L89 723.5L42 651.5L4.5 575L0.5 524.5L4.5 475L18 412.5L39 370.5Z" fill="#B1B1B1"/>
<path d="M570.5 118.5C601 161.5 608.001 223.458 415.342 329.358C360.501 359.502 206.5 411.144 147.5 342.499C98.0001 320.144 165.5 201 303.641 104.317C404.501 60.0016 534.762 68.1137 570.5 118.5Z" fill="#E0E0E0"/>
<path d="M1056.9 445.9C1074 477.858 1075.2 497.135 1081.25 521.484C1124.26 736.567 1126.33 613.807 868.313 616.851C712.362 577.284 352.28 734.538 729.456 425.61C920.121 139.509 602.954 139 724.278 139C845.602 139 980.742 317.56 1056.9 445.9Z" fill="#B8B8B8"/>
<path d="M789 326.5C780.514 369.501 574.5 646.502 523.5 655.501C509.949 662.892 434.5 614 341.5 548C258 472 222.783 383.587 246.5 375.001C902.5 137.5 363.501 66.9997 571.986 84.9996C771.5 145.501 820.014 216.001 789 326.5Z" fill="#C8C8C8"/>
<mask id="mask0_153_18" style="mask-type:alpha" maskUnits="userSpaceOnUse" x="0" y="75" width="1107" height="706">
<path d="M812.299 747.563L812.209 747.549L812.119 747.537C706.932 734.417 647.604 735.5 613.861 736.117C608.909 736.207 604.508 736.288 600.594 736.312C592.935 736.359 587.493 736.181 583.485 735.528C579.53 734.884 577.564 733.864 576.354 732.681C575.112 731.468 574.032 729.467 573.14 725.522C572.241 721.546 571.672 716.284 570.977 709.023L570.776 706.919L569.127 705.598C553.928 693.414 544.305 682.775 539.083 673.597C533.917 664.518 533.215 657.19 535.222 651.094C537.283 644.834 542.52 638.883 551.237 633.354C559.924 627.843 571.618 623.043 585.744 618.924C642.423 602.398 734.006 597.999 811.5 597.999C872.726 597.999 931.288 598.509 980.147 604.099C1029.28 609.72 1067.35 620.372 1088.64 639.7C1093.52 644.131 1096.15 650.417 1097.84 658.131C1098.69 661.97 1099.26 666.013 1099.81 670.211C1099.92 671.007 1100.02 671.811 1100.12 672.621C1100.54 675.862 1100.96 679.186 1101.5 682.395C1101.34 691.057 1096.01 701.371 1084.05 711.776C1072 722.265 1053.74 732.357 1029.27 740.271C980.383 756.088 907.462 762.968 812.299 747.563Z" fill="#5A5A5A" stroke="#A7A7A7" stroke-width="10"/>
<path d="M39 370.5L81.5 314L156.5 248L151 258.5L134 299.5V318L156.5 345L203.5 364.5L242 377.5L255 438L348.5 551L489.5 640L534.5 649L540 676L554 697L576 718.5L591 740.5L415.5 780.5H231L156.5 758.5L89 723.5L42 651.5L4.5 575L0.5 524.5L4.5 475L18 412.5L39 370.5Z" fill="#B1B1B1"/>
<path d="M570.5 118.5C601 161.5 608.001 223.458 415.342 329.358C360.501 359.502 206.5 411.144 147.5 342.499C98.0001 320.144 165.5 201 303.641 104.317C404.501 60.0016 534.762 68.1137 570.5 118.5Z" fill="#E0E0E0"/>
<path d="M1056.9 445.9C1074 477.858 1075.2 497.135 1081.25 521.484C1124.26 736.567 1126.33 613.807 868.313 616.851C712.362 577.284 352.28 734.538 729.456 425.61C920.121 139.509 602.954 139 724.278 139C845.602 139 980.742 317.56 1056.9 445.9Z" fill="#B8B8B8"/>
<path d="M789 326.5C780.514 369.501 574.5 646.502 523.5 655.501C509.949 662.892 434.5 614 341.5 548C258 472 222.783 383.587 246.5 375.001C902.5 137.5 363.501 66.9997 571.986 84.9996C771.5 145.501 820.014 216.001 789 326.5Z" fill="#C8C8C8"/>
</mask>
<g mask="url(#mask0_153_18)">
<path d="M834 456L867 415L889.5 368.5L895 316.5L892.25 280.5L881 245.5L864 217L830 172.5M905.5 495L923.5 462L935.5 427.5L943.75 384.75V343.5L939.5 307.5L930 272" stroke="#929292" stroke-width="12" stroke-linecap="round"/>
<path d="M991.5 561.5L1013.5 473.5L1015 443.25L1016.5 413L1013.5 384L1005 355.5M58 341.5C58 341.5 55 379.5 58 387C61 394.5 76 407 82.5 413C89 419 117 429 117 429C117 429 170.5 445 185.5 447C200.5 449 251.5 447 251.5 447M25 400.5C25 400.5 29 433 33.5 440C38 447 49 461.5 58 467.5C67 473.5 99 481.5 99 481.5C99 481.5 148 497 158.5 499.5C169 502 221.5 499.5 221.5 499.5H284.5M-3.5 509.5C-3.5 509.5 14 536.5 19.5 542C25 547.5 47.5 563.5 47.5 563.5C47.5 563.5 66.5 572.5 71.5 574.5C76.5 576.5 99 580 99 580L150 588.5L210 592.5C210 592.5 266.5 590.5 277.5 588.5C288.5 586.5 317.5 580 317.5 580L362.5 571.5M61 688L113.5 713.5L167.5 729.5L210 736.5H277.5L331 729.5L382.5 721L436 703.5L474.5 688L531 665M716 144.5C795 233.5 768 292 756 312.5C744 333 722.5 355.5 722.5 355.5L689 387L654 413L598.5 447L554 467.5L498 493.5L460 513L429.5 528M700 124.5L716 178.5V199L710.5 233.5L700 257.5L683 284L670.5 300.5L641 327.5L617 351L595 368L554 387L531 400.5L511.5 413L480 429L444.5 447L406.5 457L368 473.5M658.5 106L670.5 173V199L658.5 233.5L636.5 257.5L617 279.5L588.5 300.5L560 323.5L531 344.5L490 363.5L450.5 380L406.5 400.5L350 424M519.5 85.5L537.5 100L560 112.5L580 132L584.5 153.5L580 186.5L554 221L523 247L480 274L444.5 289.5L422 303.5L368 327.5L326 344.5L277.5 363.5L238.5 374.5L191.5 368L156.5 353L137.5 335L132 308.5L143 274L156.5 238" stroke="#9B9B9B" stroke-width="13" stroke-linecap="round"/>
<path d="M470.566 111.675C480.858 143.103 439.604 188.432 372 211.499C306.006 234.017 252.947 242.339 237.18 205.858C224.876 177.392 264.6 112.176 326.635 91.8608C388.669 71.5454 460.273 80.2456 470.566 111.675Z" fill="#E0E0E0" stroke="#969696" stroke-width="7"/>
</g>
</svg>
