<svg width="1154" height="1358" viewBox="0 0 1154 1358" fill="none" xmlns="http://www.w3.org/2000/svg">
<path d="M158 455V1333H972V455" stroke="#D9D9D9" stroke-width="50"/>
<rect x="576.642" y="0.539978" width="85.1906" height="815.495" transform="rotate(45 576.642 0.539978)" fill="#D9D9D9"/>
<rect x="1153.42" y="577.182" width="85.1906" height="815.578" transform="rotate(135 1153.42 577.182)" fill="#D9D9D9"/>
<circle cx="294" cy="1197" r="94.5" stroke="#D9D9D9" stroke-width="25"/>
<path d="M576.5 1203C576.5 1253.27 540.486 1291.5 499 1291.5C457.514 1291.5 421.5 1253.27 421.5 1203C421.5 1152.73 457.514 1114.5 499 1114.5C540.486 1114.5 576.5 1152.73 576.5 1203Z" stroke="#D9D9D9" stroke-width="25"/>
<path d="M789.976 1052.58C797.325 1058.72 801.214 1069.18 800.062 1082.59C798.914 1095.96 792.726 1111.28 781.286 1124.97C769.845 1138.66 755.869 1147.47 742.917 1150.97C729.927 1154.49 718.937 1152.52 711.589 1146.38C704.24 1140.24 700.351 1129.78 701.503 1116.37C702.651 1103 708.839 1087.68 720.28 1073.99C731.72 1060.3 745.696 1051.49 758.648 1047.98C771.638 1044.47 782.628 1046.43 789.976 1052.58Z" stroke="#D9D9D9" stroke-width="20"/>
<path d="M269.229 532.313C287.409 547.505 289.709 575.292 273.707 594.442C257.705 613.591 229.951 616.264 211.771 601.072C193.591 585.88 191.291 558.093 207.293 538.944C223.295 519.795 251.049 517.121 269.229 532.313Z" stroke="#D9D9D9" stroke-width="15"/>
<path d="M914.313 992.289C939.293 1013.16 942.74 1049.75 922.51 1073.95C902.28 1098.16 865.667 1101.27 840.687 1080.4C815.707 1059.52 812.26 1022.94 832.49 998.731C852.72 974.521 889.333 971.415 914.313 992.289Z" stroke="#D9D9D9" stroke-width="18"/>
<path d="M468.5 880C468.5 930.271 432.486 968.5 391 968.5C349.514 968.5 313.5 930.271 313.5 880C313.5 829.729 349.514 791.5 391 791.5C432.486 791.5 468.5 829.729 468.5 880Z" stroke="#D9D9D9" stroke-width="25"/>
<path d="M735.438 480.883C685.718 506.25 628.126 489.051 605.814 445.319C583.502 401.587 603.379 344.864 653.099 319.497C702.82 294.13 760.412 311.328 782.724 355.06C805.036 398.792 785.159 455.515 735.438 480.883Z" stroke="#D9D9D9" stroke-width="25"/>
<path d="M477.5 1050.5C477.5 1081.6 448.195 1109.5 408.5 1109.5C368.805 1109.5 339.5 1081.6 339.5 1050.5C339.5 1019.4 368.805 991.5 408.5 991.5C448.195 991.5 477.5 1019.4 477.5 1050.5Z" stroke="#D9D9D9" stroke-width="25"/>
<path d="M243.351 1071.62C213.246 1063.82 193.579 1028.46 203.529 990.032C213.478 951.604 247.835 930.228 277.94 938.022C308.045 945.817 327.712 981.18 317.762 1019.61C307.813 1058.04 273.456 1079.41 243.351 1071.62Z" stroke="#D9D9D9" stroke-width="25"/>
<path d="M745.5 1226.5C745.5 1261.96 715.507 1291.5 677.5 1291.5C639.493 1291.5 609.5 1261.96 609.5 1226.5C609.5 1191.04 639.493 1161.5 677.5 1161.5C715.507 1161.5 745.5 1191.04 745.5 1226.5Z" stroke="#D9D9D9" stroke-width="25"/>
<path d="M685.5 1076.5C685.5 1116.39 656.202 1147.5 621.5 1147.5C586.798 1147.5 557.5 1116.39 557.5 1076.5C557.5 1036.61 586.798 1005.5 621.5 1005.5C656.202 1005.5 685.5 1036.61 685.5 1076.5Z" stroke="#D9D9D9" stroke-width="15"/>
<path d="M592.061 971.218C577.048 1008.79 540.257 1026.98 511.233 1015.38C482.209 1003.78 468.077 965.255 483.09 927.68C498.103 890.104 534.895 871.92 563.919 883.517C592.943 895.113 607.075 933.643 592.061 971.218Z" stroke="#D9D9D9" stroke-width="15"/>
<path d="M680.438 887.295C660.566 908.194 621.721 906.823 593.348 879.844C564.976 852.865 561.652 814.139 581.524 793.24C601.397 772.341 640.241 773.712 668.614 800.691C696.987 827.67 700.31 866.397 680.438 887.295Z" stroke="#D9D9D9" stroke-width="15"/>
<path d="M935.5 732.5C935.5 771.99 904.783 803.5 867.5 803.5C830.217 803.5 799.5 771.99 799.5 732.5C799.5 693.01 830.217 661.5 867.5 661.5C904.783 661.5 935.5 693.01 935.5 732.5Z" stroke="#D9D9D9" stroke-width="15"/>
<path d="M803.5 957.5C803.5 996.757 771.891 1028.5 733 1028.5C694.109 1028.5 662.5 996.757 662.5 957.5C662.5 918.243 694.109 886.5 733 886.5C771.891 886.5 803.5 918.243 803.5 957.5Z" stroke="#D9D9D9" stroke-width="15"/>
<path d="M802.5 824.5C802.5 850.724 782.091 871.5 757.5 871.5C732.909 871.5 712.5 850.724 712.5 824.5C712.5 798.276 732.909 777.5 757.5 777.5C782.091 777.5 802.5 798.276 802.5 824.5Z" stroke="#D9D9D9" stroke-width="15"/>
<path d="M830.5 533.5C830.5 559.724 810.091 580.5 785.5 580.5C760.909 580.5 740.5 559.724 740.5 533.5C740.5 507.276 760.909 486.5 785.5 486.5C810.091 486.5 830.5 507.276 830.5 533.5Z" stroke="#D9D9D9" stroke-width="15"/>
<path d="M565 382C565 425.999 525.384 464 473.5 464C421.616 464 382 425.999 382 382C382 338.001 421.616 300 473.5 300C525.384 300 565 338.001 565 382Z" stroke="#D9D9D9" stroke-width="30"/>
<path d="M690.5 718.5C690.5 744.724 670.091 765.5 645.5 765.5C620.909 765.5 600.5 744.724 600.5 718.5C600.5 692.276 620.909 671.5 645.5 671.5C670.091 671.5 690.5 692.276 690.5 718.5Z" stroke="#D9D9D9" stroke-width="15"/>
<path d="M777 726.5C777 743.746 762.825 758 745 758C727.175 758 713 743.746 713 726.5C713 709.254 727.175 695 745 695C762.825 695 777 709.254 777 726.5Z" stroke="#D9D9D9" stroke-width="30"/>
<path d="M598 496.5C598 511.523 585.63 524 570 524C554.37 524 542 511.523 542 496.5C542 481.477 554.37 469 570 469C585.63 469 598 481.477 598 496.5Z" stroke="#D9D9D9" stroke-width="30"/>
<path d="M815 639.5C815 656.746 800.825 671 783 671C765.175 671 751 656.746 751 639.5C751 622.254 765.175 608 783 608C800.825 608 815 622.254 815 639.5Z" stroke="#D9D9D9" stroke-width="30"/>
<path d="M903 488C903 503.082 890.967 515 876.5 515C862.033 515 850 503.082 850 488C850 472.918 862.033 461 876.5 461C890.967 461 903 472.918 903 488Z" stroke="#D9D9D9" stroke-width="30"/>
<path d="M729.494 586.118C730.636 620.556 703.308 649.685 668.107 650.852C632.905 652.019 603.708 624.766 602.566 590.327C601.424 555.889 628.751 526.761 663.953 525.594C699.154 524.426 728.351 551.68 729.494 586.118Z" stroke="#D9D9D9" stroke-width="30"/>
<path d="M924.5 593C924.5 616.751 905.644 635.5 883 635.5C860.356 635.5 841.5 616.751 841.5 593C841.5 569.249 860.356 550.5 883 550.5C905.644 550.5 924.5 569.249 924.5 593Z" stroke="#D9D9D9" stroke-width="35"/>
<path d="M935.5 889.5C935.5 929.387 906.202 960.5 871.5 960.5C836.798 960.5 807.5 929.387 807.5 889.5C807.5 849.613 836.798 818.5 871.5 818.5C906.202 818.5 935.5 849.613 935.5 889.5Z" stroke="#D9D9D9" stroke-width="15"/>
<path d="M928 1206C928 1253.32 893.691 1289 854.5 1289C815.309 1289 781 1253.32 781 1206C781 1158.68 815.309 1123 854.5 1123C893.691 1123 928 1158.68 928 1206Z" stroke="#D9D9D9" stroke-width="30"/>
<path d="M286.5 869C286.5 894.063 265.972 914.5 240.5 914.5C215.028 914.5 194.5 894.063 194.5 869C194.5 843.937 215.028 823.5 240.5 823.5C265.972 823.5 286.5 843.937 286.5 869Z" stroke="#D9D9D9" stroke-width="15"/>
<path d="M286.5 758C286.5 783.063 265.972 803.5 240.5 803.5C215.028 803.5 194.5 783.063 194.5 758C194.5 732.937 215.028 712.5 240.5 712.5C265.972 712.5 286.5 732.937 286.5 758Z" stroke="#D9D9D9" stroke-width="15"/>
<circle cx="516" cy="829" r="35" stroke="#D9D9D9" stroke-width="10"/>
<circle cx="465" cy="758" r="35" stroke="#D9D9D9" stroke-width="10"/>
<path d="M542 1065C542 1083.27 530.453 1096 518.5 1096C506.547 1096 495 1083.27 495 1065C495 1046.73 506.547 1034 518.5 1034C530.453 1034 542 1046.73 542 1065Z" stroke="#D9D9D9" stroke-width="10"/>
<path d="M859 428.5C859 441.397 848.337 452 835 452C821.663 452 811 441.397 811 428.5C811 415.603 821.663 405 835 405C848.337 405 859 415.603 859 428.5Z" stroke="#D9D9D9" stroke-width="10"/>
<circle cx="545" cy="739" r="35" stroke="#D9D9D9" stroke-width="10"/>
<circle cx="549" cy="659" r="35" stroke="#D9D9D9" stroke-width="10"/>
<path d="M548 248C548 267.214 531.999 283 512 283C492.001 283 476 267.214 476 248C476 228.786 492.001 213 512 213C531.999 213 548 228.786 548 248Z" stroke="#D9D9D9" stroke-width="10"/>
<path d="M628 289.5C628 311.478 610.827 329 590 329C569.173 329 552 311.478 552 289.5C552 267.522 569.173 250 590 250C610.827 250 628 267.522 628 289.5Z" stroke="#D9D9D9" stroke-width="10"/>
<path d="M619 193.5C619 217.452 601.53 236 581 236C560.47 236 543 217.452 543 193.5C543 169.548 560.47 151 581 151C601.53 151 619 169.548 619 193.5Z" stroke="#D9D9D9" stroke-width="10"/>
<path d="M678.742 237.116C686.507 248.079 690.855 259.743 691.802 269.567C692.763 279.532 690.211 286.556 685.619 290.062C681.027 293.567 673.807 294.002 664.932 290.079C656.182 286.212 646.753 278.426 638.989 267.463C631.224 256.501 626.877 244.836 625.929 235.012C624.968 225.048 627.521 218.023 632.113 214.518C636.704 211.012 643.924 210.577 652.799 214.5C661.549 218.367 670.978 226.153 678.742 237.116Z" stroke="#D9D9D9" stroke-width="10"/>
<circle cx="545" cy="579" r="35" stroke="#D9D9D9" stroke-width="10"/>
<circle cx="487" cy="519" r="35" stroke="#D9D9D9" stroke-width="10"/>
<circle cx="407" cy="508" r="35" stroke="#D9D9D9" stroke-width="10"/>
<circle cx="334" cy="548" r="35" stroke="#D9D9D9" stroke-width="10"/>
<path d="M369 455C369 478.848 350.097 498 327 498C303.903 498 285 478.848 285 455C285 431.152 303.903 412 327 412C350.097 412 369 431.152 369 455Z" stroke="#D9D9D9" stroke-width="10"/>
<circle cx="230" cy="660" r="35" stroke="#D9D9D9" stroke-width="10"/>
<path d="M343 613C343 624.376 332.933 634 320 634C307.067 634 297 624.376 297 613C297 601.624 307.067 592 320 592C332.933 592 343 601.624 343 613Z" stroke="#D9D9D9" stroke-width="6"/>
<path d="M281 486C281 499.757 269.634 511 255.5 511C241.366 511 230 499.757 230 486C230 472.243 241.366 461 255.5 461C269.634 461 281 472.243 281 486Z" stroke="#D9D9D9" stroke-width="6"/>
<circle cx="380" cy="739" r="35" stroke="#D9D9D9" stroke-width="10"/>
<circle cx="310" cy="678" r="35" stroke="#D9D9D9" stroke-width="10"/>
<path d="M497.5 626.5C497.5 665.803 466.07 697.5 427.5 697.5C388.93 697.5 357.5 665.803 357.5 626.5C357.5 587.197 388.93 555.5 427.5 555.5C466.07 555.5 497.5 587.197 497.5 626.5Z" stroke="#D9D9D9" stroke-width="15"/>
</svg>
