<svg width="752" height="897" viewBox="0 0 752 897" fill="none" xmlns="http://www.w3.org/2000/svg">
<path d="M266.253 383.168C258.048 375.62 252.702 366.751 250.786 358.422C248.877 350.121 250.334 342.02 256.333 336.604C262.332 331.187 271.235 329.935 280.326 331.752C289.448 333.575 299.129 338.53 307.334 346.077C315.539 353.625 320.885 362.494 322.801 370.823C324.71 379.124 323.253 387.225 317.254 392.641C311.255 398.058 302.352 399.31 293.261 397.493C284.139 395.67 274.458 390.715 266.253 383.168Z" fill="#383838" stroke="#383838" stroke-width="5"/>
<path d="M284.436 396.75C278.401 393.818 274.385 390.791 272.034 387.57C269.628 384.274 269.054 380.894 269.659 377.534C270.246 374.273 271.926 371.133 273.798 368.21C274.741 366.736 275.768 365.265 276.772 363.832L276.888 363.666C277.861 362.277 278.81 360.922 279.694 359.562C282.481 355.276 288.134 354.389 293.702 354.739C299.49 355.102 306.523 356.855 313.852 359.262C328.56 364.091 345.198 371.805 356.905 377.493C368.951 383.344 377.005 390.867 381.031 398.631C385.06 406.399 385.085 414.528 380.743 421.204C379.193 423.587 376.436 424.706 373.587 425.157C370.723 425.611 367.282 425.48 363.557 424.989C356.078 424.002 346.728 421.457 337.029 418.24C317.591 411.794 296.206 402.468 284.436 396.75Z" fill="#383838" stroke="#383838" stroke-width="5"/>
<path d="M447.133 435.568C459.034 450.022 467.26 465.074 470.873 477.798C472.678 484.156 473.365 490.051 472.691 495.052C472.015 500.067 469.936 504.359 466.046 507.14C462.156 509.921 457.169 510.681 451.795 509.991C446.437 509.303 440.504 507.159 434.38 503.888C422.125 497.343 408.651 486.042 396.75 471.589C395.743 470.367 394.733 469.142 393.723 467.917C383.004 454.924 372.258 441.897 365.321 430.88C361.535 424.868 358.734 419.228 357.774 414.373C356.799 409.436 357.676 404.849 361.907 401.824C365.851 399.005 371.866 398.198 378.493 398.676C385.23 399.161 393.09 401.008 401.204 404.022C417.414 410.046 435.044 420.887 447.133 435.568Z" fill="#383838" stroke="#383838" stroke-width="5"/>
<path d="M497.735 543.587C503.589 559.002 505.99 574.195 505.042 586.353C504.112 598.298 499.821 608.277 491.244 611.551C482.666 614.826 472.843 610.236 464.224 601.936C455.452 593.488 447.166 580.542 441.313 565.128C435.412 549.588 433.34 530.755 434.549 515.089C435.153 507.255 436.587 500.083 438.857 494.449C441.088 488.911 444.334 484.355 448.891 482.615C453.612 480.813 458.443 482.492 462.793 485.67C467.165 488.865 471.529 493.894 475.686 499.879C484.022 511.879 491.94 528.327 497.735 543.587Z" fill="#383838" stroke="#383838" stroke-width="5"/>
<path d="M523.542 611.738L523.642 611.884L523.72 612.042C531.087 626.897 542.843 641.311 552.353 652.97C552.689 653.382 553.022 653.79 553.352 654.195C558.128 660.054 562.336 665.269 564.842 669.334C566.079 671.341 567.06 673.313 567.381 675.085C567.546 675.998 567.563 676.999 567.227 677.972C566.874 678.992 566.188 679.816 565.247 680.395C563.644 681.381 561.497 681.636 559.387 681.596C557.187 681.554 554.604 681.179 551.799 680.547C546.179 679.281 539.367 676.915 532.373 673.721C518.467 667.37 503.287 657.492 495.293 645.872C487.494 634.536 480.77 618.746 476.958 605.207C475.052 598.435 473.839 592.106 473.617 587.093C473.506 584.595 473.635 582.307 474.111 580.413C474.574 578.57 475.465 576.715 477.214 575.639C480.242 573.775 484.001 574.412 487.439 575.884C490.972 577.398 494.884 580.08 498.891 583.493C506.934 590.342 515.844 600.55 523.542 611.738Z" fill="#383838" stroke="#383838" stroke-width="5"/>
<path d="M584.502 666.252C585.576 666.42 586.694 666.594 587.848 666.773C600.106 668.677 616.43 671.213 627.854 674.912C630.997 675.93 633.846 677.059 636.173 678.324C638.466 679.57 640.443 681.049 641.616 682.853C642.86 684.769 643.184 687.058 642.07 689.507C641.123 691.588 639.256 693.512 636.726 695.336C636.027 696.624 634.828 697.482 633.566 697.992C632.091 698.589 630.337 698.811 628.555 698.861C624.951 698.962 620.217 698.368 614.964 697.479C610.35 696.698 605.182 695.661 599.816 694.585C599.028 694.427 598.235 694.268 597.439 694.108C591.205 692.861 584.754 691.598 578.517 690.62C565.507 688.58 552.89 682.828 543.763 676.745C539.197 673.702 535.419 670.519 532.876 667.592C531.608 666.132 530.589 664.67 529.951 663.262C529.335 661.903 528.938 660.299 529.391 658.679C529.624 657.843 530.071 657.052 530.763 656.39C531.44 655.742 532.231 655.331 533.003 655.077C534.468 654.593 536.141 654.579 537.748 654.726C541.015 655.024 545.309 656.134 550.082 657.501C551.88 658.016 553.766 658.573 555.724 659.151C564.361 661.702 574.401 664.668 584.502 666.252Z" fill="#383838" stroke="#383838" stroke-width="5"/>
<path d="M660.4 684.961C669.203 689.342 675.205 694.659 678.476 699.84C681.683 704.92 682.514 710.354 679.769 714.491C678.388 716.572 676.393 717.945 673.883 718.532C671.506 719.087 668.867 718.891 666.112 718.285C660.625 717.078 653.616 713.987 645.135 709.766C636.656 705.545 627.544 700.897 621.057 696.51C617.833 694.33 615.075 692.096 613.387 689.891C611.74 687.74 610.639 684.93 612.474 682.165C614.108 679.702 617.314 678.436 620.539 677.8C623.902 677.138 628.004 677.014 632.387 677.348C641.162 678.018 651.572 680.567 660.4 684.961Z" fill="#383838" stroke="#383838" stroke-width="5"/>
<path d="M308.259 408.444C309.264 407.181 310.281 405.915 311.295 404.653C315.811 399.032 320.257 393.498 323.206 388.688C325.008 385.749 326.354 382.922 326.761 380.394C327.184 377.774 326.604 375.331 324.41 373.586C322.34 371.939 319.428 371.388 316.289 371.549C313.119 371.712 309.513 372.608 305.826 374.096C298.456 377.071 290.532 382.508 284.823 389.686C279.295 396.637 274.589 403.121 272.124 408.587C270.891 411.321 270.154 413.936 270.244 416.308C270.338 418.756 271.315 420.887 273.344 422.501C277.304 425.65 283.411 425.467 289.584 423.015C295.845 420.529 302.587 415.577 308.259 408.444Z" fill="#383838" stroke="#383838" stroke-width="3"/>
<path d="M254.15 434.932C262.997 433.408 271.963 430.81 278.579 427.488C281.88 425.83 284.69 423.946 286.598 421.849C288.516 419.741 289.642 417.269 289.175 414.56C288.696 411.776 286.462 409.722 283.652 408.246C280.799 406.747 277.037 405.668 272.863 404.967C264.504 403.563 254.141 403.617 245.225 405.154C236.173 406.713 228.564 410.884 223.383 415.789C218.282 420.617 215.239 426.468 216.09 431.405C216.56 434.138 218.372 435.877 220.832 436.865C223.215 437.821 226.307 438.127 229.727 438.079C236.448 437.983 245.091 436.494 253.636 435.021C253.808 434.991 253.979 434.962 254.15 434.932Z" fill="#383838" stroke="#383838" stroke-width="3"/>
<path d="M191.576 453.173C185.091 463.963 181.157 475.398 179.773 484.745C179.082 489.413 179.017 493.629 179.631 497.016C180.237 500.35 181.561 503.181 183.935 504.607C186.468 506.13 189.182 505.452 191.67 503.792C194.137 502.146 196.714 499.346 199.365 495.875C204.198 489.546 209.591 480.557 215.314 471.017C215.885 470.064 216.46 469.106 217.038 468.144C223.414 457.535 229.297 447.556 232.659 439.667C234.335 435.735 235.448 432.183 235.623 429.259C235.8 426.3 235.015 423.659 232.524 422.162C230.149 420.735 227.081 420.901 223.922 421.949C220.722 423.012 217.138 425.069 213.453 427.886C206.073 433.528 198.052 442.397 191.576 453.173Z" fill="#383838" stroke="#383838" stroke-width="3"/>
<path d="M163.995 519.786C162.005 524.859 159.894 529.835 157.887 534.565C157.619 535.196 157.353 535.823 157.09 536.446C154.858 541.715 152.793 546.654 151.259 550.977C149.736 555.269 148.681 559.101 148.559 562.118C148.498 563.635 148.666 565.068 149.227 566.283C149.81 567.547 150.784 568.496 152.141 569.029C154.681 570.025 157.746 569.47 160.822 568.048C163.942 566.604 167.328 564.155 170.693 560.925C177.43 554.459 184.265 544.69 188.871 532.948C193.435 521.312 196.563 509.43 197.542 500.012C198.03 495.314 197.995 491.135 197.281 487.875C196.577 484.663 195.12 481.962 192.437 480.909C189.79 479.871 187.159 480.701 184.78 482.49C182.421 484.263 180.091 487.123 177.805 490.682C173.219 497.822 168.532 508.221 163.995 519.786Z" fill="#383838" stroke="#383838" stroke-width="3"/>
<path d="M138.971 570.734C131.466 574.928 124.29 579.375 119.342 583.271C116.872 585.216 114.858 587.1 113.657 588.812C113.057 589.666 112.586 590.58 112.427 591.517C112.258 592.513 112.452 593.52 113.146 594.365C113.794 595.155 114.766 595.647 115.781 595.956C116.822 596.272 118.065 596.444 119.438 596.485C122.187 596.567 125.634 596.13 129.414 595.088C136.961 593.006 146.012 588.463 153.719 580.505C161.551 574.054 166.403 565.976 168.913 559.012C170.171 555.522 170.854 552.272 171.015 549.608C171.095 548.277 171.047 547.057 170.857 546.009C170.671 544.983 170.326 543.999 169.717 543.256C169.351 542.811 168.867 542.466 168.267 542.314C167.684 542.166 167.119 542.233 166.631 542.383C165.704 542.667 164.788 543.332 163.932 544.087C162.184 545.627 160.04 548.139 157.617 551.033C157.312 551.397 157.001 551.768 156.685 552.146C151.932 557.833 145.965 564.972 138.971 570.734Z" fill="#383838" stroke="#383838" stroke-width="3"/>
<path d="M80.444 602.001C79.854 598.712 91.447 591.689 101.985 589.799L102.089 589.78C112.591 587.896 123.087 586.014 123.675 589.292C124.265 592.581 113.061 601.233 102.523 603.123C91.9858 605.014 81.4452 606.39 80.444 602.001Z" fill="#383838"/>
<path d="M80.444 602.001C79.854 598.712 91.447 591.689 101.985 589.799L102.089 589.78C112.591 587.896 123.087 586.014 123.675 589.292C124.265 592.581 113.061 601.233 102.523 603.123C91.9858 605.014 81.4452 606.39 80.444 602.001Z" stroke="#383838"/>
<path d="M309.087 373.738C309.433 372.161 309.788 370.577 310.143 368.998C311.721 361.962 313.276 355.036 313.805 349.419C314.128 345.986 314.091 342.855 313.344 340.406C312.569 337.868 310.973 335.93 308.234 335.329C305.65 334.763 302.793 335.551 300.046 337.078C297.271 338.62 294.429 341.013 291.774 343.973C286.468 349.89 281.748 358.261 279.785 367.22C277.884 375.895 276.514 383.789 276.709 389.782C276.806 392.78 277.296 395.452 278.422 397.541C279.584 399.698 281.4 401.181 283.932 401.736C288.875 402.82 294.276 399.965 298.739 395.045C303.265 390.056 307.136 382.64 309.087 373.738Z" fill="#383838" stroke="#383838" stroke-width="3"/>
<path d="M272.176 421.351C279.447 416.085 286.352 409.804 290.829 403.907C293.062 400.965 294.755 398.036 295.544 395.314C296.338 392.576 296.26 389.861 294.648 387.634C292.991 385.346 290.081 384.486 286.908 384.398C283.687 384.309 279.834 384.998 275.778 386.207C267.655 388.628 258.375 393.241 251.047 398.547C243.607 403.934 238.613 411.029 236.122 417.716C233.669 424.297 233.514 430.89 236.452 434.948C238.078 437.193 240.471 437.958 243.114 437.76C245.675 437.569 248.586 436.482 251.634 434.933C257.627 431.886 264.731 426.742 271.753 421.657C271.894 421.555 272.035 421.453 272.176 421.351Z" fill="#383838" stroke="#383838" stroke-width="3"/>
<path d="M224.032 465.287C222.963 477.83 224.467 489.829 227.341 498.83C228.777 503.325 230.575 507.14 232.619 509.909C234.631 512.637 237.067 514.594 239.826 514.83C242.771 515.081 244.908 513.277 246.411 510.69C247.901 508.126 248.981 504.477 249.832 500.194C251.384 492.383 252.266 481.938 253.203 470.853C253.296 469.745 253.39 468.631 253.486 467.513C254.537 455.18 255.423 443.63 254.967 435.067C254.74 430.798 254.174 427.12 253.043 424.418C251.9 421.683 250.031 419.658 247.135 419.411C244.375 419.175 241.694 420.676 239.32 423.009C236.914 425.373 234.603 428.798 232.535 432.95C228.395 441.266 225.1 452.76 224.032 465.287Z" fill="#383838" stroke="#383838" stroke-width="3"/>
<path d="M228.61 537.239C229.058 542.67 229.354 548.067 229.636 553.197C229.673 553.882 229.711 554.562 229.748 555.237C230.065 560.951 230.386 566.295 230.913 570.852C231.437 575.376 232.177 579.281 233.397 582.043C234.01 583.432 234.792 584.644 235.831 585.488C236.911 586.366 238.203 586.789 239.656 586.669C242.375 586.445 244.883 584.597 247.018 581.965C249.183 579.295 251.144 575.605 252.743 571.223C255.943 562.45 257.776 550.669 256.74 538.1C255.712 525.642 253.287 513.597 250.018 504.711C248.387 500.278 246.515 496.542 244.438 493.93C242.392 491.356 239.893 489.572 237.021 489.809C234.188 490.043 232.191 491.946 230.843 494.601C229.507 497.232 228.675 500.826 228.19 505.028C227.217 513.457 227.589 524.858 228.61 537.239Z" fill="#383838" stroke="#383838" stroke-width="3"/>
<path d="M228.583 594C223.693 601.072 219.209 608.225 216.483 613.901C215.122 616.736 214.144 619.315 213.819 621.38C213.657 622.411 213.636 623.439 213.906 624.35C214.194 625.319 214.812 626.138 215.807 626.591C216.736 627.014 217.825 627.028 218.873 626.858C219.947 626.684 221.138 626.291 222.389 625.723C224.894 624.586 227.796 622.675 230.73 620.074C236.589 614.881 242.713 606.816 246.127 596.277C250.317 587.036 251.116 577.646 250.302 570.289C249.894 566.602 249.076 563.383 248.047 560.92C247.533 559.69 246.952 558.616 246.32 557.759C245.701 556.92 244.958 556.188 244.084 555.79C243.56 555.551 242.972 555.455 242.367 555.582C241.778 555.707 241.301 556.015 240.928 556.365C240.222 557.028 239.692 558.029 239.256 559.084C238.365 561.237 237.547 564.436 236.646 568.101C236.532 568.562 236.417 569.032 236.3 569.511C234.537 576.71 232.325 585.747 228.583 594Z" fill="#383838" stroke="#383838" stroke-width="3"/>
<path d="M186.682 650.148C184.703 647.455 192.902 635.395 202.277 628.507L202.37 628.439C211.715 621.574 221.053 614.715 223.025 617.399C225.003 620.092 217.878 633.438 208.503 640.326C199.127 647.214 189.528 653.636 186.682 650.148Z" fill="#383838"/>
<path d="M186.682 650.148C184.703 647.455 192.902 635.395 202.277 628.507L202.37 628.439C211.715 621.574 221.053 614.715 223.025 617.399C225.003 620.092 217.878 633.438 208.503 640.326C199.127 647.214 189.528 653.636 186.682 650.148Z" stroke="#383838"/>
<path d="M265.733 405.066C261.16 394.487 259.512 383.7 260.66 374.751C261.799 365.865 265.801 358.306 273.012 355.188C280.224 352.071 288.472 354.336 295.725 359.594C303.03 364.889 309.758 373.481 314.331 384.06C318.904 394.639 320.552 405.427 319.404 414.375C318.264 423.262 314.263 430.821 307.052 433.938C299.84 437.055 291.592 434.791 284.339 429.532C277.034 424.237 270.306 415.646 265.733 405.066Z" fill="#383838" stroke="#383838" stroke-width="5"/>
<path d="M277.053 425.495C272.79 420.276 270.321 415.743 269.366 411.659C268.388 407.48 269.028 403.905 270.704 400.793C272.33 397.774 274.87 395.302 277.496 393.124C278.82 392.026 280.216 390.964 281.576 389.931L281.732 389.813C283.051 388.811 284.337 387.836 285.567 386.831C289.5 383.619 294.757 384.95 299.462 387.422C304.378 390.006 309.909 394.444 315.481 399.645C326.662 410.084 338.548 424.122 346.826 434.257C355.334 444.676 359.802 455.212 360.68 464.442C361.558 473.673 358.832 481.76 352.747 486.73C350.55 488.524 347.737 488.558 345.113 487.911C342.466 487.259 339.515 485.807 336.437 483.889C330.257 480.037 322.973 473.922 315.61 467.006C300.853 453.146 285.374 435.684 277.053 425.495Z" fill="#383838" stroke="#383838" stroke-width="5"/>
<path d="M416.248 523.473C421.743 542.424 422.642 560.891 419.54 575.476C416.463 589.945 409.256 601.258 397.961 604.533C386.666 607.808 374.526 602.104 364.186 591.525C353.763 580.862 344.645 564.777 339.15 545.827C338.687 544.228 338.22 542.625 337.753 541.021C332.81 524.043 327.841 506.978 326.124 493.193C325.185 485.657 325.172 478.802 326.843 473.353C328.562 467.749 332.103 463.567 338.039 461.846C343.733 460.195 350.822 461.049 358.181 463.561C365.6 466.093 373.578 470.405 381.212 476.052C396.446 487.321 410.651 504.168 416.248 523.473Z" fill="#383838" stroke="#383838" stroke-width="5"/>
<path d="M423.558 653.007C423.437 670.578 419.215 686.58 412.358 698.257C405.538 709.869 395.801 717.649 384.582 717.572C373.362 717.495 363.733 709.582 357.074 697.877C350.378 686.107 346.376 670.048 346.497 652.477C346.619 634.747 352.955 615.274 361.765 600.244C366.176 592.719 371.268 586.2 376.622 581.541C381.938 576.914 387.771 573.902 393.611 573.942C399.586 573.983 404.454 577.2 408.28 582.076C412.08 586.919 415.026 593.591 417.273 601.145C421.775 616.278 423.678 635.646 423.558 653.007Z" fill="#383838" stroke="#383838" stroke-width="5"/>
<path d="M422.683 728.262L422.734 728.507L422.735 728.756C422.84 746.465 429.002 765.003 434.017 780.091C434.191 780.613 434.363 781.131 434.533 781.644C437.039 789.193 439.242 795.981 439.928 801.069C440.269 803.596 440.293 806.059 439.541 808.095C438.706 810.353 436.982 811.894 434.475 812.415C432.296 812.868 429.697 812.614 426.985 811.968C424.227 811.311 421.135 810.196 417.866 808.725C411.327 805.781 403.894 801.324 396.731 795.922C389.567 790.519 382.604 784.119 377.044 777.26C371.503 770.422 367.238 762.985 365.685 755.511C362.702 741.164 364.068 722.467 367.811 707.054C369.687 699.333 372.191 692.295 375.141 686.953C376.615 684.283 378.242 681.96 380.019 680.181C381.787 678.41 383.826 677.059 386.12 676.582C390.331 675.707 394.432 677.075 398.117 679.699C401.788 682.313 405.235 686.294 408.344 691.102C414.571 700.729 419.751 714.16 422.683 728.262Z" fill="#383838" stroke="#383838" stroke-width="5"/>
<path d="M447.314 807.815C448.193 808.395 449.109 808.998 450.055 809.62C460.092 816.22 473.477 825.023 482.194 833.093C484.594 835.316 486.703 837.538 488.311 839.697C489.897 841.826 491.127 844.066 491.54 846.313C491.977 848.692 491.476 851.036 489.722 852.979C488.214 854.649 485.951 855.833 483.116 856.666C482.1 857.656 480.776 858.056 479.467 858.076C477.957 858.1 476.332 857.638 474.749 856.996C471.554 855.7 467.614 853.281 463.335 850.378C459.575 847.828 455.418 844.81 451.106 841.679C450.472 841.219 449.835 840.757 449.196 840.293C444.184 836.659 438.991 832.928 433.89 829.562C423.211 822.515 414.145 811.942 408.243 802.395C405.29 797.618 403.071 793.005 401.844 789.12C401.231 787.183 400.839 785.342 400.76 783.705C400.683 782.117 400.886 780.411 401.799 779.026C402.834 777.458 404.435 776.802 406.127 776.902C407.6 776.988 409.09 777.633 410.452 778.403C413.218 779.966 416.599 782.731 420.295 785.919C421.69 787.123 423.147 788.401 424.659 789.728C431.323 795.578 439.058 802.367 447.314 807.815Z" fill="#383838" stroke="#383838" stroke-width="5"/>
<path d="M507.201 855.478C513.382 863.194 516.806 870.756 517.901 877.135C518.971 883.374 517.871 889.11 514.028 892.188C512.089 893.741 509.859 894.333 507.467 893.947C505.209 893.582 502.981 892.375 500.793 890.721C496.428 887.42 491.371 881.67 485.409 874.227C479.447 866.784 473.083 858.679 468.917 851.845C466.848 848.448 465.204 845.182 464.483 842.358C463.785 839.627 463.751 836.385 466.341 834.31C468.641 832.468 471.898 832.461 474.911 833.07C478.066 833.708 481.68 835.163 485.384 837.179C492.8 841.217 501.003 847.74 507.201 855.478Z" fill="#383838" stroke="#383838" stroke-width="5"/>
<path d="M208.281 387.158C175.821 418.781 119.091 429.828 99.3022 409.515C79.5131 389.202 111.548 332.959 144.008 301.336C176.468 269.713 218.279 263.932 238.068 284.245C257.857 304.558 240.741 355.535 208.281 387.158Z" fill="#424242"/>
<path d="M631 63.9998C668.117 109.527 619.122 243.541 474.5 294C360.64 386.826 321.742 419.701 284.625 374.174C247.509 328.647 239.239 306.398 367.529 172.662C462.536 92.7831 581.983 51.8966 631 63.9998Z" fill="#9E9E9E" fill-opacity="0.8"/>
<path d="M635.71 257.832C649.286 283.4 600.727 349.865 511.866 367.878C433.525 409.473 406.578 424.284 393.003 398.716C379.427 373.148 378.314 361.202 471.183 299.287C536.935 263.328 610.203 248.859 635.71 257.832Z" fill="#9E9E9E" fill-opacity="0.8"/>
<path d="M475 420C447.339 479.295 318.556 505.872 252.888 475.238C187.22 444.604 171.024 361.499 198.685 302.204C226.346 242.909 286.521 223.515 352.188 254.148C417.856 284.782 502.661 360.705 475 420Z" fill="url(#paint0_linear_146_82)"/>
<path d="M662.004 604.865C625.069 666.566 542.419 628.995 456.889 577.796C371.359 526.597 294.565 420.201 331.5 358.5C368.435 296.799 486.999 297.89 572.529 349.089C658.059 400.288 698.939 543.164 662.004 604.865Z" fill="url(#paint1_linear_146_82)"/>
<path d="M637.001 82.804C674.117 128.331 625.123 262.345 480.501 312.804C366.64 405.63 327.742 438.505 290.626 392.978C253.509 347.451 245.24 325.202 373.53 191.466C468.537 111.587 587.984 70.7008 637.001 82.804Z" fill="url(#paint2_linear_146_82)" fill-opacity="0.9"/>
<path d="M641.711 276.636C655.286 302.204 606.728 368.67 517.867 386.682C439.526 428.277 412.579 443.088 399.003 417.52C385.428 391.952 384.314 380.006 477.184 318.092C542.936 282.133 616.203 267.663 641.711 276.636Z" fill="url(#paint3_linear_146_82)" fill-opacity="0.9"/>
<path d="M159.922 291.24C157.291 292.758 149.627 284.398 142.805 272.567C135.982 260.737 133.82 249.668 136.451 248.151C139.083 246.633 145.511 255.241 152.334 267.072C159.156 278.902 162.554 289.723 159.922 291.24Z" fill="#424242"/>
<path d="M149.922 304.24C147.291 305.758 138.733 295.847 130.808 282.105C122.883 268.362 119.82 256.168 122.451 254.651C125.083 253.133 132.412 262.867 140.337 276.61C148.262 290.352 152.554 302.723 149.922 304.24Z" fill="#424242"/>
<path d="M1.45135 284.651C-3.04865 280.651 26.3939 273.613 61.6709 266.036C96.9479 258.459 123.813 252.181 124.451 255.151C125.951 260.151 99.2284 267.074 63.9514 274.651C28.6743 282.228 2.95135 289.151 1.45135 284.651Z" fill="#424242"/>
<path d="M137.951 248.651C137.951 252.188 125.951 250.651 104.451 251.651C83.7732 251.794 64.9513 252.651 63.4731 249.308C61.9948 245.966 80.7732 247.294 101.451 247.151C122.129 247.008 137.939 246.917 137.951 248.651Z" fill="#424242"/>
<defs>
<linearGradient id="paint0_linear_146_82" x1="-60.0787" y1="872.626" x2="204.875" y2="1000.32" gradientUnits="userSpaceOnUse">
<stop stop-color="#D9D9D9"/>
<stop offset="0.133354" stop-color="#D9D9D9"/>
<stop offset="0.169178" stop-color="#494848"/>
<stop offset="0.853015" stop-color="#4B4B4B"/>
</linearGradient>
<linearGradient id="paint1_linear_146_82" x1="8.93377" y1="915.044" x2="350.251" y2="1127" gradientUnits="userSpaceOnUse">
<stop offset="0.171506" stop-color="#4B4B4B"/>
<stop offset="0.286595" stop-color="#676666"/>
<stop offset="0.288644" stop-color="#D0D0D0"/>
<stop offset="0.442832" stop-color="#B7B6B6"/>
<stop offset="0.444198" stop-color="#7D7D7D"/>
<stop offset="0.791819" stop-color="#494848"/>
<stop offset="0.804222" stop-color="#D9D9D9"/>
<stop offset="1" stop-color="#D9D9D9"/>
</linearGradient>
<linearGradient id="paint2_linear_146_82" x1="219.699" y1="394.466" x2="440.371" y2="0.500292" gradientUnits="userSpaceOnUse">
<stop stop-color="#666666" stop-opacity="0"/>
<stop offset="0.189263" stop-color="#5F5F5F" stop-opacity="0.0659436"/>
<stop offset="0.316507" stop-color="#9E9E9E" stop-opacity="0.975988"/>
<stop offset="1" stop-color="#9E9E9E"/>
</linearGradient>
<linearGradient id="paint3_linear_146_82" x1="359.095" y1="414.346" x2="514.962" y2="201.434" gradientUnits="userSpaceOnUse">
<stop stop-color="#666666" stop-opacity="0"/>
<stop offset="0.189263" stop-color="#5F5F5F" stop-opacity="0.0659436"/>
<stop offset="0.316507" stop-color="#9E9E9E" stop-opacity="0.975988"/>
<stop offset="1" stop-color="#9E9E9E"/>
</linearGradient>
</defs>
</svg>
