<svg width="1431" height="948" viewBox="0 0 1431 948" fill="none" xmlns="http://www.w3.org/2000/svg">
<path d="M502.5 25C396.9 25 135.833 37.3333 26.4999 43.5V485V903C7.49994 910 443.5 921.2 509.5 922C575.5 922.8 674.333 909.667 715.5 903V43.5C699.5 29.5 608.1 25 502.5 25Z" fill="#262626" stroke="#5C5C5C" stroke-width="50"/>
<path d="M929 25C1034.6 25 1295.67 37.3333 1405 43.5V485V903C1424 910 988 921.2 922 922C856 922.8 757.167 909.667 716 903V43.5C732 29.5 823.4 25 929 25Z" fill="#262626" stroke="#5C5C5C" stroke-width="50"/>
<g opacity="0.5">
<ellipse cx="20.599" cy="11.7753" rx="20.599" ry="11.7753" transform="matrix(-0.688356 -0.725373 -0.697426 0.716657 1080.59 466.26)" fill="#C7C6C6"/>
<path d="M1055.81 457.488C1052.62 463.483 1047.37 468.98 1058.65 475.769C1069.93 482.559 1099.56 498.208 1102.74 492.213C1105.93 486.218 1102.05 476.65 1090.77 469.861C1079.5 463.071 1058.99 451.493 1055.81 457.488Z" fill="#C7C6C6"/>
<path d="M1145.52 540.311C1151.21 535.819 1146.22 519.244 1134.38 503.29C1122.53 487.337 1100.93 478.522 1095.23 483.014C1089.54 487.507 1101.91 503.605 1113.76 519.559C1125.6 535.512 1139.82 544.803 1145.52 540.311Z" fill="#C7C6C6"/>
<path d="M1160.81 596.666C1167.32 594.19 1167.48 578.776 1161.18 562.239C1154.87 545.701 1144.55 526.563 1138.04 529.039C1131.53 531.515 1131.3 554.667 1137.6 571.205C1143.91 587.743 1154.3 599.142 1160.81 596.666Z" fill="#C7C6C6"/>
<path d="M1197.26 635.846C1200.72 633.545 1183.66 616.896 1175.43 599.668C1167.65 587.387 1157.82 577.169 1154.36 579.47C1150.9 581.771 1157.41 603.486 1165.19 615.766C1172.98 628.047 1193.8 638.147 1197.26 635.846Z" fill="#C7C6C6"/>
<path d="M1230.84 646.334C1240.49 639.12 1218.19 634.172 1206.3 631.29C1194.42 628.409 1182.4 621.012 1181.73 624.571C1181.05 628.131 1192.85 638.712 1204.73 641.593C1216.62 644.475 1230.16 649.894 1230.84 646.334Z" fill="#C7C6C6"/>
<path d="M1251.45 658.054C1253.16 654.923 1250.2 648.462 1242 643.418C1233.79 638.374 1222.88 636.917 1221.18 640.048C1219.48 643.179 1228.58 649.016 1236.79 654.06C1244.99 659.104 1249.75 661.184 1251.45 658.054Z" fill="#C7C6C6"/>
<path d="M942.346 407.222C928.62 436.645 893.412 458.44 874.999 449.85C856.587 441.261 863.781 395.449 877.507 366.026C891.233 336.603 917.78 322.121 936.193 330.711C954.606 339.3 956.072 377.798 942.346 407.222Z" fill="#D9D9D9"/>
<path d="M1087.78 442.328C1072.42 475.253 1016.9 484.592 976.931 465.945C936.958 447.298 925.553 400.026 940.913 367.101C956.272 334.175 991.929 324.453 1031.9 343.1C1071.87 361.747 1103.14 409.402 1087.78 442.328Z" fill="#D9D9D9"/>
<path d="M1308.81 600.662C1290.15 631.835 1223.42 597.908 1152.62 555.526C1081.82 513.144 1027.21 468.127 1045.87 436.954C1064.53 405.781 1135.2 394.572 1206 436.954C1276.8 479.335 1327.47 569.489 1308.81 600.662Z" fill="url(#paint0_linear_165_51)"/>
<path d="M1263.8 186.616C1288.4 216.784 1218.95 268.26 1143.5 329.77C1068.06 391.281 1047 431.315 1022.41 401.147C997.81 370.979 992.331 356.236 1077.34 267.616C1140.3 214.686 1231.32 178.596 1263.8 186.616Z" fill="#D9D9D9" fill-opacity="0.8"/>
<path d="M1272.61 167.156C1299.2 199.773 1224.12 255.429 1142.54 321.934C1060.97 388.439 1038.2 431.724 1011.61 399.106C985.015 366.489 979.091 350.549 1071 254.734C1139.07 197.505 1237.49 158.484 1272.61 167.156Z" fill="#D9D9D9" fill-opacity="0.8"/>
<path d="M1039.44 399.527C1044.21 403.321 1035.62 413.024 1027.7 422.991C1019.77 432.957 1008.97 436.684 1004.19 432.89C999.422 429.095 1004.66 420.856 1012.59 410.89C1020.52 400.923 1034.67 395.732 1039.44 399.527Z" fill="#D9D9D9"/>
<path d="M1013.81 428.223C1014.84 434.231 1002.14 439.416 989.591 441.578C977.042 443.74 964.6 445.935 963.564 439.927C962.529 433.92 971.013 424.523 983.562 422.361C996.111 420.199 1012.77 422.216 1013.81 428.223Z" fill="#D9D9D9"/>
<path d="M940.021 491.635C934.796 488.494 936.708 471.495 945.864 456.259C955.02 441.024 968.501 431.269 973.726 434.409C978.951 437.549 971.42 450.643 962.264 465.878C953.108 481.114 945.247 494.775 940.021 491.635Z" fill="#D9D9D9"/>
<path d="M917.082 537.71C911.407 535.483 919.692 520.371 926.183 503.823C932.674 487.275 939.492 474.352 945.167 476.578C950.843 478.804 948.495 495.92 942.004 512.468C935.513 529.016 922.758 539.936 917.082 537.71Z" fill="#D9D9D9"/>
<path d="M889.582 556.181C887.39 553.51 897.077 546.845 907.862 540.823C918.801 531.846 926.259 518.257 928.451 520.928C930.643 523.599 928.029 537.164 917.09 546.141C906.325 557.292 891.774 558.852 889.582 556.181Z" fill="#D9D9D9"/>
<path d="M871.613 561.205C871.19 558.848 877.719 554.136 883.766 553.051C889.812 551.966 895.872 550.871 896.295 553.228C896.718 555.584 890.454 561.467 884.407 562.551C878.361 563.636 872.3 564.354 871.613 561.205Z" fill="#D9D9D9"/>
<path d="M1028.29 372.326C1034.25 373.631 1030.81 386.126 1028.08 398.564C1025.36 411.003 1017.3 419.109 1011.34 417.804C1005.39 416.499 1006.46 406.793 1009.19 394.355C1011.92 381.916 1022.34 371.021 1028.29 372.326Z" fill="#D9D9D9"/>
<path d="M1017.92 409.38C1021.49 414.318 1012.37 424.568 1002.06 432.036C991.744 439.504 981.54 446.955 977.965 442.018C974.389 437.08 977.867 424.907 988.181 417.439C998.495 409.971 1014.34 404.442 1017.92 409.38Z" fill="#D9D9D9"/>
<path d="M979.602 498.809C973.528 498.291 967.756 482.187 969.266 464.476C970.776 446.765 978.582 432.07 984.657 432.587C990.731 433.105 989.737 448.177 988.227 465.888C986.717 483.599 985.677 499.326 979.602 498.809Z" fill="#D9D9D9"/>
<path d="M979.301 550.277C973.226 550.778 974.007 533.561 972.546 515.846C971.086 498.131 971.514 483.526 977.59 483.025C983.666 482.524 989.097 498.924 990.558 516.64C992.019 534.355 985.377 549.776 979.301 550.277Z" fill="#D9D9D9"/>
<path d="M962.748 578.973C959.604 577.54 965.364 567.29 972.395 557.133C978.261 544.256 978.972 528.771 982.116 530.203C985.261 531.636 988.888 544.966 983.022 557.844C978.268 572.596 965.893 580.405 962.748 578.973Z" fill="#D9D9D9"/>
<path d="M948.828 591.397C947.41 589.468 951.197 582.361 956.147 578.725C961.098 575.088 966.056 571.435 967.474 573.365C968.891 575.294 965.859 583.334 960.908 586.971C955.958 590.608 950.833 593.922 948.828 591.397Z" fill="#D9D9D9"/>
<ellipse cx="23.0565" cy="13.6823" rx="23.0565" ry="13.6823" transform="matrix(-0.396767 -0.917919 -0.917919 0.396767 1061.34 502.925)" fill="#D9D9D9"/>
<path d="M1037.99 483.881C1031.96 488.803 1023.89 492.38 1033.33 503.942C1042.78 515.503 1068.5 543.611 1074.53 538.689C1080.56 533.767 1080.39 522.31 1070.95 510.748C1061.51 499.186 1044.02 478.959 1037.99 483.881Z" fill="#D9D9D9"/>
<path d="M1100.84 605.662C1108.97 603.304 1110.57 584.149 1104.4 562.877C1098.23 541.605 1078.36 523.794 1070.23 526.152C1062.1 528.509 1068.78 550.143 1074.95 571.415C1081.12 592.687 1092.71 608.02 1100.84 605.662Z" fill="#D9D9D9"/>
<path d="M1093.61 670.124C1101.78 670.18 1108.51 654.298 1108.64 634.65C1108.78 615.002 1105.62 591.046 1097.46 590.99C1089.29 590.934 1079.21 614.799 1079.07 634.447C1078.94 654.095 1085.45 670.068 1093.61 670.124Z" fill="#D9D9D9"/>
<path d="M1116.8 725.324C1121.56 724.335 1109.99 700.249 1108.32 679.113C1105.03 663.275 1098.63 648.75 1093.87 649.739C1089.12 650.728 1087 675.812 1090.29 691.651C1093.58 707.49 1112.04 726.314 1116.8 725.324Z" fill="#D9D9D9"/>
<path d="M1149.04 749.683C1162.65 746.101 1140.38 732.011 1128.62 724.25C1116.86 716.488 1106.87 704.002 1104.62 707.413C1102.37 710.824 1110.77 726.518 1122.53 734.28C1134.29 742.041 1146.79 753.094 1149.04 749.683Z" fill="#D9D9D9"/>
<path d="M1166.59 770.102C1169.78 767.547 1169.3 759.675 1162.48 751.155C1155.65 742.635 1144.35 736.74 1141.16 739.295C1137.97 741.85 1145.44 751.552 1152.27 760.072C1159.09 768.591 1163.4 772.657 1166.59 770.102Z" fill="#D9D9D9"/>
<path d="M883.576 375.045C881.691 376.132 876.2 370.143 871.312 361.667C866.424 353.191 864.875 345.261 866.76 344.174C868.646 343.087 873.251 349.254 878.139 357.73C883.027 366.205 885.461 373.958 883.576 375.045Z" fill="#D9D9D9"/>
<path d="M876.412 384.359C874.526 385.446 868.395 378.346 862.717 368.5C857.039 358.654 854.845 349.918 856.73 348.831C858.615 347.743 863.866 354.717 869.544 364.563C875.222 374.409 878.297 383.272 876.412 384.359Z" fill="#D9D9D9"/>
<path d="M770.04 370.324C766.816 367.458 787.91 362.416 813.184 356.988C838.458 351.559 857.706 347.061 858.163 349.189C859.238 352.771 840.092 357.731 814.818 363.16C789.544 368.588 771.115 373.548 770.04 370.324Z" fill="#D9D9D9"/>
<path d="M867.835 344.532C867.835 347.066 859.238 345.965 843.834 346.681C829.019 346.784 815.534 347.398 814.475 345.003C813.416 342.608 826.87 343.56 841.685 343.457C856.499 343.355 867.826 343.29 867.835 344.532Z" fill="#D9D9D9"/>
</g>
<path d="M339.736 520.955L339.736 519.037C339.949 498.689 342.08 482.496 346.128 470.457C350.176 458.419 355.929 448.671 363.386 441.214C370.844 433.756 379.793 426.885 390.233 420.599C396.518 416.764 402.165 412.236 407.172 407.016C412.179 401.69 416.121 395.564 418.997 388.639C421.98 381.714 423.472 374.044 423.472 365.628C423.472 355.187 421.021 346.132 416.121 338.462C411.22 330.791 404.668 324.879 396.465 320.724C388.262 316.569 379.153 314.491 369.139 314.491C360.403 314.491 351.987 316.303 343.891 319.925C335.794 323.547 329.029 329.246 323.596 337.023C318.163 344.8 315.02 354.974 314.168 367.545L273.898 367.545C274.75 349.435 279.438 333.934 287.96 321.043C296.589 308.153 307.935 298.298 321.998 291.48C336.167 284.662 351.881 281.253 369.139 281.253C387.889 281.253 404.189 284.982 418.038 292.439C431.994 299.896 442.754 310.124 450.318 323.121C457.989 336.118 461.824 350.926 461.824 367.545C461.824 379.264 460.013 389.864 456.391 399.346C452.875 408.827 447.761 417.297 441.05 424.754C434.445 432.212 426.455 438.817 417.08 444.57C407.705 450.429 400.194 456.608 394.548 463.107C388.901 469.499 384.8 477.116 382.243 485.958C379.686 494.8 378.301 505.827 378.088 519.037L378.088 520.955L339.736 520.955ZM360.19 615.557C352.307 615.557 345.542 612.734 339.896 607.087C334.249 601.441 331.426 594.676 331.426 586.793C331.426 578.909 334.249 572.144 339.896 566.498C345.542 560.852 352.307 558.028 360.19 558.028C368.074 558.028 374.839 560.852 380.485 566.498C386.131 572.144 388.955 578.909 388.955 586.793C388.955 592.013 387.623 596.807 384.96 601.175C382.403 605.543 378.94 609.058 374.572 611.722C370.311 614.278 365.517 615.557 360.19 615.557Z" fill="#ABABAB"/>
<defs>
<linearGradient id="paint0_linear_165_51" x1="867.87" y1="690.935" x2="1148.5" y2="869.28" gradientUnits="userSpaceOnUse">
<stop stop-color="#D9D9D9"/>
<stop offset="0.285582" stop-color="#D9D9D9"/>
<stop offset="0.291537" stop-color="#494848"/>
<stop offset="0.376571" stop-color="#5F5F5F"/>
<stop offset="0.38021" stop-color="#B7B6B6"/>
<stop offset="0.465228" stop-color="#B7B6B6"/>
<stop offset="0.469786" stop-color="#414141"/>
<stop offset="0.612455" stop-color="#7D7D7D"/>
<stop offset="0.613238" stop-color="#B7B6B6"/>
<stop offset="0.719174" stop-color="#D0D0D0"/>
<stop offset="0.722049" stop-color="#676666"/>
<stop offset="0.828494" stop-color="#4B4B4B"/>
</linearGradient>
</defs>
</svg>
