<svg width="1699" height="1933" viewBox="0 0 1699 1933" fill="none" xmlns="http://www.w3.org/2000/svg">
<path d="M744.001 705H825.001L820.501 982L825.001 1257.5L817.501 1595L825.001 1932.5H707.501L761.001 1251.5L752.501 978.25L744.001 705Z" fill="#D9D9D9"/>
<path d="M1090.5 625L1086.5 642L1090.5 725L1052 800.5L1024 831.5L1007.5 836L977.001 852L966.501 861.5L936.501 881L905.001 912L886.501 929L865.001 953L842.001 989.5L827.501 1019L818.001 1040L785.501 1089.5L803.501 1115.5L824.501 1089.5L851.501 1040.5L854.501 1034L872.001 991L893.501 959L925.001 924L960.501 895.5L973.501 886.5L980.001 881L992.001 874L1001.5 870L1010.5 865L1026 858.5L1052 853L1074.5 855L1102.5 870L1126.5 880L1181.5 898H1192L1207.5 906.5L1249 927L1268.5 935.5L1281.5 949L1298.5 960.5L1332 979L1375.5 997L1399 1011.5L1452.5 1040L1481 1052L1507 1072C1507 1072 1527.5 1091 1533 1096C1538.5 1101 1555.5 1107.5 1555.5 1107.5C1555.5 1107.5 1577.5 1120 1584.5 1122.5C1591.5 1125 1605.5 1124.5 1612.5 1126C1619.5 1127.5 1624.5 1125 1632.5 1126C1640.5 1127 1644.5 1129 1655 1129C1665.5 1129 1694.5 1134 1697.5 1129C1700.5 1124 1697.5 1104 1697.5 1104V1090C1697.5 1082 1694.5 1067.5 1691.5 1061C1688.5 1054.5 1676 1042.5 1676 1042.5C1676 1042.5 1662.5 1023.5 1658.5 1017.5C1654.5 1011.5 1651.5 993.5 1648.5 987C1645.5 980.5 1639.5 972 1639.5 972L1632.5 960.5L1625.5 953.5L1629.5 945L1622.5 939.5L1615.5 935.5V932L1617 927L1612.5 923L1622.5 909.5H1618.5L1613.5 908.5L1605.5 906.5L1598 904L1589.5 900.5L1584.5 898L1577 894L1571 890.5L1567.5 888L1570 882.5L1566 880L1561 877L1554.5 875.5L1548.5 874.5L1542.5 873.5L1545.5 870L1548.5 866L1551 862L1552.5 859L1555.5 855H1561L1564 853L1561 850L1554.5 847L1549.5 845.5L1540.5 843.5L1535.5 842.5L1526.5 840L1528.5 835.5L1531.5 830L1535.5 825.5L1538 822L1533 820.5L1522.5 817L1514.5 815.5L1507 814L1499.5 812.5L1491.5 810L1481 807.5L1475 804V800.5V796.5L1477 791L1479.5 788L1474 785L1466.5 783.5L1459 780.5L1452 777L1445 775.5L1440 773.5L1442 769L1445 763L1449 753.5V744.5V741.5L1446 740.5L1442 743.5L1437.5 744.5H1427.5H1421.5L1416 740.5L1411.5 736.5L1407.5 734L1404 731L1406.5 725L1409 719L1413 709.5L1415 704.5L1420 699.5L1422.5 697L1424 694H1418L1409 693L1398.5 691.5L1388.5 688.5L1378.5 687.5L1371 685.5L1362 683L1352.5 679.5H1345.5L1334 678.5V673.5L1333 668.5V663.5V658H1323H1314L1302.5 657L1295 655.5L1300.5 644L1303.5 633.5L1305 619V609V603.5L1306 602.5L1308 599.5L1302.5 598.5L1296 599.5L1286 601.5H1275.5L1262.5 602.5L1254 605.5L1246.5 608L1239.5 610V608L1242.5 605.5V602.5H1239.5L1230 605.5L1222.5 610L1214 614L1204 619L1212.5 605.5L1214 598.5V594L1210 595.5L1193 605.5L1184 612L1172.5 617.5C1172.5 617.5 1164 620.5 1161 619C1158 617.5 1145.5 629 1145.5 629V617.5H1139.5L1131 630.5V621L1111 623.5L1102.5 630.5L1100 625H1090.5Z" fill="url(#paint0_linear_161_52)"/>
<path d="M424.324 879.826L431.765 886.724L452.016 929.388L499.235 952.107L526.955 956.779L539.477 952.709L564.752 948.993L574.558 949.692L600.46 947.901L630.572 951.237L647.923 952.599L669.262 956.284L695.088 965.592L713.167 974.676L725.474 981.456L761.392 993.58L756.291 1013.34L734.74 1008.47L702.719 994.496L698.868 992.42L675.001 977.79L651.447 970.14L620.227 964.822L588.074 964.252L576.697 964.755L570.732 964.511L560.593 965.624L552.993 967.269L545.457 968.228L533.065 970.925L513.773 978.127L498.95 987.709L483.969 1005.84L470.336 1019.96L437.733 1049.88L430.557 1053.89L422.318 1064.02L399.634 1090.03L388.661 1101.68L383.515 1113.34L375.082 1125.53L357.311 1147.49L332.567 1173.02L320.523 1189.18L291.852 1223.74L275.698 1240.57L263.468 1260.41C263.468 1260.41 254.72 1277.65 252.346 1282.23C249.972 1286.81 240.154 1296.52 240.154 1296.52C240.154 1296.52 228.58 1311.12 224.489 1315.03C220.397 1318.94 210.691 1324.04 206.322 1327.45C201.954 1330.87 197.845 1331.54 192.654 1335.09C187.464 1338.64 185.284 1341.16 178.108 1345.17C170.933 1349.18 152.498 1362.73 149.064 1361.4C145.629 1360.06 142.141 1349.01 142.141 1349.01L138.264 1342.07C136.048 1338.1 134.083 1329.77 134.333 1325.4C134.584 1321.04 139.803 1310.32 139.803 1310.32C139.803 1310.32 143.768 1295.74 144.84 1291.24C145.912 1286.74 142.978 1276.68 143.228 1272.31C143.478 1267.94 145.225 1261.44 145.225 1261.44L146.824 1253.07L149.67 1246.92L144.582 1244.24L147.843 1238.84L151.519 1234.18L150.55 1232.45L148.14 1230.54L150.108 1226.84L139.535 1223.97L142.269 1222.44L145.409 1220.04L150.322 1215.99L154.756 1211.89L159.595 1206.91L162.32 1203.76L166.338 1198.91L169.469 1194.89L171.169 1192.31L167.937 1190.54L169.979 1187.78L172.565 1184.38L176.592 1181.15L180.415 1178.37L184.239 1175.58L181.219 1174.99L178.061 1174.15L175.245 1173.13L173.389 1172.21L170.231 1171.38L166.473 1173.48L163.869 1173.63L165.088 1171L168.699 1167.03L171.701 1164.38L177.298 1159.95L180.438 1157.54L185.896 1152.87L183.283 1151.4L179.71 1149.82L175.73 1149.12L173.053 1148.34L176.054 1145.69L182.261 1139.94L187.313 1136.14L192.023 1132.54L196.733 1128.93L201.508 1124.63L207.992 1119.39L211.123 1115.36L210.154 1113.63L209.046 1111.64L206.156 1109.68L203.617 1109.15L206.545 1105.56L211.255 1101.95L215.55 1097.6L219.364 1093.2L223.733 1089.78L226.596 1086.88L223.983 1085.41L220.271 1083.59L214.907 1080.4L212.415 1075.94L211.584 1074.46L213.357 1072.82L216.922 1072.77L220.274 1071.55L227.108 1067.73L231.208 1065.44L233.859 1061.36L235.827 1057.66L237.868 1054.89L239.43 1052.07L236.06 1050.05L232.69 1048.03L227.325 1044.85L224.574 1043.14L219.772 1042.57L217.371 1042.28L215.515 1041.37L219.616 1039.08L225.49 1035.15L232.25 1030.39L238.253 1025.09L244.81 1020.77L249.382 1016.92L254.841 1012.24L260.364 1006.88L265.148 1004.21L272.73 999.321L271.345 996.843L270.644 993.983L269.259 991.504L267.736 988.779L274.57 984.96L280.721 981.524L288.303 976.637L293.014 973.029L286.07 969.43L281.112 965.372L276.072 958.758L273.303 953.802L271.78 951.076L270.819 950.962L268.622 950.239L272.104 947.643L276.823 945.657L284.211 942.829L291.386 938.82L300.548 934.352L307.187 932.593L313.005 930.968L318.343 929.287L317.789 928.295L315.046 928.202L314.216 926.715L316.266 925.569L323.589 923.429L329.961 922.795L336.877 921.532L345.096 920.192L335.549 916.747L332.585 913.85L331.339 911.62L334.488 910.836L348.875 909.301L356.826 909.086L366.208 907.42C366.208 907.42 372.848 905.661 374.483 903.772C376.117 901.884 387.845 902.81 387.845 902.81L384.66 897.11L388.76 894.819L398.169 898.017L395.539 893.308L409.899 886.911L417.646 887.134L417.832 883.454L424.324 879.826Z" fill="url(#paint1_linear_161_52)"/>
<path d="M1041.77 1031.6L1038.64 1041.25L1041.77 1088.37L1011.63 1131.24L989.709 1148.84L976.792 1151.39L952.916 1160.48L944.696 1165.87L921.21 1176.94L896.551 1194.54L882.068 1204.19L865.237 1217.82L847.231 1238.54L835.88 1255.29L828.443 1267.21L803 1295.31L817.092 1310.07L833.532 1295.31L854.668 1267.49L857.017 1263.8L870.717 1239.39L887.548 1221.22L912.208 1201.35L939.999 1185.17L950.176 1180.06L955.264 1176.94L964.658 1172.97L972.095 1170.69L979.141 1167.86L991.275 1164.17L1011.63 1161.04L1029.24 1162.18L1051.16 1170.69L1069.95 1176.37L1113.01 1186.59H1121.23L1133.36 1191.42L1165.85 1203.06L1181.12 1207.88L1191.29 1215.55L1204.6 1222.08L1230.83 1232.58L1264.88 1242.8L1283.28 1251.03L1325.16 1267.21L1347.47 1274.02L1367.82 1285.38C1367.82 1285.38 1383.87 1296.16 1388.18 1299C1392.48 1301.84 1405.79 1305.53 1405.79 1305.53C1405.79 1305.53 1423.02 1312.63 1428.5 1314.05C1433.97 1315.47 1444.93 1315.18 1450.41 1316.04C1455.89 1316.89 1459.81 1315.47 1466.07 1316.04C1472.33 1316.6 1475.47 1317.74 1483.69 1317.74C1491.91 1317.74 1514.61 1320.58 1516.96 1317.74C1519.31 1314.9 1516.96 1303.55 1516.96 1303.55V1295.6C1516.96 1291.05 1514.61 1282.82 1512.26 1279.13C1509.91 1275.44 1500.13 1268.63 1500.13 1268.63C1500.13 1268.63 1489.56 1257.84 1486.43 1254.44C1483.29 1251.03 1480.95 1240.81 1478.6 1237.12C1476.25 1233.43 1471.55 1228.6 1471.55 1228.6L1466.07 1222.08L1460.59 1218.1L1463.72 1213.28L1458.24 1210.15L1452.76 1207.88V1205.89L1453.94 1203.06L1450.41 1200.78L1458.24 1193.12H1455.11L1451.2 1192.55L1444.93 1191.42L1439.06 1190L1432.41 1188.01L1428.5 1186.59L1422.62 1184.32L1417.93 1182.33L1415.19 1180.91L1417.14 1177.79L1414.01 1176.37L1410.1 1174.67L1405.01 1173.82L1400.31 1173.25L1395.62 1172.68L1397.96 1170.69L1400.31 1168.42L1402.27 1166.15L1403.44 1164.45L1405.79 1162.18H1410.1L1412.45 1161.04L1410.1 1159.34L1405.01 1157.64L1401.1 1156.79L1394.05 1155.65L1390.14 1155.08L1383.09 1153.66L1384.66 1151.11L1387 1147.99L1390.14 1145.43L1392.09 1143.44L1388.18 1142.59L1379.96 1140.61L1373.7 1139.75L1367.82 1138.9L1361.95 1138.05L1355.69 1136.63L1347.47 1135.21L1342.77 1133.22V1131.24V1128.97L1344.34 1125.84L1346.3 1124.14L1341.99 1122.44L1336.12 1121.59L1330.25 1119.88L1324.77 1117.9L1319.29 1117.04L1315.37 1115.91L1316.94 1113.35L1319.29 1109.95L1322.42 1104.55V1099.44V1097.74L1320.07 1097.17L1316.94 1098.88L1313.42 1099.44H1305.59H1300.89L1296.59 1097.17L1293.06 1094.9L1289.93 1093.48L1287.19 1091.78L1289.15 1088.37L1291.11 1084.97L1294.24 1079.57L1295.8 1076.73L1299.72 1073.9L1301.67 1072.48L1302.85 1070.77H1298.15L1291.11 1070.21L1282.89 1069.35L1275.06 1067.65L1267.23 1067.08L1261.36 1065.95L1254.31 1064.53L1246.87 1062.54H1241.39L1232.39 1061.97V1059.14L1231.61 1056.3V1053.46V1050.34H1223.78H1216.73L1207.73 1049.77L1201.86 1048.92L1206.17 1042.39L1208.52 1036.43L1209.69 1028.19V1022.52V1019.39L1210.47 1018.83L1212.04 1017.12L1207.73 1016.55L1202.64 1017.12L1194.82 1018.26H1186.6L1176.42 1018.83L1169.76 1020.53L1163.89 1021.95L1158.41 1023.08V1021.95L1160.76 1020.53V1018.83H1158.41L1150.98 1020.53L1145.1 1023.08L1138.45 1025.35L1130.62 1028.19L1137.28 1020.53L1138.45 1016.55V1014L1135.32 1014.85L1122.01 1020.53L1114.96 1024.22L1105.96 1027.34C1105.96 1027.34 1099.31 1029.05 1096.96 1028.19C1094.61 1027.34 1084.83 1033.87 1084.83 1033.87V1027.34H1080.13L1073.47 1034.72V1029.33L1057.82 1030.75L1051.16 1034.72L1049.21 1031.6H1041.77Z" fill="url(#paint2_linear_161_52)"/>
<path d="M547.232 1276.6L550.364 1286.25L547.232 1333.37L577.372 1376.24L599.292 1393.84L612.209 1396.39L636.085 1405.48L644.305 1410.87L667.791 1421.94L692.45 1439.54L706.933 1449.19L723.764 1462.82L741.77 1483.54L753.121 1500.29L760.558 1512.21L786 1540.31L771.909 1555.07L755.469 1540.31L734.333 1512.49L731.984 1508.8L718.284 1484.39L701.453 1466.22L676.793 1446.35L649.002 1430.17L638.825 1425.06L633.737 1421.94L624.343 1417.97L616.906 1415.69L609.86 1412.86L597.726 1409.17L577.372 1406.04L559.758 1407.18L537.838 1415.69L519.05 1421.37L475.993 1431.59H467.773L455.639 1436.42L423.151 1448.06L407.885 1452.88L397.708 1460.55L384.4 1467.07L358.175 1477.58L324.121 1487.8L305.724 1496.03L263.842 1512.21L241.531 1519.02L221.177 1530.38C221.177 1530.38 205.128 1541.16 200.823 1544C196.517 1546.84 183.208 1550.53 183.208 1550.53C183.208 1550.53 165.986 1557.63 160.506 1559.05C155.026 1560.47 144.066 1560.18 138.586 1561.04C133.106 1561.89 129.192 1560.47 122.929 1561.04C116.667 1561.6 113.535 1562.74 105.315 1562.74C97.0953 1562.74 74.3928 1565.58 72.0443 1562.74C69.6957 1559.9 72.0443 1548.54 72.0443 1548.54V1540.6C72.0443 1536.05 74.3928 1527.82 76.7413 1524.13C79.0898 1520.44 88.8755 1513.63 88.8755 1513.63C88.8755 1513.63 99.4439 1502.84 102.575 1499.44C105.707 1496.03 108.055 1485.81 110.404 1482.12C112.752 1478.43 117.449 1473.6 117.449 1473.6L122.929 1467.07L128.409 1463.1L125.278 1458.28L130.758 1455.15L136.238 1452.88V1450.89L135.063 1448.06L138.586 1445.78L130.758 1438.12H133.889L137.803 1437.55L144.066 1436.42L149.938 1435L156.592 1433.01L160.506 1431.59L166.377 1429.32L171.074 1427.33L173.814 1425.91L171.857 1422.79L174.989 1421.37L178.903 1419.67L183.991 1418.82L188.688 1418.25L193.385 1417.68L191.037 1415.69L188.688 1413.42L186.731 1411.15L185.557 1409.45L183.208 1407.18H178.903L176.554 1406.04L178.903 1404.34L183.991 1402.64L187.906 1401.79L194.951 1400.65L198.865 1400.08L205.911 1398.66L204.345 1396.11L201.997 1392.99L198.865 1390.43L196.908 1388.44L200.823 1387.59L209.042 1385.6L215.305 1384.75L221.177 1383.9L227.048 1383.05L233.311 1381.63L241.531 1380.21L246.228 1378.22V1376.24V1373.97L244.662 1370.84L242.705 1369.14L247.01 1367.44L252.882 1366.59L258.753 1364.88L264.233 1362.9L269.713 1362.04L273.627 1360.91L272.062 1358.35L269.713 1354.95L266.582 1349.55V1344.44V1342.74L268.93 1342.17L272.062 1343.88L275.584 1344.44H283.413H288.11L292.416 1342.17L295.938 1339.9L299.07 1338.48L301.81 1336.78L299.853 1333.37L297.896 1329.97L294.764 1324.57L293.198 1321.73L289.284 1318.9L287.327 1317.48L286.153 1315.77H290.85L297.896 1315.21L306.115 1314.35L313.944 1312.65L321.772 1312.08L327.644 1310.95L334.689 1309.53L342.126 1307.54H347.606L356.609 1306.97V1304.13L357.392 1301.3V1298.46V1295.34H365.22H372.266L381.269 1294.77L387.14 1293.92L382.834 1287.39L380.486 1281.43L379.312 1273.19V1267.52V1264.39L378.529 1263.83L376.963 1262.12L381.269 1261.55L386.357 1262.12L394.186 1263.26H402.406L412.583 1263.83L419.237 1265.53L425.108 1266.95L430.588 1268.08V1266.95L428.24 1265.53V1263.83H430.588L438.025 1265.53L443.896 1268.08L450.551 1270.35L458.379 1273.19L451.725 1265.53L450.551 1261.55V1259L453.682 1259.85L466.99 1265.53L474.036 1269.22L483.039 1272.34C483.039 1272.34 489.693 1274.04 492.042 1273.19C494.39 1272.34 504.176 1278.87 504.176 1278.87V1272.34H508.873L515.527 1279.72V1274.33L531.184 1275.75L537.838 1279.72L539.795 1276.6H547.232Z" fill="url(#paint3_linear_161_52)"/>
<path d="M1068.05 1187.39L1064.2 1189.2L1051.13 1203.9L1028.96 1206.73L1016.88 1204.84L1012.1 1201.46L1001.95 1196.47L997.787 1195.41L987.172 1191.13L974.244 1188.36L966.856 1186.54L957.552 1185.13L945.765 1185.4L937.237 1186.64L931.366 1187.73L915.063 1187.77L915.05 1196.56L924.571 1197.52L939.449 1196.19L941.28 1195.87L952.826 1193.15L963.485 1193.24L977.089 1195.35L990.569 1199.52L995.262 1201.29L997.777 1202L1001.89 1203.85L1004.88 1205.57L1007.92 1206.99L1012.8 1209.8L1020.07 1215.39L1025.22 1221.35L1029.51 1230.83L1033.66 1238.48L1044.03 1255.2L1046.59 1257.83L1048.93 1263.11L1055.58 1276.87L1058.89 1283.15L1059.78 1288.63L1061.97 1294.78L1067.01 1306.21L1074.57 1320.06L1077.84 1328.33L1086.06 1346.41L1090.98 1355.52L1093.93 1365.32C1093.93 1365.32 1095.72 1373.58 1096.21 1375.79C1096.7 1377.99 1099.75 1383.31 1099.75 1383.31C1099.75 1383.31 1103 1390.87 1104.28 1393.04C1105.56 1395.2 1109.06 1398.62 1110.51 1400.62C1111.97 1402.62 1113.61 1403.45 1115.39 1405.62C1117.17 1407.79 1117.81 1409.12 1120.37 1411.74C1122.93 1414.37 1129.15 1422.45 1130.73 1422.37C1132.31 1422.3 1134.96 1418.25 1134.96 1418.25L1137.33 1415.94C1138.69 1414.62 1140.41 1411.47 1140.78 1409.65C1141.15 1407.83 1140.13 1402.72 1140.13 1402.72C1140.13 1402.72 1140.06 1396.21 1140.1 1394.22C1140.14 1392.23 1142.45 1388.51 1142.82 1386.68C1143.19 1384.86 1143.17 1381.96 1143.17 1381.96L1143.41 1378.31L1142.88 1375.4L1145.3 1375L1144.52 1372.34L1143.49 1369.93L1144.09 1369.35L1145.3 1368.9L1144.88 1367.12L1149.6 1367.39L1148.63 1366.39L1147.58 1364.98L1145.96 1362.65L1144.56 1360.36L1143.08 1357.65L1142.28 1355.99L1141.13 1353.45L1140.26 1351.38L1139.83 1350.09L1141.37 1349.81L1140.82 1348.39L1140.11 1346.65L1138.78 1344.77L1137.48 1343.11L1136.19 1341.44L1137.51 1341.62L1138.92 1341.71L1140.21 1341.67L1141.08 1341.55L1142.49 1341.64L1143.83 1343.02L1144.9 1343.44L1144.68 1342.19L1143.6 1340.07L1142.64 1338.57L1140.78 1335.99L1139.73 1334.58L1137.96 1331.91L1139.21 1331.67L1140.87 1331.51L1142.61 1331.77L1143.81 1331.82L1142.85 1330.32L1140.88 1327.12L1139.18 1324.87L1137.61 1322.75L1136.03 1320.62L1134.5 1318.21L1132.37 1315.17L1131.5 1313.09L1132.09 1312.52L1132.77 1311.86L1134.19 1311.45L1135.3 1311.58L1134.47 1309.71L1132.89 1307.58L1131.57 1305.21L1130.46 1302.89L1129.01 1300.89L1128.13 1299.31L1129.38 1299.06L1131.12 1298.82L1133.71 1298.26L1135.23 1296.77L1135.74 1296.28L1135.18 1295.36L1133.69 1294.86L1132.43 1293.9L1129.99 1291.4L1128.53 1289.89L1127.86 1287.86L1127.44 1286.07L1126.89 1284.66L1126.54 1283.29L1128.17 1282.93L1129.79 1282.56L1132.38 1281.99L1133.71 1281.67L1135.78 1282.09L1136.81 1282.31L1137.68 1282.19L1136.22 1280.69L1134.2 1278.27L1131.89 1275.4L1129.96 1272.4L1127.69 1269.73L1126.2 1267.53L1124.43 1264.87L1122.71 1261.91L1121 1260.16L1118.36 1257.12L1119.21 1256.3L1119.81 1255.22L1120.66 1254.39L1121.59 1253.49L1119.15 1250.99L1116.96 1248.74L1114.32 1245.69L1112.75 1243.57L1116.04 1243.05L1118.55 1242.07L1121.37 1240.05L1123.06 1238.4L1123.99 1237.49L1124.4 1237.58L1125.4 1237.58L1124.23 1236.04L1122.47 1234.58L1119.7 1232.41L1117.14 1229.78L1113.8 1226.7L1111.22 1225.07L1108.96 1223.6L1106.92 1222.18L1107.26 1221.85L1108.41 1222.19L1108.92 1221.7L1108.19 1220.94L1105.36 1219.06L1102.77 1217.93L1100.02 1216.47L1096.74 1214.79L1101.1 1214.69L1102.65 1213.91L1103.41 1213.16L1102.18 1212.41L1096.34 1209.81L1093.05 1208.63L1089.31 1206.66C1089.31 1206.66 1086.73 1205.03 1086.26 1204.04C1085.78 1203.04 1080.78 1201.81 1080.78 1201.81L1082.73 1199.91L1081.27 1198.41L1077 1198.43L1078.6 1196.86L1073.3 1192.27L1070.05 1191.3L1070.37 1189.77L1068.05 1187.39Z" fill="url(#paint4_linear_161_52)"/>
<path d="M645.175 1272.74L644.789 1278.13L632.15 1299.17L639.909 1327.8L648.666 1342.3L655.619 1347.21L667.473 1358.3L671.034 1363.18L682.203 1375.09L692.559 1390.38L698.799 1399.04L705.497 1410.22L711.253 1425.05L714.036 1436.11L715.642 1443.8L724.046 1464.21L712.434 1467.03L706.224 1455.42L700.269 1436.39L699.745 1434L697.349 1418.69L691.692 1405.39L681.857 1389.04L669.347 1373.52L664.578 1368.21L662.325 1365.29L657.753 1360.74L653.933 1357.54L650.471 1354.2L644.235 1348.99L633.07 1341.68L622.528 1337.14L607.779 1334.8L595.509 1332.04L568.032 1324.42L563.233 1322.05L555.043 1320.81L533.409 1316.88L523.391 1314.74L515.692 1315.38L506.426 1314.59L488.707 1311.94L466.485 1306.91L453.857 1305.45L425.698 1300.93L411.111 1297.69L396.625 1297.12C396.625 1297.12 384.782 1297.53 381.617 1297.61C378.453 1297.7 369.838 1295.59 369.838 1295.59C369.838 1295.59 358.156 1293.94 354.632 1293.02C351.107 1292.11 344.775 1288.82 341.381 1287.64C337.987 1286.46 336.028 1284.68 332.242 1283.14C328.456 1281.6 326.367 1281.23 321.569 1278.87C316.771 1276.5 302.868 1271.29 302.148 1269.3C301.428 1267.3 305.405 1262.69 305.405 1262.69L307.228 1258.99C308.27 1256.87 311.53 1253.71 313.747 1252.67C315.965 1251.63 323.24 1251.27 323.24 1251.27C323.24 1251.27 331.884 1249.29 334.493 1248.6C337.103 1247.92 340.818 1243.83 343.036 1242.79C345.253 1241.75 349.102 1240.85 349.102 1240.85L353.799 1239.39L357.91 1239.11L357.189 1235.97L361.104 1236.09L364.824 1236.61L365.28 1235.68L365.246 1234.02L367.823 1233.98L365.012 1228.16L366.84 1229.06L369.255 1229.92L373.171 1231.19L376.924 1232.22L381.264 1233.21L383.874 1233.68L387.823 1234.31L391.02 1234.73L392.945 1234.86L392.519 1232.84L394.673 1233.08L397.348 1233.42L400.514 1234.48L403.386 1235.57L406.258 1236.66L405.343 1235.05L404.493 1233.32L403.872 1231.7L403.577 1230.57L402.727 1228.84L400.214 1227.6L399.104 1226.4L400.865 1226.28L404.226 1226.95L406.707 1227.68L411.08 1229.18L413.495 1230.04L417.933 1231.4L417.606 1229.76L416.951 1227.63L415.709 1225.54L415.023 1224.05L417.503 1224.78L422.757 1226.22L426.608 1227.63L430.231 1228.92L433.853 1230.21L437.835 1231.35L442.959 1233.06L446.156 1233.48L446.612 1232.56L447.133 1231.5L446.936 1229.59L446.184 1228.24L449.088 1228.68L452.711 1229.98L456.529 1230.87L460.183 1231.52L463.578 1232.7L466.123 1233.3L465.795 1231.66L465.206 1229.4L464.615 1225.99L465.788 1223.61L466.178 1222.81L467.68 1223.23L469.117 1224.92L471.043 1226.2L475.612 1228.45L478.354 1229.8L481.388 1229.98L483.966 1229.94L486.119 1230.18L488.11 1230.17L487.749 1228.02L487.388 1225.87L486.797 1222.46L486.535 1220.69L484.901 1218.24L484.084 1217.02L483.79 1215.89L486.531 1217.24L490.774 1219L495.768 1220.97L500.728 1222.43L505.428 1224.41L509.116 1225.57L513.554 1226.94L518.351 1228.15L521.55 1229.73L526.936 1232.05L527.587 1230.73L528.695 1229.64L529.346 1228.31L530.063 1226.86L534.632 1229.11L538.745 1231.14L544.13 1233.46L547.753 1234.76L546.738 1230.48L546.735 1227.03L547.938 1222.85L549.24 1220.21L549.957 1218.76L549.63 1218.27L549.107 1217.02L551.75 1218L554.59 1219.73L558.9 1222.51L563.698 1224.87L569.508 1228.06L573.002 1230.77L576.103 1233.12L579.041 1235.22L579.302 1234.7L578.257 1233.36L578.647 1232.57L580.018 1233.24L583.969 1236.17L586.81 1239.05L590.173 1242.02L594.091 1245.6L591.966 1240.11L592.192 1237.93L592.778 1236.74L594.411 1238.03L600.876 1244.5L604.142 1248.25L608.681 1252.29C608.681 1252.29 612.175 1255 613.741 1255.28C615.307 1255.56 619.521 1261.41 619.521 1261.41L621.019 1258.37L623.761 1259.72L625.952 1265.07L627.189 1262.56L636.003 1267.73L638.975 1271.49L640.834 1270.6L645.175 1272.74Z" fill="url(#paint5_linear_161_52)"/>
<path d="M433.97 313.869L408.286 304.358L426.265 315.771L437.181 322.112L448.739 329.722L462.865 337.331L476.349 346.842L502.675 358.89L518.085 366.499L532.211 371.572L551.474 377.279L572.664 382.986L579.727 385.522L585.506 396.936H597.063L604.126 387.424L593.211 380.449L579.727 372.84C572.021 368.824 556.483 360.792 555.969 360.792C555.455 360.792 542.485 353.606 536.064 350.013L505.885 342.404L484.054 334.16L470.57 328.453L448.739 318.942L433.97 313.869Z" fill="#D9D9D9"/>
<path d="M415.992 358.89L403.792 365.865H435.897H462.865H496.896H523.222L546.98 363.329L594.495 361.426H620.821L643.936 367.767L650.357 353.817L640.726 348.744L598.99 345.574H574.59H546.98H525.148H503.317L477.633 348.744H455.16L432.044 353.817L415.992 358.89Z" fill="#D9D9D9"/>
<path d="M494.327 454.005C506.527 457.175 531.569 457.175 531.569 457.175L554.043 454.005L572.663 440.689L573.627 426.104L574.59 411.52C574.59 411.52 568.811 407.081 559.822 405.813C550.832 404.545 544.411 399.472 536.706 396.302C529.001 393.131 521.296 391.863 514.233 390.595C507.169 389.327 489.833 387.424 482.77 385.522C475.707 383.62 457.728 381.718 446.17 381.718C434.612 381.718 435.254 383.62 425.623 381.718C415.992 379.815 413.423 381.718 408.286 381.718C403.15 381.718 384.529 382.986 374.897 385.522C365.266 388.059 342.15 390.595 342.15 390.595L349.213 405.813C349.213 405.813 353.708 412.788 362.055 417.227C370.403 421.666 382.602 426.104 382.602 426.104C382.602 426.104 405.718 436.884 419.202 440.689C432.686 444.493 453.233 447.664 453.233 447.664C453.233 447.664 482.128 450.834 494.327 454.005Z" fill="#D9D9D9"/>
<path d="M1203.2 882.655C1203.85 880.118 1205.77 876.948 1205.77 873.777V866.802L1207.7 852.218C1201.92 845.666 1190.11 832.054 1189.08 830.025C1188.05 827.995 1161.68 809.733 1148.63 800.856L1087.63 799.588C1087.63 799.588 1082.49 808.465 1085.7 814.806C1088.91 821.147 1097.26 826.22 1098.54 830.025C1099.83 833.829 1105.61 843.341 1107.53 846.511C1109.46 849.682 1118.45 856.657 1121.02 861.729C1123.58 866.802 1133.86 881.386 1133.86 881.386C1133.86 881.386 1140.28 892.166 1143.49 894.703C1146.7 897.239 1149.91 897.873 1149.91 897.873C1149.91 897.873 1156.97 901.044 1161.47 901.044H1171.74H1180.09C1180.09 901.044 1189.08 900.409 1192.29 897.873C1195.5 895.337 1197.43 892.166 1197.43 892.166C1197.43 892.166 1202.56 885.191 1203.2 882.655Z" fill="#D9D9D9"/>
<path d="M1236.59 372.206C1236.59 372.206 1253.29 362.061 1254.57 363.963C1255.86 365.865 1254.57 367.133 1254.57 367.133L1251.36 373.474C1251.36 373.474 1252 376.011 1251.36 379.815C1250.72 383.62 1250.72 386.79 1249.44 388.693C1248.15 390.595 1241.73 396.936 1241.73 396.936C1241.73 396.936 1234.67 403.911 1232.74 405.179C1230.81 406.447 1226.32 405.179 1226.32 405.179C1226.32 405.179 1221.18 403.911 1218.61 402.643C1216.05 401.375 1214.12 402.009 1212.19 402.643C1210.27 403.277 1199.99 414.057 1197.43 415.325C1194.86 416.593 1097.26 437.518 1097.26 437.518L1070.29 446.396L1059.37 421.032L1094.69 412.788C1094.69 412.788 1138.35 404.545 1143.49 403.911C1148.63 403.277 1163.39 399.472 1163.39 399.472L1194.86 388.693L1236.59 372.206Z" fill="#D9D9D9"/>
<path d="M983.606 206.707C964.343 232.705 951.853 248.306 938.852 240.435C925.852 232.564 918.413 208.15 935.449 180.709C961.98 151.313 975.901 147.101 999.017 144.565C1006.72 166.758 1000.64 179.266 983.606 206.707Z" fill="#D9D9D9"/>
<path d="M685.031 206.073C715.351 301.283 727.655 349.457 685.031 362.695C642.407 375.932 617.752 345.67 587.432 250.46C552.116 166.125 532.211 114.762 570.863 53.1288C584.221 48.9803 642.01 100.179 685.031 206.073Z" fill="#E9E9E9"/>
<path d="M681.257 340.106C711.577 435.316 723.881 483.489 681.257 496.727C638.633 509.965 613.978 479.703 583.658 384.492C548.342 300.157 528.437 248.795 567.089 187.161C580.447 183.013 638.236 234.211 681.257 340.106Z" fill="#D9D9D9"/>
<path d="M674.836 337.569C705.156 432.78 717.46 480.953 674.836 494.191C632.212 507.429 607.557 477.166 577.237 381.956C541.921 297.621 522.016 246.259 560.668 184.625C574.026 180.477 631.815 231.675 674.836 337.569Z" fill="#D9D9D9"/>
<path d="M602.2 303.089C674.655 372.673 713.039 421.732 681.888 453.366C650.736 485 532.751 389.793 460.296 320.209C443.602 310.698 424.981 247.923 435.896 240.948C436.82 225.73 513.431 230.057 602.2 303.089Z" fill="#D9D9D9"/>
<path d="M807.029 185.147C824.134 312.601 824.574 344.429 794.187 349.379C767.219 330.99 672.189 422.3 683.104 206.707C661.273 136.956 710.072 42.4752 721.63 9.50212C753.093 18.3795 792.903 79.8871 807.029 185.147Z" fill="#E4E4E4"/>
<path d="M897.166 247.261C868.354 372.641 857.567 402.636 827.332 396.849C808.516 370.351 687.276 423.358 773.378 224.947C777.453 152.052 856.458 80.2065 878.898 53.2549C905.276 72.3764 920.961 143.713 897.166 247.261Z" fill="#D9D9D9"/>
<path d="M943.914 286.568C930.465 414.448 923.38 445.501 892.662 443.32C870.777 419.23 756.812 486.15 818.314 279.008C813.548 206.153 883.303 125.508 902.325 96.1033C930.826 111.978 955.022 180.956 943.914 286.568Z" fill="#D9D9D9"/>
<path d="M957.281 277.726C939.302 391.863 941.737 450.844 911.019 448.663C889.134 424.573 775.169 491.493 836.671 284.351C831.904 211.496 893.312 128.948 912.334 99.544C963.702 109.69 973.807 172.807 957.281 277.726Z" fill="#E8E8E8"/>
<path d="M868.914 254.87C840.102 380.25 829.315 410.245 799.08 404.458C780.263 377.961 659.024 430.967 745.126 232.557C749.2 159.661 828.205 87.8158 850.646 60.8641C877.024 79.9857 892.709 151.322 868.914 254.87Z" fill="#D9D9D9"/>
<path d="M1078.64 364.597C1015.71 437.518 971.407 428.641 918.113 442.591C877.324 412.836 969.948 344.621 1026.63 268.848C1054.24 219.389 1110.1 175.002 1143.93 189.564C1164.68 234.607 1135.32 288.824 1078.64 364.597Z" fill="#D9D9D9"/>
<path d="M1038.57 334.986C979.525 383.168 917.556 405.376 900.163 384.588C882.771 363.801 920.062 303.08 979.112 254.898C1036.9 205.438 1078.64 180.074 1113.31 182.611C1130.7 203.398 1097.62 286.804 1038.57 334.986Z" fill="#E8E5E5"/>
<path d="M975.5 363.651C916.451 411.833 854.483 434.041 837.09 413.254C819.697 392.466 856.989 331.746 916.038 283.563C973.827 234.104 1015.56 208.74 1050.24 211.276C1067.63 232.064 1034.55 315.469 975.5 363.651Z" fill="#E0E0E0"/>
<path d="M1084.42 399.472C1015.42 455.771 943.364 491.888 925.971 471.1C908.578 450.313 954.689 382.396 1023.68 326.098C1091.4 268.537 1139.44 238.031 1177.37 237.908C1194.76 258.696 1168.63 296.394 1084.42 399.472Z" fill="#D9D9D9"/>
<path d="M1101.11 425.47C1016.93 455.5 940.299 480.107 931.022 454.745C921.745 429.384 1063.23 333.526 1063.23 333.526C1063.23 333.526 1228.89 286.605 1251.36 320.845C1260.64 346.206 1216.69 369.67 1101.11 425.47Z" fill="#E2E2E2"/>
<path d="M1115.36 522.48C1020.99 541.681 935.105 537.667 929.028 508.537C922.951 479.407 1090.84 429.275 1090.84 429.275C1090.84 429.275 1277.05 398.204 1286.03 421.032C1269.34 484.441 1247.14 480.241 1115.36 522.48Z" fill="#D9D9D9"/>
<path d="M1146.92 646.285C1052.31 632.186 963.826 625.282 963.145 590.653C962.464 556.025 1139.66 534.404 1139.66 534.404C1139.66 534.404 1309.79 535.803 1334.83 583.361C1286.03 629.65 1233.38 641.698 1146.92 646.285Z" fill="#D9D9D9"/>
<path d="M878.756 898.653C851.528 808.069 820.303 726.016 851.764 710.711C883.226 695.405 950.859 814.806 967.554 869.973C984.248 925.139 1029.84 972.063 1025.34 1039.91C983.606 1058.3 919.658 974.017 878.756 898.653Z" fill="#CECECE"/>
<path d="M927.927 844.474C881.367 761.925 832.789 688.562 860.118 666.855C887.446 645.147 979.798 747.127 1008.26 797.376C1036.73 847.625 1091.58 883.612 1102.16 950.797C1065.48 977.725 984.474 909.226 927.927 844.474Z" fill="#D9D9D9"/>
<path d="M743.462 930.846C749.241 797.685 757.363 731.431 792.432 730.961C827.5 730.491 846.779 882.191 837.85 939.089C828.921 995.988 820.514 1093.17 803.819 1105.22C765.293 1091.91 754.377 1044.35 743.462 930.846Z" fill="#D9D9D9"/>
<path d="M665.939 873.894C671.718 740.733 679.84 674.479 714.909 674.009C749.977 673.538 769.257 825.239 760.327 882.137C751.398 939.035 757.588 1053.23 726.296 1048.27C676.684 1040.41 668.978 997.426 665.939 873.894Z" fill="#C7C7C7"/>
<path d="M594.495 851.584C655.42 732.574 672.94 674.506 710.208 690.194C747.477 705.882 716.609 868.379 683.747 916.262C650.885 964.145 597.083 1027.44 561.106 1021.52C541.843 1018.35 524.379 988.549 594.495 851.584Z" fill="#D9D9D9"/>
<path d="M453.147 674.901C559.932 593.276 601.012 548.271 627.843 578.248C654.674 608.225 571.379 758.372 513.591 784.369C455.802 810.367 373.347 837.317 343.434 816.708C327.418 805.674 326.098 757.103 453.147 674.901Z" fill="#D9D9D9"/>
<path d="M458.1 608.113C576.305 543.64 623.893 505.393 645.747 539.082C667.601 572.77 561.961 708.514 500.816 725.445C439.672 742.377 354.006 756.511 327.65 731.613C313.539 718.282 319.782 670.087 458.1 608.113Z" fill="#E2E2E2"/>
<path d="M501.763 481.294C619.968 416.82 667.555 378.574 689.41 412.262C711.264 445.95 605.623 581.694 544.479 598.626C483.334 615.557 392.876 656.916 363.982 610.627C329.771 555.821 363.445 543.267 501.763 481.294Z" fill="#D9D9D9"/>
<path d="M541.843 464.15C673.418 434.152 732.612 422.262 744.276 460.577C755.939 498.891 616.66 600.831 553.158 600.558C489.656 600.286 401.725 596.51 373.613 549.753C349.213 509.171 391.619 486.298 541.843 464.15Z" fill="#D9D9D9"/>
<path d="M567.649 407.319C678.87 408.925 728.617 411.171 731.096 450.182C733.574 489.192 603.197 554.069 552.176 539.301C501.154 524.533 431.118 500.861 416.932 450.084C404.619 406.013 442.844 394.004 567.649 407.319Z" fill="#E7E7E7"/>
<path d="M512.397 742.749C590.202 633.756 616.088 578.822 650.65 599.696C685.212 620.571 650.238 788.253 602.728 829.863C555.218 871.473 484.413 921.147 449.691 910.121C431.1 904.218 415.394 858.172 512.397 742.749Z" fill="#E6E6E6"/>
<path d="M796.148 900.398C801.19 806.039 799.575 718.398 834.409 714.374C869.244 710.349 876.387 888.547 889.545 902.722C902.702 916.896 935.449 1077.96 885.366 1083.03C823.724 1115.37 809.149 984.935 796.148 900.398Z" fill="#BBBBBB"/>
<path d="M1082.64 810.5C1018.95 739.979 897.676 660.028 919.547 632.952C941.418 605.877 1177.67 773.088 1205.92 813.036C1234.18 852.984 1241.88 866.3 1258.57 879.617C1191.09 884.458 1171.89 849.814 1082.64 810.5Z" fill="#D9D9D9"/>
<path d="M1046.53 866.802C982.847 796.281 906.515 694.137 928.386 667.061C950.257 639.986 1099.33 847.145 1135.29 883.923C1171.25 920.701 1159.54 928.944 1194.21 939.723C1126.73 944.565 1128.72 917.53 1046.53 866.802Z" fill="#E2E2E2"/>
<path d="M1161.47 755.835C1145.42 748.86 922.518 653.442 934.165 620.772C945.811 588.103 1088.27 626.479 1139.64 656.282C1191 686.084 1260.99 722.862 1304.66 761.542C1296.31 775.496 1275.12 780.565 1269.98 781.199C1264.85 781.833 1177.52 762.81 1161.47 755.835Z" fill="#E1E1E1"/>
<path d="M1139.64 795.149C1117.8 771.054 900.686 692.756 912.332 660.086C923.979 627.417 1066.44 665.793 1117.8 695.596C1162.79 721.694 1253.29 780.565 1272.55 791.979C1291.81 803.393 1278.6 804.607 1284.11 809.099C1284.11 827.488 1266.77 818.611 1261.63 819.245C1256.5 819.879 1161.47 819.245 1139.64 795.149Z" fill="#E1E1E1"/>
<path d="M1052.2 593.705C957.591 579.606 869.106 572.701 868.425 538.073C867.744 503.445 1044.94 481.823 1044.94 481.823C1044.94 481.823 1174.31 495.221 1231.46 514.244C1245.33 521.059 1232.24 531.382 1237.24 540.876C1188.44 587.165 1138.66 589.117 1052.2 593.705Z" fill="#D2D2D2"/>
<ellipse cx="746.672" cy="561.167" rx="243.997" ry="230.177" fill="url(#paint6_radial_161_52)"/>
<defs>
<linearGradient id="paint0_linear_161_52" x1="736.001" y1="1109.5" x2="1588" y2="692.5" gradientUnits="userSpaceOnUse">
<stop stop-color="#D9D9D9"/>
<stop offset="0.0778004" stop-color="#D9D9D9"/>
<stop offset="0.154919" stop-color="#BDBDBD"/>
<stop offset="1" stop-color="#BDBDBD"/>
</linearGradient>
<linearGradient id="paint1_linear_161_52" x1="800.76" y1="984.591" x2="117.887" y2="926.995" gradientUnits="userSpaceOnUse">
<stop stop-color="#D9D9D9"/>
<stop offset="0.0778004" stop-color="#D9D9D9"/>
<stop offset="0.154919" stop-color="#BDBDBD"/>
<stop offset="1" stop-color="#BDBDBD"/>
</linearGradient>
<linearGradient id="paint2_linear_161_52" x1="764.25" y1="1306.67" x2="1332.29" y2="923.309" gradientUnits="userSpaceOnUse">
<stop stop-color="#D9D9D9"/>
<stop offset="0.0778004" stop-color="#D9D9D9"/>
<stop offset="0.154919" stop-color="#BDBDBD"/>
<stop offset="1" stop-color="#9B9B9B"/>
</linearGradient>
<linearGradient id="paint3_linear_161_52" x1="824.751" y1="1551.67" x2="256.712" y2="1168.31" gradientUnits="userSpaceOnUse">
<stop stop-color="#D9D9D9"/>
<stop offset="0.0778004" stop-color="#D9D9D9"/>
<stop offset="0.154919" stop-color="#BDBDBD"/>
<stop offset="1" stop-color="#9B9B9B"/>
</linearGradient>
<linearGradient id="paint4_linear_161_52" x1="899.609" y1="1178.69" x2="1194.1" y2="1229.86" gradientUnits="userSpaceOnUse">
<stop stop-color="#BDBDBD"/>
<stop offset="0.0778004" stop-color="#BDBDBD"/>
<stop offset="0.154919" stop-color="#BDBDBD"/>
<stop offset="1" stop-color="#9B9B9B"/>
</linearGradient>
<linearGradient id="paint5_linear_161_52" x1="744.061" y1="1480.64" x2="580.05" y2="1104.08" gradientUnits="userSpaceOnUse">
<stop stop-color="#BDBDBD"/>
<stop offset="0.0778004" stop-color="#BDBDBD"/>
<stop offset="0.154919" stop-color="#BDBDBD"/>
<stop offset="1" stop-color="#C5C5C5"/>
</linearGradient>
<radialGradient id="paint6_radial_161_52" cx="0" cy="0" r="1" gradientUnits="userSpaceOnUse" gradientTransform="translate(746.672 561.167) rotate(90) scale(230.177 243.997)">
<stop stop-color="#C9C9C9"/>
<stop offset="0.735" stop-color="#C8C8C8"/>
<stop offset="0.805" stop-color="#C2C2C2"/>
<stop offset="1" stop-color="#D3D3D3"/>
</radialGradient>
</defs>
</svg>
