<svg width="817" height="911" viewBox="0 0 817 911" fill="none" xmlns="http://www.w3.org/2000/svg">
<g opacity="0.5">
<ellipse cx="28.7516" cy="16.4357" rx="28.7516" ry="16.4357" transform="matrix(-0.688356 -0.725373 -0.697426 0.716657 434.905 481.905)" fill="#C7C6C6"/>
<path d="M400.318 469.661C395.873 478.028 388.545 485.701 404.289 495.178C420.033 504.654 461.383 526.497 465.828 518.129C470.273 509.761 464.869 496.407 449.125 486.93C433.381 477.454 404.763 461.293 400.318 469.661Z" fill="#C7C6C6"/>
<path d="M525.53 585.264C533.479 578.993 526.52 555.859 509.987 533.591C493.453 511.323 463.296 499.02 455.347 505.29C447.398 511.561 464.668 534.03 481.201 556.298C497.735 578.566 517.582 591.534 525.53 585.264Z" fill="#C7C6C6"/>
<path d="M546.874 663.922C555.959 660.466 556.191 638.952 547.391 615.869C538.591 592.786 524.177 566.074 515.091 569.53C506.005 572.986 505.688 605.302 514.488 628.385C523.289 651.468 537.788 667.378 546.874 663.922Z" fill="#C7C6C6"/>
<path d="M597.748 718.608C602.577 715.397 578.773 692.158 567.291 668.112C556.423 650.971 542.707 636.709 537.878 639.921C533.049 643.132 542.127 673.441 552.995 690.582C563.864 707.722 592.919 721.82 597.748 718.608Z" fill="#C7C6C6"/>
<path d="M644.618 733.248C658.09 723.179 626.962 716.272 610.375 712.25C593.788 708.228 577.018 697.904 576.075 702.872C575.131 707.84 591.6 722.609 608.187 726.631C624.774 730.653 643.674 738.216 644.618 733.248Z" fill="#C7C6C6"/>
<path d="M673.396 749.605C675.771 745.236 671.649 736.218 660.196 729.178C648.742 722.138 633.516 720.104 631.141 724.473C628.766 728.843 641.474 736.991 652.927 744.031C664.381 751.072 671.02 753.975 673.396 749.605Z" fill="#C7C6C6"/>
<path d="M241.951 399.501C222.793 440.569 173.652 470.99 147.951 459.001C122.251 447.012 132.293 383.069 151.451 342.001C170.61 300.932 207.664 280.72 233.364 292.709C259.064 304.698 261.11 358.432 241.951 399.501Z" fill="#D9D9D9"/>
<path d="M444.951 448.501C423.513 494.457 346.017 507.492 290.224 481.465C234.432 455.438 218.513 389.457 239.951 343.501C261.39 297.545 311.159 283.974 366.951 310.001C422.744 336.028 466.389 402.545 444.951 448.501Z" fill="#D9D9D9"/>
<path d="M753.452 669.5C727.406 713.011 634.273 665.655 535.452 606.5C436.631 547.345 360.405 484.511 386.451 441C412.497 397.489 511.13 381.845 609.952 441C708.773 500.155 779.498 625.989 753.452 669.5Z" fill="url(#paint0_linear_145_44)"/>
<path d="M690.631 91.5847C724.96 133.693 628.033 205.541 522.724 291.396C417.415 377.25 388.025 433.129 353.696 391.021C319.368 348.913 311.719 328.336 430.374 204.643C518.246 130.764 645.296 80.3904 690.631 91.5847Z" fill="#D9D9D9" fill-opacity="0.8"/>
<path d="M702.919 64.4229C740.036 109.95 635.238 187.633 521.378 280.459C407.517 373.285 375.742 433.701 338.625 388.174C301.509 342.647 293.239 320.398 421.529 186.662C516.536 106.783 653.902 52.3197 702.919 64.4229Z" fill="#D9D9D9" fill-opacity="0.8"/>
<path d="M377.476 388.76C384.136 394.057 372.148 407.6 361.085 421.511C350.023 435.421 334.938 440.624 328.278 435.327C321.618 430.031 328.934 418.531 339.997 404.621C351.06 390.71 370.816 383.464 377.476 388.76Z" fill="#D9D9D9"/>
<path d="M341.697 428.815C343.142 437.2 325.411 444.436 307.895 447.454C290.38 450.473 273.013 453.537 271.568 445.151C270.123 436.765 281.965 423.65 299.48 420.632C316.995 417.614 340.252 420.429 341.697 428.815Z" fill="#D9D9D9"/>
<path d="M238.707 517.322C231.414 512.939 234.082 489.211 246.862 467.946C259.642 446.68 278.458 433.065 285.751 437.448C293.045 441.831 282.533 460.106 269.753 481.372C256.973 502.637 246.001 521.705 238.707 517.322Z" fill="#D9D9D9"/>
<path d="M206.689 581.633C198.768 578.525 210.332 557.431 219.392 534.334C228.452 511.237 237.968 493.199 245.889 496.306C253.811 499.414 250.534 523.304 241.474 546.401C232.414 569.498 214.611 584.74 206.689 581.633Z" fill="#D9D9D9"/>
<path d="M168.305 607.414C165.246 603.686 178.766 594.383 193.82 585.978C209.088 573.447 219.498 554.48 222.557 558.208C225.617 561.937 221.968 580.871 206.7 593.401C191.674 608.965 171.365 611.142 168.305 607.414Z" fill="#D9D9D9"/>
<path d="M143.224 614.426C142.634 611.137 151.747 604.559 160.187 603.045C168.626 601.532 177.085 600.003 177.675 603.292C178.265 606.581 169.522 614.792 161.083 616.306C152.643 617.82 144.184 618.822 143.224 614.426Z" fill="#D9D9D9"/>
<path d="M361.913 350.795C370.225 352.617 365.427 370.056 361.622 387.417C357.817 404.778 346.565 416.093 338.253 414.271C329.941 412.45 331.445 398.903 335.25 381.542C339.055 364.18 353.601 348.973 361.913 350.795Z" fill="#D9D9D9"/>
<path d="M347.433 402.514C352.423 409.406 339.692 423.712 325.296 434.136C310.9 444.56 296.658 454.96 291.667 448.068C286.677 441.176 291.531 424.186 305.927 413.762C320.323 403.338 342.442 395.622 347.433 402.514Z" fill="#D9D9D9"/>
<path d="M293.953 527.335C285.475 526.612 277.419 504.135 279.527 479.415C281.634 454.694 292.529 434.183 301.008 434.906C309.486 435.628 308.098 456.665 305.991 481.386C303.883 506.107 302.432 528.058 293.953 527.335Z" fill="#D9D9D9"/>
<path d="M293.533 599.174C285.053 599.873 286.144 575.842 284.105 551.116C282.066 526.389 282.664 506.004 291.145 505.304C299.625 504.605 307.206 527.497 309.245 552.223C311.284 576.95 302.014 598.475 293.533 599.174Z" fill="#D9D9D9"/>
<path d="M270.428 639.226C266.039 637.227 274.08 622.919 283.893 608.744C292.082 590.769 293.073 569.156 297.462 571.155C301.851 573.155 306.915 591.761 298.726 609.735C292.091 630.326 274.817 641.226 270.428 639.226Z" fill="#D9D9D9"/>
<path d="M250.999 656.568C249.021 653.875 254.306 643.956 261.215 638.88C268.125 633.804 275.046 628.706 277.025 631.399C279.003 634.092 274.77 645.314 267.86 650.39C260.95 655.466 253.797 660.093 250.999 656.568Z" fill="#D9D9D9"/>
<ellipse cx="32.1816" cy="19.0974" rx="32.1816" ry="19.0974" transform="matrix(-0.396767 -0.917919 -0.917919 0.396767 408.047 533.08)" fill="#D9D9D9"/>
<path d="M375.451 506.5C367.039 513.37 355.772 518.362 368.951 534.5C382.131 550.638 418.039 589.87 426.451 583C434.864 576.13 434.631 560.138 421.451 544C408.272 527.862 383.864 499.63 375.451 506.5Z" fill="#D9D9D9"/>
<path d="M463.176 676.479C474.526 673.188 476.749 646.451 468.14 616.76C459.531 587.069 431.802 562.209 420.451 565.5C409.101 568.791 418.429 598.987 427.037 628.677C435.646 658.368 451.826 679.77 463.176 676.479Z" fill="#D9D9D9"/>
<path d="M453.086 766.453C464.483 766.532 473.875 744.364 474.064 716.94C474.252 689.515 469.848 656.078 458.451 656C447.054 655.922 432.98 689.232 432.792 716.656C432.603 744.08 441.689 766.375 453.086 766.453Z" fill="#D9D9D9"/>
<path d="M485.451 843.5C492.093 842.119 475.951 808.5 473.619 779C469.023 756.893 460.093 736.619 453.451 738C446.81 739.381 443.856 774.392 448.451 796.5C453.047 818.608 478.81 844.881 485.451 843.5Z" fill="#D9D9D9"/>
<path d="M530.451 877.5C549.451 872.5 518.369 852.833 501.951 842C485.534 831.167 471.593 813.739 468.451 818.5C465.31 823.261 477.034 845.167 493.451 856C509.869 866.833 527.31 882.261 530.451 877.5Z" fill="#D9D9D9"/>
<path d="M554.952 906C559.403 902.434 558.73 891.446 549.204 879.554C539.678 867.662 523.904 859.434 519.452 863C515 866.566 525.426 880.108 534.952 892C544.477 903.891 550.5 909.566 554.952 906Z" fill="#D9D9D9"/>
<path d="M159.922 354.589C157.291 356.107 149.627 347.747 142.805 335.916C135.982 324.086 133.82 313.017 136.451 311.5C139.083 309.983 145.511 318.59 152.334 330.421C159.156 342.251 162.554 353.072 159.922 354.589Z" fill="#D9D9D9"/>
<path d="M149.922 367.589C147.291 369.107 138.733 359.197 130.808 345.454C122.883 331.711 119.82 319.517 122.451 318C125.083 316.483 132.412 326.216 140.337 339.959C148.262 353.701 152.554 366.072 149.922 367.589Z" fill="#D9D9D9"/>
<path d="M1.45135 348C-3.04865 344 26.3939 336.962 61.6709 329.385C96.9479 321.808 123.813 315.53 124.451 318.5C125.951 323.5 99.2284 330.423 63.9514 338C28.6743 345.577 2.95135 352.5 1.45135 348Z" fill="#D9D9D9"/>
<path d="M137.951 312C137.951 315.537 125.951 314 104.451 315C83.7732 315.143 64.9513 316 63.4731 312.657C61.9948 309.315 80.7732 310.643 101.451 310.5C122.129 310.357 137.939 310.267 137.951 312Z" fill="#D9D9D9"/>
</g>
<path d="M366.736 561.955L366.736 560.037C366.949 539.689 369.08 523.496 373.128 511.457C377.176 499.419 382.929 489.671 390.386 482.214C397.844 474.756 406.793 467.885 417.233 461.599C423.518 457.764 429.165 453.236 434.172 448.016C439.179 442.69 443.121 436.564 445.997 429.639C448.98 422.714 450.472 415.044 450.472 406.628C450.472 396.187 448.021 387.132 443.121 379.462C438.22 371.791 431.668 365.879 423.465 361.724C415.262 357.569 406.153 355.491 396.139 355.491C387.403 355.491 378.987 357.303 370.891 360.925C362.794 364.547 356.029 370.246 350.596 378.023C345.163 385.8 342.02 395.974 341.168 408.545L300.898 408.545C301.75 390.435 306.438 374.934 314.96 362.043C323.589 349.153 334.935 339.298 348.998 332.48C363.167 325.662 378.881 322.253 396.139 322.253C414.889 322.253 431.189 325.982 445.038 333.439C458.994 340.896 469.754 351.124 477.318 364.121C484.989 377.118 488.824 391.926 488.824 408.545C488.824 420.264 487.013 430.864 483.391 440.346C479.875 449.827 474.761 458.297 468.05 465.754C461.445 473.212 453.455 479.817 444.08 485.57C434.705 491.429 427.194 497.608 421.548 504.107C415.901 510.499 411.8 518.116 409.243 526.958C406.686 535.8 405.301 546.827 405.088 560.037L405.088 561.955L366.736 561.955ZM387.19 656.557C379.307 656.557 372.542 653.734 366.896 648.087C361.249 642.441 358.426 635.676 358.426 627.793C358.426 619.909 361.249 613.144 366.896 607.498C372.542 601.852 379.307 599.028 387.19 599.028C395.074 599.028 401.839 601.852 407.485 607.498C413.131 613.144 415.955 619.909 415.955 627.793C415.955 633.013 414.623 637.807 411.96 642.175C409.403 646.543 405.94 650.058 401.572 652.722C397.311 655.278 392.517 656.557 387.19 656.557Z" fill="white"/>
<defs>
<linearGradient id="paint0_linear_145_44" x1="138" y1="795.5" x2="529.699" y2="1044.43" gradientUnits="userSpaceOnUse">
<stop stop-color="#D9D9D9"/>
<stop offset="0.285582" stop-color="#D9D9D9"/>
<stop offset="0.291537" stop-color="#494848"/>
<stop offset="0.376571" stop-color="#5F5F5F"/>
<stop offset="0.38021" stop-color="#B7B6B6"/>
<stop offset="0.465228" stop-color="#B7B6B6"/>
<stop offset="0.469786" stop-color="#414141"/>
<stop offset="0.612455" stop-color="#7D7D7D"/>
<stop offset="0.613238" stop-color="#B7B6B6"/>
<stop offset="0.719174" stop-color="#D0D0D0"/>
<stop offset="0.722049" stop-color="#676666"/>
<stop offset="0.828494" stop-color="#4B4B4B"/>
</linearGradient>
</defs>
</svg>
