<svg width="583" height="540" viewBox="0 0 583 540" fill="none" xmlns="http://www.w3.org/2000/svg">
<path d="M467.347 421.116L437.347 403.116L430.347 401.616L427.347 402.616L433.347 413.616L449.347 435.116L472.847 468.116L507.847 527.116L528.847 539.116L530.347 537.116L528.847 498.116L515.847 471.116L501.347 445.616L467.347 421.116Z" fill="#BDBDBD"/>
<path d="M582.347 418.116L552.347 407.616H534.847L517.347 406.616L505.347 404.616L490.847 400.116L439.847 394.616L429.847 401.616L437.347 403.616L440.847 400.616L474.347 408.616L491.347 412.616L521.847 417.616L544.347 420.616L570.347 422.116L581.347 421.116L582.347 418.116Z" fill="#BDBDBD"/>
<path d="M363.348 283.116L344.848 268.616L335.347 263.116L326.847 255.616L324.347 259.616L333.847 278.116L340.848 293.616L352.348 322.616L365.348 343.116L382.848 364.616L403.848 386.616L415.848 396.116L419.848 404.116L423.348 408.616L426.348 411.116L432.348 411.116L430.347 401.616L427.847 397.116L427.348 387.116L426.347 380.116L423.348 372.616L416.847 357.116L401.347 330.616L363.348 283.116Z" fill="#BDBDBD"/>
<path d="M288.5 456L394.5 409L420 403L426.5 410.5L398.5 418.5L296.5 460.5L274.5 530.5H261L288.5 456Z" fill="#BDBDBD"/>
<path d="M159.634 367.286L189.152 352.351V427.026L192 456.513L227 530.5H182.196L172.098 456.513L174.428 427.026L159.634 367.286Z" fill="#AAAAAA"/>
<path d="M200.61 294.631C200.61 329.951 195.56 348.243 178.082 371.603C149.981 371.603 110.889 353.605 90.6917 317.225C75.9319 301.524 82.7881 222.636 110.889 222.636C146.233 211.531 200.61 259.311 200.61 294.631Z" fill="#AAAAAA"/>
<path d="M173.404 384.677C173.404 405.827 190.106 455.14 107.764 471.224C75.9143 481.563 1.34156 483.948 1.34156 462.799C-10.311 414.164 57.1837 357.488 78.6346 357.488C93.0055 341.404 173.404 363.528 173.404 384.677Z" fill="#AAAAAA"/>
<path d="M355 391.713C355 412.863 323.151 456.814 269.163 461.793C208.572 464.473 188.764 411.626 180.219 383.288C189.152 348.823 198.085 315.506 254.404 319.336C338.687 331.973 355 370.563 355 391.713Z" fill="#AAAAAA"/>
<path d="M257.847 241L271.5 212.5L296 222L341.5 229.5L316.5 260.5L310.597 310.158L284.347 394.315L249.423 433.408V531H209.5L220.25 424L254.5 388L289 302.5V264.5L278.5 259L250 247.5L238 250.5H224.5L213.75 255L203 259.5L180 268L185.5 260.5L192.5 254.5L200.5 250.5L229.173 245.75L257.847 241Z" fill="url(#paint0_linear_148_131)"/>
<path d="M349.5 215L387.5 230L414.5 257L392 241.5L370 240.5L355 236.5L341 230L297.5 223L349.5 215Z" fill="#D9D9D9"/>
<path d="M279.5 256.5L290.5 265.5L289 301L255.5 331L242.5 346.5L228.5 358.5L229.5 350L232 341L241 326L259.5 302L279.5 256.5Z" fill="#B9B9B9"/>
<ellipse cx="352.561" cy="203.252" rx="10.5" ry="22" transform="rotate(49.614 352.561 203.252)" fill="#D9D9D9"/>
<ellipse cx="360.646" cy="184.113" rx="8.76788" ry="22" transform="rotate(34.3212 360.646 184.113)" fill="#D9D9D9"/>
<ellipse cx="359.354" cy="168.488" rx="8.76788" ry="22" transform="rotate(29.0739 359.354 168.488)" fill="#D9D9D9"/>
<ellipse cx="368.595" cy="142.965" rx="8.76788" ry="22" transform="rotate(7.58525 368.595 142.965)" fill="#D9D9D9"/>
<ellipse cx="382.595" cy="138.965" rx="8.76788" ry="22" transform="rotate(7.58525 382.595 138.965)" fill="#D9D9D9"/>
<ellipse cx="378.586" cy="160.438" rx="8.76788" ry="22" transform="rotate(29.9717 378.586 160.438)" fill="#D9D9D9"/>
<ellipse cx="384.586" cy="177.438" rx="8.76788" ry="22" transform="rotate(29.9717 384.586 177.438)" fill="#D9D9D9"/>
<path d="M366.286 107.122C364.683 119.166 339.8 140.139 335 139.5C330.2 138.861 343.096 115.693 347.5 104C349.104 91.9561 355.699 83.5182 360.499 84.1574C365.299 84.7966 367.89 95.0783 366.286 107.122Z" fill="#D9D9D9"/>
<ellipse cx="369.595" cy="118.965" rx="8.76788" ry="22" transform="rotate(7.58525 369.595 118.965)" fill="#D9D9D9"/>
<path d="M298.728 158.619C293.103 169.388 285.064 176.302 280.772 174.06C276.48 171.818 277.56 161.27 283.185 150.501C288.81 139.731 291.208 130.758 295.5 133C301 134 304.353 147.849 298.728 158.619Z" fill="#D9D9D9"/>
<path d="M308.102 145.268C302.477 156.037 294.437 162.951 290.145 160.709C285.853 158.467 286.933 147.919 292.558 137.15C298.183 126.38 300.581 117.407 304.874 119.649C310.374 120.649 313.727 134.498 308.102 145.268Z" fill="#D9D9D9"/>
<path d="M307.343 169.703C298.425 177.955 288.53 181.764 285.241 178.21C281.952 174.655 286.516 165.085 295.434 156.832C304.352 148.58 309.627 140.936 312.916 144.491C317.759 147.281 316.262 161.451 307.343 169.703Z" fill="#D9D9D9"/>
<ellipse cx="289.458" cy="103.617" rx="8.76788" ry="22" transform="rotate(-4.47476 289.458 103.617)" fill="#D9D9D9"/>
<ellipse cx="321.416" cy="75.6536" rx="8.76788" ry="22" transform="rotate(18.8839 321.416 75.6536)" fill="#D9D9D9"/>
<ellipse cx="303.291" cy="95.2031" rx="8.76788" ry="22" transform="rotate(-1.36855 303.291 95.2031)" fill="#D9D9D9"/>
<ellipse cx="290.257" cy="67.6828" rx="8.76788" ry="22" transform="rotate(-21.621 290.257 67.6828)" fill="#D9D9D9"/>
<ellipse cx="313.547" cy="67.6463" rx="8.76788" ry="22" transform="rotate(4.71536 313.547 67.6463)" fill="#D9D9D9"/>
<ellipse cx="336.956" cy="140.56" rx="8.76788" ry="22" transform="rotate(27.577 336.956 140.56)" fill="#D9D9D9"/>
<ellipse cx="329.956" cy="176.56" rx="8.76788" ry="22" transform="rotate(27.577 329.956 176.56)" fill="#D9D9D9"/>
<ellipse cx="354.956" cy="140.56" rx="8.76788" ry="22" transform="rotate(27.577 354.956 140.56)" fill="#D9D9D9"/>
<ellipse cx="319.956" cy="141.56" rx="8.76788" ry="22" transform="rotate(14.4825 319.956 141.56)" fill="#D9D9D9"/>
<ellipse cx="334.298" cy="115.206" rx="8.76788" ry="22" transform="rotate(1.38806 334.298 115.206)" fill="#D9D9D9"/>
<path d="M327.242 115.523C324.368 127.329 311.205 143.645 306.5 142.5C301.795 141.355 307.33 123.181 310.203 111.376C313.077 99.5703 319.221 90.9284 323.925 92.0737C328.63 93.2189 330.115 103.718 327.242 115.523Z" fill="#D9D9D9"/>
<path d="M288.708 135.257C288.539 152.348 279.171 176.586 270.5 176.5C261.829 176.414 257.137 152.038 257.306 134.946C257.474 117.855 264.641 104.069 273.312 104.155C281.984 104.241 288.876 118.165 288.708 135.257Z" fill="#D9D9D9"/>
<ellipse cx="315.369" cy="199.85" rx="10.5" ry="22" transform="rotate(13.5709 315.369 199.85)" fill="#D9D9D9"/>
<ellipse cx="345.175" cy="178.767" rx="10.5" ry="22" transform="rotate(57.0944 345.175 178.767)" fill="#D9D9D9"/>
<path d="M304.796 195.867C310.003 208.455 309.156 220.755 302.904 223.341C296.653 225.927 287.364 217.819 282.157 205.231C270.5 193.5 275.906 176.086 282.157 173.5C288.409 170.914 299.589 183.279 304.796 195.867Z" fill="#D9D9D9"/>
<ellipse cx="286.243" cy="209.243" rx="10.5" ry="22" transform="rotate(-70.4946 286.243 209.243)" fill="#D9D9D9"/>
<path d="M248.5 179.5C261.097 190.336 279.643 195.603 275 201C270.357 206.397 243.102 210.988 230.505 200.152C217.908 189.315 211.46 176.155 216.103 170.758C220.746 165.36 235.903 168.664 248.5 179.5Z" fill="#D9D9D9"/>
<ellipse cx="248.216" cy="147.394" rx="12.8911" ry="30.087" transform="rotate(-49.2963 248.216 147.394)" fill="#D9D9D9"/>
<ellipse cx="253.216" cy="210.394" rx="12.8911" ry="30.087" transform="rotate(-49.2963 253.216 210.394)" fill="#D9D9D9"/>
<ellipse cx="192.298" cy="198.007" rx="8.24436" ry="23.9881" transform="rotate(-66.864 192.298 198.007)" fill="#D9D9D9"/>
<ellipse cx="230.298" cy="203.007" rx="8.24436" ry="23.9881" transform="rotate(-66.864 230.298 203.007)" fill="#D9D9D9"/>
<ellipse cx="234.447" cy="215.411" rx="10.2751" ry="23.9881" transform="rotate(-54.0068 234.447 215.411)" fill="#D9D9D9"/>
<ellipse cx="243.447" cy="230.411" rx="10.2751" ry="23.9881" transform="rotate(-54.0068 243.447 230.411)" fill="#D9D9D9"/>
<ellipse cx="208.089" cy="218.313" rx="10.2751" ry="23.9881" transform="rotate(-65.4488 208.089 218.313)" fill="#D9D9D9"/>
<ellipse cx="191.298" cy="181.007" rx="8.24436" ry="23.9881" transform="rotate(-66.864 191.298 181.007)" fill="#D9D9D9"/>
<ellipse cx="176.298" cy="175.007" rx="8.24436" ry="23.9881" transform="rotate(-66.864 176.298 175.007)" fill="#D9D9D9"/>
<ellipse cx="191.298" cy="164.007" rx="8.24436" ry="23.9881" transform="rotate(-66.864 191.298 164.007)" fill="#D9D9D9"/>
<ellipse cx="191.298" cy="147.007" rx="8.24436" ry="23.9881" transform="rotate(-66.864 191.298 147.007)" fill="#D9D9D9"/>
<ellipse cx="222.192" cy="160.039" rx="8.24436" ry="23.9881" transform="rotate(-9.76071 222.192 160.039)" fill="#D9D9D9"/>
<path d="M257.107 167.406C268.094 174.81 272.545 192.224 270 196C267.455 199.776 258.879 188.483 247.893 181.079C236.906 173.676 230.063 164.613 232.607 160.837C235.152 157.061 246.121 160.002 257.107 167.406Z" fill="#D9D9D9"/>
<ellipse cx="191.298" cy="130.007" rx="8.24436" ry="23.9881" transform="rotate(-66.864 191.298 130.007)" fill="#D9D9D9"/>
<ellipse cx="180.298" cy="135.007" rx="8.24436" ry="23.9881" transform="rotate(-66.864 180.298 135.007)" fill="#D9D9D9"/>
<ellipse cx="187.298" cy="119.007" rx="8.24436" ry="23.9881" transform="rotate(-66.864 187.298 119.007)" fill="#D9D9D9"/>
<ellipse cx="217.471" cy="100.19" rx="11.4749" ry="28.9346" transform="rotate(-27.401 217.471 100.19)" fill="#D9D9D9"/>
<ellipse cx="238.169" cy="100.088" rx="11.4749" ry="28.9346" transform="rotate(-18.7563 238.169 100.088)" fill="#D9D9D9"/>
<ellipse cx="255.169" cy="106.088" rx="11.4749" ry="28.9346" transform="rotate(-18.7563 255.169 106.088)" fill="#D9D9D9"/>
<ellipse cx="202.841" cy="114.218" rx="11.4749" ry="28.9346" transform="rotate(138.198 202.841 114.218)" fill="#D9D9D9"/>
<ellipse cx="203.841" cy="95.218" rx="11.4749" ry="28.9346" transform="rotate(138.198 203.841 95.218)" fill="#D9D9D9"/>
<ellipse cx="299.718" cy="190.156" rx="10.5" ry="22" transform="rotate(-17.7854 299.718 190.156)" fill="#D9D9D9"/>
<ellipse cx="308.225" cy="184.51" rx="10.5" ry="22" transform="rotate(10.1841 308.225 184.51)" fill="#D9D9D9"/>
<ellipse cx="376.561" cy="196.252" rx="10.5" ry="22" transform="rotate(49.614 376.561 196.252)" fill="#D9D9D9"/>
<path d="M403.953 191.937C393.924 198.796 383.98 201.703 381.741 198.43C379.503 195.158 385.818 186.944 395.847 180.085C405.876 173.225 415.821 170.318 418.059 173.591C420.297 176.863 413.982 185.077 403.953 191.937Z" fill="#D9D9D9"/>
<path d="M413.047 173.74C403.792 181.613 394.207 185.546 391.638 182.526C389.069 179.506 394.489 170.676 403.744 162.803C412.998 154.931 422.584 150.997 425.153 154.017C427.722 157.037 422.302 165.868 413.047 173.74Z" fill="#D9D9D9"/>
<path d="M413.047 157.74C403.792 165.613 394.207 169.546 391.638 166.526C389.069 163.506 394.489 154.676 403.744 146.803C412.998 138.931 422.584 134.997 425.153 138.017C427.722 141.037 422.302 149.868 413.047 157.74Z" fill="#D9D9D9"/>
<path d="M410.842 137.918C403.404 147.526 394.833 153.347 391.697 150.919C388.562 148.492 392.05 138.736 399.487 129.128C406.925 119.52 415.496 113.699 418.632 116.127C421.767 118.554 418.279 128.31 410.842 137.918Z" fill="#D9D9D9"/>
<path d="M405.759 113.186C400.714 124.239 393.699 131.865 390.092 130.218C386.485 128.571 387.651 118.276 392.697 107.223C397.743 96.1703 404.758 88.545 408.365 90.1917C411.972 91.8383 410.805 102.133 405.759 113.186Z" fill="#D9D9D9"/>
<path d="M395.759 102.186C390.714 113.239 383.699 120.865 380.092 119.218C376.485 117.571 377.651 107.276 382.697 96.2233C387.743 85.1703 394.758 77.545 398.365 79.1917C401.972 80.8383 400.805 91.1334 395.759 102.186Z" fill="#D9D9D9"/>
<path d="M389.759 91.1864C384.714 102.239 377.699 109.865 374.092 108.218C370.485 106.571 371.651 96.2763 376.697 85.2233C381.743 74.1703 388.758 66.545 392.365 68.1917C395.972 69.8383 394.805 80.1334 389.759 91.1864Z" fill="#D9D9D9"/>
<path d="M389.759 81.1864C384.714 92.2394 377.699 99.8647 374.092 98.218C370.485 96.5714 371.651 86.2763 376.697 75.2233C381.743 64.1703 388.758 56.545 392.365 58.1917C395.972 59.8383 394.805 70.1334 389.759 81.1864Z" fill="#D9D9D9"/>
<path d="M383.395 78.9947C378.349 90.0477 361.607 111.147 358 109.5C354.393 107.853 365.287 84.0846 370.333 73.0316C375.379 61.9787 382.393 54.3533 386 56C389.607 57.6467 388.441 67.9417 383.395 78.9947Z" fill="#D9D9D9"/>
<path d="M376.759 66.1864C371.713 77.2394 341.607 109.147 338 107.5C334.393 105.853 358.651 71.2763 363.697 60.2233C368.743 49.1704 375.758 41.545 379.365 43.1917C382.972 44.8383 381.805 55.1334 376.759 66.1864Z" fill="#D9D9D9"/>
<path d="M372.759 59.1864C367.714 70.2394 338.607 107.147 335 105.5C331.393 103.853 354.651 64.2763 359.697 53.2233C364.743 42.1703 371.758 34.545 375.365 36.1917C378.972 37.8383 377.805 48.1334 372.759 59.1864Z" fill="#D9D9D9"/>
<path d="M357.759 66.1864C352.713 77.2394 334.107 102.647 330.5 101C326.893 99.3533 339.651 71.2763 344.697 60.2233C349.743 49.1703 356.757 41.545 360.364 43.1917C363.971 44.8383 362.805 55.1334 357.759 66.1864Z" fill="#D9D9D9"/>
<path d="M350.026 55.2701C347.164 67.0783 328.853 103.434 325 102.5C321.146 101.566 333.209 63.6953 336.072 51.8871C338.934 40.0789 344.379 31.2637 348.232 32.1979C352.086 33.1321 352.889 43.4619 350.026 55.2701Z" fill="#D9D9D9"/>
<path d="M350.208 44.4765C349.632 56.6131 345.954 66.2994 341.994 66.1114C338.033 65.9234 335.289 55.9324 335.865 43.7958C336.441 31.6592 340.119 21.9729 344.08 22.1609C348.04 22.3489 350.784 32.3399 350.208 44.4765Z" fill="#D9D9D9"/>
<path d="M336.298 33.8342C338.029 45.8605 336.251 56.0677 332.327 56.6328C328.402 57.1978 323.817 47.9067 322.085 35.8805C320.354 23.8542 322.132 13.6469 326.056 13.0819C329.981 12.5168 334.566 21.808 336.298 33.8342Z" fill="#D9D9D9"/>
<path d="M313.328 24.4026C317.305 35.8838 317.491 46.243 313.744 47.5407C309.997 48.8384 303.737 40.583 299.76 29.1018C295.784 17.6207 295.597 7.26141 299.344 5.96375C303.091 4.6661 309.352 12.9215 313.328 24.4026Z" fill="#D9D9D9"/>
<path d="M274.371 16.2696C280.448 26.7907 282.592 36.9274 279.159 38.9108C275.725 40.8941 268.015 33.973 261.937 23.452C255.86 12.9309 253.716 2.79414 257.15 0.810792C260.583 -1.17256 268.293 5.7486 274.371 16.2696Z" fill="#D9D9D9"/>
<path d="M289.837 24.7801C294.979 35.789 296.234 46.0736 292.641 47.7514C289.049 49.4292 281.969 41.8649 276.827 30.8559C271.686 19.847 270.431 9.5624 274.023 7.88461C277.616 6.20682 284.696 13.7712 289.837 24.7801Z" fill="#D9D9D9"/>
<path d="M305.109 31.1563C309.275 42.57 306.725 81.1404 303 82.5C299.275 83.8596 289 68 291.62 36.0798C287.454 24.6661 287.096 14.3113 290.821 12.9518C294.546 11.5922 300.942 19.7427 305.109 31.1563Z" fill="#D9D9D9"/>
<path d="M326.314 31.8568C328.02 43.8866 326.221 54.0902 322.295 54.647C318.369 55.2038 313.803 45.903 312.097 33.8731C310.391 21.8433 312.19 11.6398 316.116 11.083C320.042 10.5262 324.607 19.8269 326.314 31.8568Z" fill="#D9D9D9"/>
<path d="M180.11 236.907C192.234 237.717 260.264 237.044 260 241C259.736 244.956 191.277 252.044 179.153 251.234C167.03 250.424 156.736 241.456 157 237.5C157.264 233.544 167.987 236.097 180.11 236.907Z" fill="#D9D9D9"/>
<path d="M171.249 224.076C183.087 226.812 242.393 233.137 241.5 237C240.607 240.863 179.853 240.802 168.015 238.066C156.177 235.33 147.304 229.98 148.197 226.117C149.09 222.253 159.41 221.34 171.249 224.076Z" fill="#D9D9D9"/>
<path d="M171.551 214.747C183.39 217.483 234.393 228.637 233.5 232.5C232.607 236.363 180.156 231.473 168.318 228.737C156.48 226.001 147.607 220.651 148.5 216.788C149.393 212.925 159.713 212.011 171.551 214.747Z" fill="#D9D9D9"/>
<path d="M157.269 195.811C168.494 200.461 176.364 207.2 174.847 210.863C173.33 214.526 162.999 213.727 151.774 209.077C140.549 204.427 132.679 197.688 134.196 194.025C135.714 190.362 146.044 191.161 157.269 195.811Z" fill="#D9D9D9"/>
<path d="M168.625 193.114C178.931 199.55 185.583 207.494 183.482 210.857C181.382 214.22 171.325 211.729 161.019 205.293C150.714 198.857 144.062 190.913 146.162 187.55C148.263 184.187 158.32 186.678 168.625 193.114Z" fill="#D9D9D9"/>
<path d="M151.218 167.738C162.331 172.65 170.041 179.571 168.438 183.198C166.835 186.825 156.527 185.783 145.414 180.872C134.3 175.96 126.591 169.039 128.193 165.412C129.796 161.785 140.105 162.827 151.218 167.738Z" fill="#D9D9D9"/>
<path d="M172.218 181.738C183.331 186.65 191.041 193.571 189.438 197.198C187.835 200.825 177.527 199.783 166.414 194.872C155.3 189.96 147.591 183.039 149.193 179.412C150.796 175.785 161.105 176.827 172.218 181.738Z" fill="#D9D9D9"/>
<path d="M197.218 163.738C208.331 168.65 216.041 175.571 214.438 179.198C212.835 182.825 202.527 181.783 191.414 176.872C180.3 171.96 172.591 165.039 174.193 161.412C175.796 157.785 186.105 158.827 197.218 163.738Z" fill="#D9D9D9"/>
<path d="M151.322 148.045C163.019 151.333 171.632 157.093 170.559 160.91C169.486 164.727 159.134 165.156 147.437 161.868C135.74 158.581 127.127 152.821 128.2 149.004C129.273 145.186 139.625 144.757 151.322 148.045Z" fill="#D9D9D9"/>
<path d="M182.322 147.045C194.019 150.333 202.632 156.093 201.559 159.91C200.486 163.727 190.134 164.156 178.437 160.868C166.74 157.581 158.127 151.821 159.2 148.004C160.273 144.186 170.625 143.757 182.322 147.045Z" fill="#D9D9D9"/>
<path d="M151.277 135.824C162.523 140.424 170.422 147.128 168.921 150.798C167.42 154.468 157.086 153.714 145.841 149.114C134.595 144.513 126.695 137.809 128.197 134.139C129.698 130.469 140.031 131.223 151.277 135.824Z" fill="#D9D9D9"/>
<path d="M151.277 122.824C162.523 127.424 170.422 134.128 168.921 137.798C167.42 141.468 157.086 140.714 145.841 136.114C134.595 131.513 126.695 124.809 128.197 121.139C129.698 117.469 140.031 118.223 151.277 122.824Z" fill="#D9D9D9"/>
<path d="M151.876 99.1768C162.042 106.63 168.798 115.564 166.966 119.131C165.133 122.698 155.407 119.547 145.242 112.093C135.076 104.64 128.32 95.7058 130.152 92.1391C131.984 88.5724 141.71 91.7233 151.876 99.1768Z" fill="#D9D9D9"/>
<path d="M179.849 98.2023C190.015 105.656 196.771 114.59 194.938 118.156C193.106 121.723 183.38 118.572 173.214 111.119C163.049 103.665 156.293 94.7312 158.125 91.1645C159.957 87.5978 169.683 90.7487 179.849 98.2023Z" fill="#D9D9D9"/>
<path d="M165.996 81.2419C175.134 89.4251 181.439 98.9171 180.078 102.443C178.717 105.969 170.206 102.193 161.067 94.0103C151.929 85.8271 145.624 76.335 146.985 72.8091C148.346 69.2832 156.858 73.0587 165.996 81.2419Z" fill="#D9D9D9"/>
<path d="M174.306 76.2407C183.098 85.2743 188.281 95.2031 185.884 98.4173C183.487 101.632 174.416 96.914 165.625 87.8805C156.833 78.8469 151.65 68.9181 154.047 65.7039C156.444 62.4896 165.514 67.2072 174.306 76.2407Z" fill="#D9D9D9"/>
<path d="M180.568 59.3585C185.987 70.7397 187.702 81.8082 184.399 84.0806C181.095 86.353 174.024 78.9689 168.605 67.5876C163.186 56.2064 161.471 45.1379 164.775 42.8655C168.078 40.5931 175.149 47.9773 180.568 59.3585Z" fill="#D9D9D9"/>
<path d="M198.769 50.1637C202.834 62.0957 203.257 73.2882 199.712 75.163C196.168 77.0378 189.999 68.8848 185.933 56.9529C181.868 45.021 181.446 33.8284 184.99 31.9536C188.535 30.0789 194.704 38.2318 198.769 50.1637Z" fill="#D9D9D9"/>
<path d="M209.623 46.7114C212.281 59.0337 211.405 70.1999 207.667 71.6518C203.929 73.1038 198.745 64.2916 196.088 51.9694C193.431 39.6471 194.307 28.4809 198.045 27.029C201.782 25.577 206.966 34.3891 209.623 46.7114Z" fill="#D9D9D9"/>
<path d="M234.107 48.9807C235.32 61.5277 233.157 72.5175 229.277 73.5271C225.396 74.5367 221.267 65.1838 220.054 52.6368C218.841 40.0898 221.003 29.1 224.884 28.0904C228.764 27.0808 232.893 36.4337 234.107 48.9807Z" fill="#D9D9D9"/>
<path d="M226.107 57.9807C227.32 70.5277 225.157 81.5175 221.277 82.5271C217.396 83.5367 213.267 74.1838 212.054 61.6368C210.841 49.0898 213.003 38.1 216.884 37.0904C220.764 36.0808 224.893 45.4337 226.107 57.9807Z" fill="#D9D9D9"/>
<path d="M254.69 56.0296C274.5 79 269.477 108.814 266.5 111.5C263.523 114.186 247.5 82 243.91 65.7574C237.044 55.1856 233.892 44.4378 236.869 41.7515C239.846 39.0653 247.825 45.4578 254.69 56.0296Z" fill="#D9D9D9"/>
<path d="M243.69 57.0296C250.556 67.6014 253.708 78.3492 250.731 81.0354C247.754 83.7217 239.775 77.3292 232.91 66.7573C226.044 56.1855 222.892 45.4378 225.869 42.7515C228.846 40.0653 236.825 46.4578 243.69 57.0296Z" fill="#D9D9D9"/>
<path d="M281.5 58.5C289.524 68.2221 282.152 109.493 279.5 112.5C276.848 115.507 267.276 67.4981 259.5 46C240.276 24.4981 248.346 23.4603 250.998 20.4529C253.65 17.4454 275.5 32.5 281.5 58.5Z" fill="#D9D9D9"/>
<defs>
<linearGradient id="paint0_linear_148_131" x1="260.75" y1="212.5" x2="260.75" y2="531" gradientUnits="userSpaceOnUse">
<stop stop-color="#DDDDDD"/>
<stop offset="0.109347" stop-color="#D8D8D8"/>
<stop offset="1" stop-color="#B9B9B9"/>
</linearGradient>
</defs>
</svg>
